<?xml version="1.0" encoding="utf-8"?>
<!-- Generator: Adobe Illustrator 18.1.1, SVG Export Plug-In . SVG Version: 6.00 Build 0)  -->
<svg version="1.1" id="Шар_1" xmlns="http://www.w3.org/2000/svg" xmlns:xlink="http://www.w3.org/1999/xlink" x="0px" y="0px"
	 viewBox="-41 164.9 512 512" enable-background="new -41 164.9 512 512" xml:space="preserve">
<path fill="#FFFFFF" d="M205.4,373.7c27.4-21.4,45-54.7,45-92.1c0-64.4-52.4-116.7-116.7-116.7S17,217.2,17,281.6
	c0,37.4,17.6,70.7,45,92.1C1.4,401-41,462.1-41,532.9v124c0,11,9,20,20,20h309.5c11,0,20-9,20-20v-124
	C308.5,462.1,266.1,401,205.4,373.7z M57,281.6c0-42.3,34.4-76.7,76.7-76.7s76.7,34.4,76.7,76.7s-34.4,76.7-76.7,76.7
	S57,323.9,57,281.6z M268.5,636.9H-1v-104c0-74.2,60.4-134.6,134.6-134.6h0.3c74.2,0,134.6,60.4,134.6,134.6V636.9z M471,378.3
	c0,11-9,20-20,20h-60v60c0,11-9,20-20,20s-20-9-20-20v-60h-60c-11,0-20-9-20-20s9-20,20-20h60v-60c0-11,9-20,20-20s20,9,20,20v60h60
	C462,358.3,471,367.3,471,378.3z"/>
</svg>
