<?xml version="1.0" encoding="utf-8"?>
<!-- Generator: Adobe Illustrator 18.1.1, SVG Export Plug-In . SVG Version: 6.00 Build 0)  -->
<svg version="1.1" id="Capa_1" xmlns="http://www.w3.org/2000/svg" xmlns:xlink="http://www.w3.org/1999/xlink" x="0px" y="0px"
	 viewBox="0 0 595.3 841.9" enable-background="new 0 0 595.3 841.9" xml:space="preserve">
<g>
	<g>
		<path fill="#15161A" d="M583.7,242.9c0,0-0.1,0-0.1,0l0,0h-39.1v-13.4c0.2-5.3-3.2-10.1-8.3-11.5c-27.2-7.1-55.1-10.7-83.2-10.6
			c-46.2,0-109,10.4-155.5,57.7c-46.2-47.8-109.5-57.7-155.5-57.7c-28.1-0.1-56,3.5-83.2,10.6c-5.1,1.5-8.5,6.2-8.3,11.5v13.3H11.5
			C5.2,242.8,0,248,0,254.4v368.5c0,6.4,5.2,11.5,11.5,11.5c2,0,3.9-0.5,5.7-1.5c1.2-0.6,116.5-63.7,277.6-23.1h1.7h1
			c0.9,0.1,1.8,0.1,2.8,0c161.5-41,276.9,22,277.6,23.1c3.6,2.1,8,2.1,11.5,0c3.5-2,5.7-5.8,5.8-9.9V254.5
			C595.3,248.1,590.1,242.9,583.7,242.9z M23.1,604.6V266h27.6v289.4c-0.1,6.4,5,11.6,11.4,11.7c0.6,0,1.2,0,1.9-0.1
			c23.9-3.6,48-5.6,72.1-5.8c33.4-0.6,66.8,4.5,98.5,14.9C162.8,567.4,90,577.2,23.1,604.6z M136,538.2c-21,0-42,1.4-62.8,4V238.7
			c22.5-5,45.4-7.6,68.4-7.6c43.2,0,102.7,9.9,144,56.5L286,575C262,559.3,215.2,538.2,136,538.2z M309.1,287.6
			c41.3-46.2,100.8-56.5,144-56.5c23,0.1,46,2.6,68.4,7.6v303.6c-20.7-2.7-41.6-4.1-62.4-4.2c-78.7,0-125.7,21.1-150,36.8V287.6z
			 M572.1,604.6c-67.1-27.4-140-37.3-212-28.5c31.9-10.5,65.4-15.5,99-14.9c24.3,0.1,48.6,2,72.6,5.7c6.3,1,12.2-3.4,13.1-9.7
			c0.1-0.6,0.1-1.2,0.1-1.9V266h27.6L572.1,604.6z"/>
	</g>
</g>
</svg>
