<?xml version="1.0" encoding="utf-8"?>
<!-- Generator: Adobe Illustrator 18.1.1, SVG Export Plug-In . SVG Version: 6.00 Build 0)  -->
<svg version="1.1" id="Capa_1" xmlns="http://www.w3.org/2000/svg" xmlns:xlink="http://www.w3.org/1999/xlink" x="0px" y="0px"
	 viewBox="-41 164.9 512 512" enable-background="new -41 164.9 512 512" xml:space="preserve">
<g>
	<g>
		<path fill="#FFFFFF" d="M215,676.9c-68.4,0-132.7-26.6-181-75c-48.4-48.4-75-112.6-75-181s26.6-132.7,75-181
			c48.4-48.4,112.6-75,181-75s132.7,26.6,181,75c48.4,48.4,75,112.6,75,181s-26.6,132.7-75,181C347.7,650.3,283.4,676.9,215,676.9
			L215,676.9z M215,194.9c-60.4,0-117.1,23.5-159.8,66.2S-11,360.5-11,420.9S12.5,538,55.2,580.7c42.7,42.7,99.4,66.2,159.8,66.2
			s117.1-23.5,159.8-66.2C417.5,538,441,481.3,441,420.9s-23.5-117.1-66.2-159.8S275.4,194.9,215,194.9z"/>
	</g>
	<g>
		<path fill="#FFFFFF" d="M200,224.9h30v40h-30V224.9z"/>
	</g>
	<g>
		<path fill="#FFFFFF" d="M314.6,300l28.3-28.3l21.2,21.2l-28.3,28.3L314.6,300z"/>
	</g>
	<g>
		<path fill="#FFFFFF" d="M370.9,405.9h40v30h-40V405.9z"/>
	</g>
	<g>
		<path fill="#FFFFFF" d="M314.6,541.8l21.2-21.2l28.3,28.3l-21.2,21.2L314.6,541.8z"/>
	</g>
	<g>
		<path fill="#FFFFFF" d="M200,576.8h30v40h-30V576.8z"/>
	</g>
	<g>
		<path fill="#FFFFFF" d="M65.8,548.8l28.3-28.3l21.2,21.2L87,570L65.8,548.8z"/>
	</g>
	<g>
		<path fill="#FFFFFF" d="M19,405.9h40v30H19V405.9z"/>
	</g>
	<g>
		<path fill="#FFFFFF" d="M65.8,292.9L87,271.7l28.3,28.3l-21.2,21.2L65.8,292.9z"/>
	</g>
	<g>
		<path fill="#FFFFFF" d="M320.9,435.9H200V315h30v90.9h90.9V435.9z"/>
	</g>
</g>
</svg>
