<?xml version="1.0" encoding="utf-8"?>
<!-- Generator: Adobe Illustrator 18.1.1, SVG Export Plug-In . SVG Version: 6.00 Build 0)  -->
<svg version="1.1" id="Capa_1" xmlns="http://www.w3.org/2000/svg" xmlns:xlink="http://www.w3.org/1999/xlink" x="0px" y="0px"
	 viewBox="0 0 595.3 841.9" enable-background="new 0 0 595.3 841.9" xml:space="preserve">
<path fill="#FFFFFF" d="M382.7,551.3H155l-2-4.4c-10.5-23.2-34.3-38.7-59.1-38.7c-24.8,0-48.6,15.6-59.1,38.7l-2,4.4H11.4
	c-10,0-17.9-8.1-17.9-18.4v-84.7h389.2V551.3z M164.5,536.3h203.2v-73.1H8.5V533c0,0.6,0.1,3.4,2.9,3.4h11.9
	c13.9-26.4,41.1-43.1,70.6-43.1C123.4,493.2,150.6,510,164.5,536.3z"/>
<path fill="#FFFFFF" d="M93.9,634.2L93.9,634.2c-31.1,0-56.4-25.3-56.4-56.3c0-31.1,25.3-56.4,56.4-56.4s56.4,25.3,56.4,56.4
	C150.2,608.9,124.9,634.2,93.9,634.2z M93.9,536.5c-22.8,0-41.4,18.5-41.4,41.4c0,22.8,18.5,41.3,41.3,41.3
	c22.8,0,41.3-18.6,41.4-41.4C135.2,555,116.7,536.5,93.9,536.5z"/>
<path fill="#FFFFFF" d="M589.9,551.3h-32.4l-2-4.4c-10.5-23.2-34.3-38.7-59.1-38.7c-24.8,0-48.6,15.6-59.1,38.7l-2,4.4h-40.5V391.9
	H549l48.2,21.2c6.7,3.2,10.8,10,10.6,17.4V533C607.8,543.3,599.9,551.3,589.9,551.3z M567,536.3h22.9c2.7,0,2.9-2.8,2.9-3.4l0-102.9
	c0-1.4-0.7-2.8-2-3.5l-44.9-19.7h-136v129.5h16c13.9-26.4,41.1-43.1,70.6-43.1C525.9,493.2,553.1,510,567,536.3z"/>
<path fill="#FFFFFF" d="M543.1,374.7H394.8v-93h74.7c15.4-0.2,29.5,8.2,36.7,21.9L543.1,374.7z M409.8,359.7h108.6l-25.6-49.2
	c-4.4-8.5-13.2-13.8-22.8-13.8l-0.5,0h-59.8V359.7z"/>
<path fill="#FFFFFF" d="M382.7,434.1H-6.5v-186c0-22.8,18.2-41.4,40.5-41.4h308c11,0.1,21.2,4.4,28.9,12.2
	c7.7,7.8,11.8,18.1,11.8,29.1l-7.5,0.1l7.5,0V434.1z M8.5,419.1h359.2l0-171.2c0.1-7-2.6-13.5-7.5-18.5c-4.9-4.9-11.4-7.7-18.3-7.7
	l-308,0c-14.3,0-25.5,11.6-25.5,26.4V419.1z"/>
<path fill="#FFFFFF" d="M496.4,634.2L496.4,634.2c-31.1,0-56.4-25.3-56.4-56.3c0-31.1,25.3-56.4,56.3-56.4
	c31.1,0,56.4,25.3,56.4,56.3C552.7,608.9,527.5,634.2,496.4,634.2z M496.4,536.5c-22.8,0-41.3,18.6-41.3,41.4
	c0,22.8,18.6,41.3,41.3,41.3l0,7.5l0-7.5c22.8,0,41.3-18.6,41.3-41.4C537.8,555,519.2,536.5,496.4,536.5z"/>
</svg>
