<?xml version="1.0" encoding="utf-8"?>
<!-- Generator: Adobe Illustrator 18.1.1, SVG Export Plug-In . SVG Version: 6.00 Build 0)  -->
<svg version="1.1" id="Capa_1" xmlns="http://www.w3.org/2000/svg" xmlns:xlink="http://www.w3.org/1999/xlink" x="0px" y="0px"
	 viewBox="248 -248 512 512" enable-background="new 248 -248 512 512" xml:space="preserve">
<g>
	<path fill="#34363E" d="M338.5-248h-30v362h-30v90h30v60h30v-60h30v-90h-30V-248z M338.5,174h-30v-30h30V174z"/>
	<path fill="#34363E" d="M729.5,114h-30v-362h-30v362h-30v90h30v60h30v-60h30V114z M699.5,174h-30v-30h30V174z"/>
	<path fill="#34363E" d="M579.5-248h-30v222h-30v90h30v200h30V64h30v-90h-30V-248z M579.5,34h-30V4h30V34z"/>
	<path fill="#34363E" d="M458.5-248h-30v53.7h-30v90h30V264h30v-368.3h30v-90h-30V-248z M458.5-134.3h-30v-30h30V-134.3z"/>
</g>
</svg>
