<?xml version="1.0" encoding="utf-8"?>
<!-- Generator: Adobe Illustrator 18.1.1, SVG Export Plug-In . SVG Version: 6.00 Build 0)  -->
<svg version="1.1" id="Capa_1" xmlns="http://www.w3.org/2000/svg" xmlns:xlink="http://www.w3.org/1999/xlink" x="0px" y="0px"
	 viewBox="0 0 595.3 841.9" enable-background="new 0 0 595.3 841.9" xml:space="preserve">
<g>
	<path fill="#15161A" d="M537.9,280.7h-77.7l44.2-35.9c2.1-1.6,4-3.6,5.3-5.8c3.5-5.7,4.2-12.4,2-18.7l-29.9-82.5
		c-4.1-11-15.9-16.9-27.1-13.1l-17.6,5.9c-4.5,1.5-7,6.5-5.5,11c1.5,4.5,6.5,7,11,5.5l17.6-5.9c2.1-0.7,4.4,0.3,5.2,2.6l29.9,82.5
		c0.8,3.1-0.8,5-3.4,5.5l-48.9,5.3c-16.6,1.9-32.7,7.7-46.4,17.1l-32.4,22c-0.2,0-5.6-1-5.6-1v-25c0-9.3-2.1-18.1-5.8-26l15.5-28.1
		c8.7-15.9,22.1-28.5,38.6-36.3c4.3-2.1,6.3-7.2,4.2-11.6c-2.1-4.4-7.2-6.3-11.6-4.2c-19.9,9.3-35.9,24.4-46.5,43.6l-11.2,20.5
		c-11-11.6-26.7-18.8-43.9-18.8c-17.2,0-32.9,7.2-43.9,18.8l-11.3-20.5c-12.4-22.8-32.9-39.8-57.4-48l-44.5-14.9
		c-11.2-3.7-23,2-27.1,13.1l-29.9,82.5c-2.3,6.3-1.5,13.1,2,18.7c1.3,2,2.8,3.7,4.4,5.1l45.1,36.6H57.5c-12.4,0-22.7,10.1-22.7,22.7
		v93.7c0,12.4,10.1,22.7,22.7,22.7h18.3v272.9c0,14.4,11.7,26.2,26.2,26.2h391.6c14.4,0,26.2-11.7,26.2-26.2V591.6
		c3.1,0.1,6,0.1,8.6,0.1c0.6,0,1.2,0,1.6,0c8.1,0,15.1-5.9,16.5-13.8c4.5-24.4,12.2-85.1-12.9-119.3c-3.8-5.1-8.6-9.4-14-12.7v-26.3
		h18.3c12.4,0,22.7-10.1,22.7-22.7v-93.7C560.6,290.8,550.3,280.7,537.9,280.7L537.9,280.7z M406.4,268.3
		c11.5-7.8,24.8-12.7,38.6-14.2l23.4-2.6l-35.7,29h-44.4L406.4,268.3z M397.2,340.4c-2.1,24.8,10.9,48.4,32.9,59.9l3.7,2h-64.6
		v-62.2c0-4.8-4-8.7-8.7-8.7c-4.8,0-8.7,4-8.7,8.7v62.2H243.5V298.1h131.3C389.5,306.2,398.7,322.5,397.2,340.4L397.2,340.4z
		 M297.7,206.5c24,0,43.5,19.5,43.5,43.5v22.4c-3.3,0.8-5.9,3.5-6.5,7c-0.1,0.3-0.1,0.8-0.1,1.2h-80.3v-30.7
		C254.2,226,273.7,206.5,297.7,206.5z M99.9,226l29.9-82.5c0.8-2.1,3-3.3,5.2-2.6l44.5,14.9c20.5,6.9,37.3,20.9,47.7,39.9l15.5,28.1
		c-3.7,7.9-5.8,16.7-5.8,26v29.8l-38-25.8c-13.8-9.3-29.9-15.2-46.4-17.1l-48.9-5.3C100.6,231,99.1,229.2,99.9,226L99.9,226z
		 M127,251.6l23.4,2.6c13.7,1.5,27.1,6.4,38.6,14.2l18.1,12.2h-44.4L127,251.6z M52.3,396.9v-93.7c0-2.9,2.3-5.2,5.2-5.2h168.7
		v104.2H57.5C54.6,402.2,52.3,399.8,52.3,396.9L52.3,396.9z M93.2,692.5V419.6h133v13c0,4.8,4,8.7,8.7,8.7c4.8,0,8.7-4,8.7-8.7v-13
		h108.2v281.6H243.6V475.6c0-4.8-4-8.7-8.7-8.7c-4.8,0-8.7,4-8.7,8.7v225.6H101.9C97.1,701.2,93.2,697.2,93.2,692.5L93.2,692.5z
		 M502.2,692.5c0,4.8-4,8.7-8.7,8.7H369.2V419.6H452c4.5,7.9,6.5,17.1,5.6,26.6l-1.5,14.4c-3.5,5.5-5.7,11.7-6.6,18.3
		c-11.3-0.5-22.3,3.3-31.3,10.5c-10,8.1-15.9,19.8-16.7,32.8c-0.8,13.3,4,26.4,13.3,36c21.3,22.2,58.8,29.9,87.5,32.4L502.2,692.5
		L502.2,692.5z M529.4,574.2c-18.1,0.1-77-1.9-102.1-28.1c-5.9-6.2-9-14.5-8.5-22.9c0.5-8.1,4.2-15.3,10.3-20.3
		c5.2-4.3,11.7-6.6,18.4-6.6c2.1,0,4.2,0.2,6.3,0.7c3.1,0.7,6.4-0.1,8.8-2.2c2.4-2.1,3.8-5.1,3.7-8.4c-0.3-9,3.4-17.3,10.1-23.1
		c6-5.2,13.8-7.6,21.9-6.6c8.4,0.9,16,5.5,21.2,12.3C541,498.2,532.7,556.4,529.4,574.2L529.4,574.2z M502.2,439.5
		c-0.6-0.1-1.2-0.2-1.9-0.2c-8.8-1-17.6,0.5-25.2,4.2c0.2-8.3-1.2-16.4-4-23.8h31v19.8H502.2z M543.1,396.9c0,2.9-2.3,5.2-5.2,5.2
		H461c-5.1-6.2-11.5-11.5-19.1-15.3l-3.7-2c-15.8-8.3-25.1-25.1-23.7-43c1.3-15.5-3.3-30.7-12.8-43c-0.2-0.2-0.5-0.6-0.7-0.8h136.7
		c2.9,0,5.2,2.3,5.2,5.2L543.1,396.9z"/>
</g>
</svg>
