<?xml version="1.0" encoding="utf-8"?>
<!-- Generator: Adobe Illustrator 18.1.1, SVG Export Plug-In . SVG Version: 6.00 Build 0)  -->
<svg version="1.1" id="Шар_1" xmlns="http://www.w3.org/2000/svg" xmlns:xlink="http://www.w3.org/1999/xlink" x="0px" y="0px"
	 viewBox="0 0 595.3 841.9" enable-background="new 0 0 595.3 841.9" xml:space="preserve">
<path fill="#F7DC22" d="M297.6,657.5c-8.5,0-16.6-3.1-23-8.6c-24-21-47.2-40.8-67.7-58.2l-0.1-0.1c-60-51.1-111.8-95.2-147.8-138.7
	c-40.3-48.6-59-94.7-59-145c0-48.9,16.8-94,47.2-127.1c30.8-33.4,73.1-51.8,119.1-51.8c34.4,0,65.8,10.9,93.5,32.3
	c14,10.8,26.7,24,37.8,39.5c11.2-15.4,23.8-28.7,37.8-39.5c27.7-21.4,59.2-32.3,93.5-32.3c46,0,88.3,18.4,119.1,51.8
	c30.5,33,47.2,78.2,47.2,127.1c0,50.3-18.8,96.4-59,145c-36,43.5-87.8,87.6-147.8,138.7c-20.5,17.5-43.7,37.3-67.8,58.3
	C314.3,654.4,306.1,657.5,297.6,657.5z M166.3,162.7c-36.1,0-69.3,14.4-93.4,40.6c-24.5,26.6-38,63.3-38,103.4
	c0,42.3,15.7,80.2,51,122.8c34.1,41.2,84.8,84.4,143.6,134.4l0.1,0.1c20.5,17.5,43.8,37.3,68,58.5c24.4-21.2,47.7-41.1,68.3-58.6
	c58.7-50.1,109.4-93.3,143.6-134.4c35.3-42.6,51-80.4,51-122.8c0-40.1-13.5-76.9-38-103.4c-24.1-26.2-57.3-40.6-93.4-40.6
	c-26.5,0-50.8,8.4-72.2,25c-19.1,14.8-32.4,33.5-40.2,46.6c-4,6.7-11.1,10.7-18.9,10.7s-14.9-4-18.9-10.7
	c-7.8-13.1-21.1-31.8-40.2-46.6C217,171.1,192.8,162.7,166.3,162.7z"/>
</svg>
