<?xml version="1.0" encoding="utf-8"?>
<!-- Generator: Adobe Illustrator 18.1.1, SVG Export Plug-In . SVG Version: 6.00 Build 0)  -->
<svg version="1.1" id="Capa_1" xmlns="http://www.w3.org/2000/svg" xmlns:xlink="http://www.w3.org/1999/xlink" x="0px" y="0px"
	 viewBox="-84 207.9 426 426" enable-background="new -84 207.9 426 426" xml:space="preserve">
<g>
	<path fill="#FFFFFF" d="M129.3,643.9c-4.7,0-9.1-2.2-11.9-6c-0.3-0.4-33.4-45.1-65.7-102.7c-44.1-78.8-66.5-144-66.5-194
		c0-79,64.3-143.4,143.4-143.4h0.6c79.1,0,143.4,64.3,143.4,143.4c0,41.5-22.2,104.2-66,186.2c-31.7,59.3-63.7,107.8-65,109.8
		c-2.7,4-7.1,6.5-11.9,6.6C129.6,643.9,129.5,643.9,129.3,643.9z M129.3,623.9v10V623.9C129.3,623.9,129.3,623.9,129.3,623.9
		L129.3,623.9z M128.7,217.9c-68,0-123.4,55.3-123.4,123.4c0,46.5,21.5,108.4,64,184.2c24.9,44.4,50,80.6,59.9,94.4
		c9.7-15,34.9-54.9,59.9-101.9c42.2-79.1,63.7-138.6,63.7-176.8c0-68-55.4-123.4-123.4-123.4H128.7z M129,416.4
		c-39.6,0-71.9-32.2-71.9-71.9s32.2-71.9,71.9-71.9c39.6,0,71.9,32.2,71.9,71.9S168.6,416.4,129,416.4z M129,292.7
		c-28.6,0-51.9,23.3-51.9,51.9s23.3,51.9,51.9,51.9c28.6,0,51.9-23.3,51.9-51.9S157.6,292.7,129,292.7z"/>
</g>
</svg>
