<?xml version="1.0" encoding="utf-8"?>
<!-- Generator: Adobe Illustrator 18.1.1, SVG Export Plug-In . SVG Version: 6.00 Build 0)  -->
<svg version="1.1" id="Шар_1" xmlns="http://www.w3.org/2000/svg" xmlns:xlink="http://www.w3.org/1999/xlink" x="0px" y="0px"
	 viewBox="0 0 1740.5 1026.5" enable-background="new 0 0 1740.5 1026.5" xml:space="preserve">
<g>
	<g>
		<path fill="#FFEC00" d="M1473.9,780.4v20.5h6.5c9,0,13.5-3.4,13.5-10.1c0-4-1.1-6.9-3.4-8.4c-1.9-1.3-5-1.9-9.2-1.9H1473.9z
			 M1473.9,757.9v18.4h5.6c3.7,0,6.6-0.7,8.6-2c2-1.3,3-3.8,3-7.5c0-6-4.2-8.9-12.6-8.9H1473.9z M1469.3,805.1v-51.4h9.6
			c5.4,0,9.4,0.9,12.1,2.6c3.3,2.1,4.9,5.7,4.9,10.8c0,5.4-2.5,8.9-7.4,10.5c6.8,2,10.2,6.2,10.2,12.6c0,5.3-1.6,9.2-4.9,11.5
			c-3.3,2.3-7.6,3.5-13.1,3.5H1469.3z M1457,779c0-6-2.1-11.2-6.4-15.5c-4.2-4.3-9.4-6.5-15.4-6.5c-5.8,0-10.8,2.2-15,6.7
			c-4.2,4.5-6.4,9.6-6.4,15.4c0,6.3,2,11.6,6.1,15.9c4.1,4.5,9.3,6.7,15.6,6.7c6.1,0,11.3-2.3,15.4-6.9
			C1455,790.5,1457,785.1,1457,779z M1461.9,779c0,7.5-2.5,13.9-7.6,19.2c-5.1,5.3-11.4,7.9-18.9,7.9c-7.5,0-13.8-2.6-18.7-7.9
			c-5-5.2-7.5-11.6-7.5-19.2c0-7.1,2.6-13.3,7.8-18.5c5.2-5.2,11.4-7.8,18.5-7.8c7.3,0,13.5,2.6,18.7,7.7S1461.9,771.7,1461.9,779z
			 M1379.1,757.9v21h7.8c8.3,0,12.5-3.5,12.5-10.4c0-7.1-4.3-10.6-12.9-10.6H1379.1z M1374.4,805.1v-51.4h12.5
			c11.8,0,17.6,4.9,17.6,14.6c0,9.9-5.7,14.8-17.2,14.8h-8.2v22H1374.4z M1365.2,805.1h-26.5v-51.4h26.5v4.2h-21.9v18.6h19.3v4.2
			h-19.3v20.1h21.9V805.1z M1322.5,805.1h-4.7V758h-10.4v-4.3h25.6v4.3h-10.6V805.1z M1301.8,753.7v51.4h-4.9v-44.4l-29.6,44.4h-5.1
			v-51.4h4.7v44.4l29.6-44.4H1301.8z M1234.4,760.2l-14.6,40.6h29.6l-14.6-40.6H1234.4z M1215,800.8l17.6-47.1h4l17.6,47.1h3.1v13.3
			h-4.4v-9h-36.7v9h-4.4v-13.3H1215z M1176.8,805.1h-4.6v-51.4h4.6v22.9h25.3v-22.9h4.6v51.4h-4.6v-24.4h-25.3V805.1z M1159.9,779
			c0-6-2.1-11.2-6.4-15.5c-4.2-4.3-9.4-6.5-15.4-6.5c-5.8,0-10.8,2.2-15,6.7c-4.2,4.5-6.4,9.6-6.4,15.4c0,6.3,2,11.6,6.1,15.9
			c4.1,4.5,9.3,6.7,15.6,6.7c6.1,0,11.3-2.3,15.4-6.9C1157.9,790.5,1159.9,785.1,1159.9,779z M1164.8,779c0,7.5-2.5,13.9-7.6,19.2
			c-5.1,5.3-11.4,7.9-18.9,7.9c-7.5,0-13.8-2.6-18.7-7.9c-5-5.2-7.5-11.6-7.5-19.2c0-7.1,2.6-13.3,7.8-18.5
			c5.2-5.2,11.4-7.8,18.5-7.8c7.3,0,13.5,2.6,18.7,7.7S1164.8,771.7,1164.8,779z M1106.4,805.1l-24.7-26.4v26.4h-4.6v-51.4h4.6v24.9
			l23.4-24.9h6.3l-24,24.6l25,26.8H1106.4z M1048.4,753.7v51.4h-4.9v-44.4l-29.6,44.4h-5.1v-51.4h4.7v44.4l29.6-44.4H1048.4z
			 M952.1,741.5c0,2.9,2.1,4.4,6.4,4.4c4.2,0,6.4-1.5,6.4-4.4h4.1c-0.2,2.6-1.4,4.6-3.5,6.1c-1.9,1.3-4.2,1.9-7,1.9
			c-2.8,0-5.1-0.6-7-1.9c-2.1-1.4-3.3-3.5-3.5-6.1H952.1z M978.2,753.7v51.4h-4.9v-44.4l-29.6,44.4h-5.1v-51.4h4.7v44.5l29.6-44.5
			H978.2z M929.6,805.1h-26.5v-51.4h26.5v4.2h-21.9v18.6H927v4.2h-19.3v20.1h21.9V805.1z M870.5,757.9v21h7.8
			c8.3,0,12.5-3.5,12.5-10.4c0-7.1-4.3-10.6-12.9-10.6H870.5z M865.7,805.1v-51.4h12.5c11.8,0,17.6,4.9,17.6,14.6
			c0,9.9-5.7,14.8-17.2,14.8h-8.2v22H865.7z M839.3,761.2l-8.9,22.9h18l-8.9-22.9H839.3z M861.5,805.1h-5l-6.4-16.8h-21.1l-6.4,16.8
			h-5l20-51.4h4L861.5,805.1z M812.5,805.1l-24.7-26.4v26.4h-4.6v-51.4h4.6v24.9l23.4-24.9h6.3l-24,24.6l25,26.8H812.5z
			 M773.9,805.1h-26.5v-51.4h26.5v4.2H752v18.6h19.3v4.2H752v20.1h21.9V805.1z M708.3,805.1h-4.6v-51.4h33.6v51.4h-4.6v-46.9h-24.4
			V805.1z M675.1,805.1h-4.7v-26.4l-19.9,26.4h-5.6l17.6-22.6c-5,0-9-1.1-12-3.2c-3.4-2.5-5.1-6.1-5.1-10.9c0-4.8,1.7-8.5,5.2-11.1
			c3.1-2.3,7.2-3.5,12.1-3.5h12.5V805.1z M650,768.6c0,4,1.4,6.7,4.3,8.3c2.2,1.2,5.4,1.8,9.7,1.8h6.4v-20.8H663
			C654.3,757.9,650,761.5,650,768.6z M600.7,805.1l19.4-51.4h4l19.4,51.4h-5l-16.2-43.9h-0.3l-16.2,43.9H600.7z M575.7,760.2
			l-14.6,40.6h29.6L576,760.2H575.7z M556.3,800.8l17.6-47.1h4l17.6,47.1h3.1v13.3h-4.4v-9h-36.7v9h-4.4v-13.3H556.3z M499.6,805.1
			h-4.6v-51.4h4.6v22.9h25.3v-22.9h4.6v51.4h-4.6v-24.4h-25.3V805.1z M484.9,753.7v51.4H480v-44.4l-29.6,44.4h-5.1v-51.4h4.7v44.4
			l29.6-44.4H484.9z M405.7,790.9h5.2c0,3.1,1,5.7,2.9,7.6c1.9,1.9,4.5,2.9,7.6,2.9c3,0,5.6-1,7.7-3c2.1-2,3.2-4.4,3.2-7.4
			c0-2.1-0.6-4.1-1.8-5.9c-1.2-1.8-2.8-3.1-4.8-4c-1.2-0.5-2.7-0.8-4.4-0.9c1,0-0.5,0.1-4.5,0.1v-4.4h4.1c2.9,0,5.3-0.8,7.2-2.5
			c1.9-1.6,2.9-3.9,2.9-6.7c0-2.5-0.9-4.7-2.6-6.5c-1.8-1.8-3.9-2.7-6.4-2.7s-4.8,0.9-6.7,2.6c-2,1.8-2.9,3.9-2.9,6.4h-5.1
			c0-3.8,1.4-7,4.1-9.7c2.8-2.7,6.1-4,9.9-4c4.1,0,7.6,1.3,10.4,3.8c2.8,2.5,4.2,5.9,4.2,10c0,5.1-2.4,8.9-7.1,11.4
			c5.6,2.6,8.4,6.9,8.4,13.1c0,4.2-1.6,7.7-4.7,10.6c-3.1,2.9-6.8,4.4-11,4.4c-4.4,0-8.1-1.4-11.2-4.3
			C407.2,798.8,405.7,795.2,405.7,790.9z M381.4,761.2l-8.9,22.9h18l-8.9-22.9H381.4z M403.5,805.1h-5l-6.4-16.8H371l-6.4,16.8h-5
			l20-51.4h4L403.5,805.1z M344.5,805.1v-51.4h24.3v4.2h-19.6v47.2H344.5z M318.4,761.2l-8.9,22.9h18l-8.9-22.9H318.4z M340.5,805.1
			h-5l-6.4-16.8H308l-6.4,16.8h-5l20-51.4h4L340.5,805.1z M269.3,805.1h-4.4l-18.2-45.7h-0.4c0.1,2,0.2,3,0.2,3v42.7h-4.6v-51.4h7.4
			l17.8,45.3h0.3l17.8-45.3h7.4v51.4h-4.6v-42.7c0,0,0.1-1,0.2-3h-0.4L269.3,805.1z"/>
	</g>
	<path fill-rule="evenodd" clip-rule="evenodd" fill="#FFFFFF" d="M470,484.7c0.3-16.4,1.1-33.3,2.4-50.5
		c1.3-17.2,3.3-34.3,5.8-51.2c-7.7,20.5-15.8,39.8-24.2,57.9c-8.4,18.1-17.1,34.9-26.1,50.5c6.6-0.8,13.5-1.9,20.7-3.2
		C455.7,486.8,462.8,485.7,470,484.7 M572.1,594.3c-14.8,3-28.3,7.1-40.6,12.3c-7.6,3.3-15.1,7.2-22.6,11.7
		c-7.5,4.5-14.5,9.7-21.2,15.6c-6.7,5.9-12.8,12.4-18.4,19.5c-5.6,7.1-10.3,14.6-14.1,22.7c-2.5,5.4-3.5,10.1-3.2,14
		s3.1,6.5,8.1,7.6c9.6,2,20.3,1.5,32.2-1.4c11.9-2.9,23.9-7.9,36-15c12.1-7.1,23.9-16.3,35.1-27.5c11.3-11.2,21.1-24.1,29.6-38.7
		c4.7-8.2,8.7-16.3,11.9-24.4C593.7,591.1,582.8,592.2,572.1,594.3z M656.8,627.1c0.4-1.6,0.5-3.2,0.5-4.9
		c0.3-7.4-2.5-13.9-8.4-19.5c-2.8-2.7-6.6-5.1-11.5-7c-7.6,3.7-10.2,8.4-5.7,14.2C637.4,617.3,646,623,656.8,627.1z M652.8,590.7
		c2.3,1.7,4.3,3.5,6.1,5.4c3.6,3.8,6.3,7.8,8.1,12.1c1.8,4.3,2.6,8.5,2.6,12.6c0,3.3-0.5,6.6-1.6,9.9c58.8,15,164.7-5.5,246.2-46.6
		C902.8,583.4,718.8,575.4,652.8,590.7z M569.3,470.8c4.5-3.3,9-6,13.5-8.2c8.3-4,16-5.5,23-4.4c7,1.1,12.2,5.5,15.6,13.4
		c0.8,3.1,0.6,7.1-0.7,11.9c-1.3,4.8-3.3,9.9-6,15c-2.7,5.2-5.9,10.2-9.5,15c-3.7,4.8-7.5,9-11.6,12.4c9-0.7,16,0.2,21,2.6
		c5,2.4,8.4,5.2,10.1,8.5c2.4,7.9,3.1,16.6,2.2,26.1c-0.5,5.3-1.5,10.6-3,16c0.9,0.2,2,0.3,3.1,0.5c6.9,1.3,13.1,3.4,18.5,6.3
		c0.2,0.1,0.5,0.3,0.7,0.4c54.5-15.6,191.1-10.4,273.6-5.3c63.4-33.2,110.6-79.1,106.1-130.4C1017,349.2,877.6,349.6,805.7,360
		C676.7,378.7,608.6,426.3,569.3,470.8z M406.3,504.4c-4.9,0-8.5-0.7-10.6-2.2s-2.9-3.4-2.4-5.9c0.6-2.6,2-4.5,4.4-5.7
		c1.3,0.7,3.3,1.1,5.8,1.5c2.6,0.3,5.2,0.5,8,0.5h3c13.4-21.8,25.7-45.1,36.9-69.8c11.2-24.7,20.8-49.5,28.8-74.3
		c5-33.7,11.3-50.5,19.1-50.5c3.1,0,4.6,3.2,4.4,9.7c-0.2,6.5-2.7,17.5-7.7,32.9c-3.7,23-6.5,46.9-8.6,71.6
		c-2.1,24.7-3.1,48.3-3.3,70.8c1.3-0.2,2.8-0.3,4.3-0.4c1.5-0.1,2.9-0.1,4.2-0.1c8.5,0,14.3,1,17.2,3.1c2.9,2.1,4.1,4.4,3.5,7
		c-0.4,1.8-1.3,3.4-2.6,4.7c-1.4,1.3-2.7,2.1-4.1,2.5c-1.2-1.3-3.7-2.3-7.6-3.1c-3.9-0.7-8.4-1.1-13.7-1.1h-1.2
		c0.1,8.5,0.5,16.3,1.2,23.3c0.7,7,1.7,13,3,18c1.3,5,2.9,8.9,4.7,11.7c1.9,2.8,4,4.2,6.5,4.2c1.1,0,2.3-0.2,3.5-0.7
		c20.1-17.8,32-100.1,148.1-156.5c90.1-43.8,345-102.7,381.1,40.8c14.4,57.3-31.6,108.7-97.7,145.8c28.6,1.9,48.1,3.5,51,3.8
		c56.5,5.6,111.7,11.9,167.2,24.4c-73.8-12.7-148.6-20.2-223.4-25.3c-84.9,46-200,68.8-263.9,51.6c-2,3.5-4.7,6.7-8.1,9.6
		c-4.1,3.5-9.2,6.4-15.2,8.6c-6,2.2-12.9,3.4-20.9,3.6c-1.8,0-3.7-0.1-5.7-0.2c-2-0.2-4-0.5-5.8-0.9c-1.9-0.4-3.6-0.8-5.2-1.1
		c-1.6-0.3-2.8-0.7-3.7-1c-1.8-0.7-3.3-1.6-4.4-3c-1.1-1.3-1.6-2.5-1.5-3.7c0.1-1.1,0.8-2,2.3-2.5c1.4-0.5,3.8-0.3,7,0.5
		c0.8,0.3,2.1,0.7,4.1,1c2,0.3,4.8,0.4,8.4,0.2c13.3-0.2,23.4-2.6,30.3-7.4c3.2-2.2,5.6-4.7,7.3-7.4c-11.9-4.6-21.5-11-27.8-19.3
		c-6.4-8.4-4.6-15.1,3.3-20.3c-2.9-0.8-6.1-1.4-9.6-2c-0.1,0.3-0.2,0.7-0.5,1.2c-3.7,10.2-8.7,20.3-15.1,30.4
		c-6.4,10.1-13.7,19.8-21.9,28.9c-8.2,9.2-17.3,17.7-27.3,25.4c-10,7.7-20.4,14.2-31.4,19.5c-11,5.3-22.4,9-34.2,11.3
		c-11.8,2.3-23.7,2.6-35.7,1c-5-1-8.8-3-11.4-6c-2.5-3-4-6.7-4.5-11.1c-0.5-4.4,0.2-9.2,1.9-14.7c1.7-5.4,4.4-11,7.9-16.8
		c4.5-7.2,10.1-14.2,16.6-21.1c6.6-6.8,13.8-13.2,21.7-19.2c7.9-6,16.2-11.5,25-16.4c8.8-4.9,17.6-9.1,26.4-12.6
		c12.9-5.1,27-8.9,42.1-11.3c9.5-1.5,19.3-2.1,29.2-1.7c2.3-8.4,3.2-15.8,2.6-22.2c-0.6-7.7-3.7-13.5-9.2-17.2
		c-5.5-3.8-14.1-4.4-25.9-1.7c-2.7,1.6-5.5,4-8.4,7.1c-3,3.1-6,5.3-9,6.4c-1.8,0.8-3.7,1.2-5.5,1c-1.9-0.2-3.3-1.2-4.4-3.2
		c-0.6-1.1-0.4-2.4,0.5-3.8c0.9-1.4,2.1-2.8,3.7-4.2c1.6-1.4,3.6-2.8,5.9-4.1c2.3-1.3,4.7-2.4,7-3.2c2-0.8,3.6-1.5,4.8-2.1
		c1.2-0.6,2.2-1,3.1-1.4c4.5-2.8,8.7-6.4,12.6-10.8c3.8-4.4,7.1-9,9.9-13.8c2.8-4.8,4.9-9.4,6.4-14c1.5-4.6,2.2-8.5,2.1-11.8
		c-1.9-4.3-4.3-7-7.2-8.3c-2.9-1.2-6.2-1.4-9.9-0.4c-3.7,1-7.5,3-11.6,5.9c-4.1,3-8.1,6.3-11.9,10.1c-3.9,3.8-7.5,7.9-11,12.3
		c-3.5,4.4-6.4,8.6-8.8,12.6c-1.7,2.7-3.5,4.9-5.6,6.4c-2.1,4.1-4.1,7.8-6.1,11.3c-5.3,9.5-10.3,17.2-14.8,23
		c-4.5,5.8-8.8,10.1-12.7,12.7c-3.9,2.6-7.7,3.9-11.3,3.9c-3.6,0-6.9-1.1-9.8-3.4c-3-2.3-5.5-6.2-7.7-11.8c-2.2-5.6-3.8-13-4.9-22.2
		c-1.1-9.2-1.7-20.6-1.7-34.2c0-0.2,0-0.3,0-0.4c-0.1-0.1-0.1-0.2,0-0.4c-7.7,0.8-16,2-24.7,3.6c-8.7,1.6-16.9,2.8-24.7,3.6
		c-11.2,18.4-22.6,34.7-34.3,49c-11.6,14.3-23.3,26.4-35.1,36.2c-11.7,9.9-23.4,17.3-35,22.4c-11.6,5.1-22.9,7.6-33.9,7.6
		c-7.4,0-13.9-1.5-19.6-4.6c-5.7-3-10.2-7.3-13.7-12.8c-3.5-5.5-5.7-12.1-6.7-19.8c-1-7.7-0.4-16.3,1.6-25.6
		c2.6-12.2,7.1-24.6,13.3-37.2c6.3-12.6,13.7-24.8,22.3-36.6c8.6-11.7,18.1-22.8,28.5-33.1c10.4-10.3,21-19.4,31.9-27.1
		c10.9-7.7,21.7-13.8,32.4-18.2c10.7-4.4,20.8-6.7,30.1-6.7c9.2,0,15.8,2.9,19.7,8.7c3.9,5.8,4.7,14.2,2.4,25
		c-2.2,10.2-6.5,20.5-12.9,30.8c-6.4,10.3-13.9,19.7-22.5,28.1c-8.5,8.4-17.6,15.2-27.2,20.4c-9.6,5.3-18.6,7.9-27,7.9
		c-7.4,0-12.8-2.1-16.1-6.4c-3.3-4.3-4.1-10.5-2.4-18.7c1.6-7.2,4.8-14.8,9.8-22.7c5-7.9,11.8-14.9,20.5-20.9c3.3-2.3,6-3.2,8.1-2.8
		c2.1,0.4,3.1,1.8,2.9,4.1c-3.3,2.1-6.4,4.7-9.4,7.6c-3,3-5.8,6.1-8.2,9.5c-2.5,3.4-4.5,6.7-6.2,10c-1.7,3.3-2.9,6.4-3.5,9.4
		c-1.2,5.7-0.8,9.9,1.3,12.4c2.1,2.5,5.5,3.8,10.3,3.8c6.1,0,12.8-2.1,20.1-6.4c7.3-4.3,14.3-9.7,20.9-16.3
		c6.6-6.6,12.4-13.8,17.4-21.7c5-7.9,8.3-15.4,9.8-22.4c1.8-8.2,1.3-14.3-1.3-18.4c-2.7-4-7.1-6-13.4-6c-7.4,0-15.6,2-24.6,5.9
		c-9,3.9-18.2,9.4-27.7,16.3c-9.5,6.9-18.8,14.9-28.1,24.1c-9.3,9.2-17.8,19-25.6,29.3c-7.7,10.3-14.5,21.1-20.2,32.3
		c-5.7,11.2-9.7,22.1-12,32.8c-1.8,8.5-2.4,16-1.6,22.3c0.8,6.3,2.6,11.5,5.6,15.6c3,4.1,6.8,7.2,11.4,9.2c4.6,2.1,9.9,3.1,15.8,3.1
		c9.5,0,19.3-2.5,29.4-7.4c10.1-4.9,20.2-11.7,30.3-20.4c10.1-8.7,20.1-19.1,29.9-31.3c9.9-12.2,19.5-25.4,28.8-39.7H406.3z"/>
	<path fill="#FFFFFF" d="M1447.9,482.8c-2.1,0-4.2,0.7-6.3,2.2c-2.1,1.4-4.1,3.4-6,6c-1.9,2.5-3.6,5.4-5.1,8.8
		c-1.5,3.4-2.7,6.9-3.6,10.6c1,2.5,2.6,4.5,4.9,5.8c2.3,1.4,4.9,2.1,7.7,2.1c2,0,3.9-0.5,5.9-1.4c2-0.9,3.7-2.3,5.4-4.2
		c1.6-1.9,2.9-4.2,4-6.9c1.1-2.7,1.6-5.9,1.6-9.5c0-3.6-0.7-6.8-2.1-9.5C1452.8,484.1,1450.7,482.8,1447.9,482.8 M1492.8,499.4
		c3.9,0,5.3,2.6,4,7.8c-2.7,10.5-6,19.6-10,27.3c-4,7.7-8.3,14.1-13,19.1c-4.7,5-9.6,8.8-14.6,11.2c-5,2.5-9.9,3.7-14.5,3.7
		c-8.7,0-15.7-3.4-21-10.1c-5.3-6.7-8-16.9-8-30.5c0-8.1,1-15.7,3-22.6c2-6.9,4.7-12.9,7.9-17.8c3.2-4.9,6.9-8.8,11.1-11.6
		c4.2-2.8,8.5-4.2,13-4.2c3.1,0,5.7,0.6,7.8,1.8c2.1,1.2,3.9,2.8,5.3,4.8c1.4,2,2.4,4.4,3,7.1c0.6,2.7,0.9,5.6,0.9,8.7
		c0,5-0.8,9.7-2.4,13.9c-1.6,4.2-3.7,7.8-6.3,10.9c-2.6,3.1-5.5,5.5-8.8,7.1c-3.3,1.7-6.6,2.5-10,2.5c-2.8,0-5.6-0.5-8.5-1.6
		c-2.9-1.1-5.1-2.6-6.6-4.6v1.7c0,10.4,2,18.3,6,23.6c4,5.4,9.1,8,15.2,8c3.5,0,7.2-0.9,11.2-2.8c4-1.9,8-5,12.1-9.5
		c4.1-4.4,8.1-10.2,12-17.4C1485.6,519,1489.3,510,1492.8,499.4z M1343.6,520.8c0.1,1.5,0.6,3,1.3,4.4c2.8,1,6,1.5,9.5,1.5
		c4.5,0,8.6-0.8,12.3-2.4c3.7-1.6,6.9-3.8,9.7-6.5c2.7-2.7,4.8-5.9,6.3-9.5s2.2-7.4,2.2-11.5c0-7.8-3.2-11.8-9.7-11.8
		c-2.5,0-5.3,0.9-8.4,2.7c-3.1,1.8-6.2,4.3-9.2,7.6c-3.1,3.2-6.1,7-9,11.2c-2.9,4.3-5.5,8.9-7.8,14c0.4,0,0.9,0,1.4,0
		C1342.6,520.6,1343.1,520.7,1343.6,520.8z M1357.7,376.7c-2.7,0-5.5,2.3-8.5,6.9c-3,4.6-5.8,11.3-8.4,20.2
		c-2.6,8.8-4.9,19.7-6.8,32.6c-2,12.9-3.2,27.6-3.6,44.1c4.1-1.7,8.3-5,12.6-9.9c4.3-4.9,8.3-10.9,11.8-18.1
		c3.5-7.1,6.4-15.1,8.6-24c2.2-8.8,3.4-18,3.4-27.5c0-8.8-0.9-15.1-2.7-18.8C1362.2,378.5,1360.1,376.7,1357.7,376.7z M1395.1,493.7
		c0,6.2-1.2,11.9-3.6,17.2c-2.4,5.3-5.6,9.9-9.6,13.9c-4,3.9-8.6,7-13.8,9.1c-5.2,2.2-10.6,3.1-16.2,2.8c2.2,2.5,4.7,4.9,7.5,7
		c2.7,2.2,5.5,4.1,8.4,5.7c2.9,1.6,5.7,2.9,8.5,3.8c2.8,0.9,5.5,1.4,8,1.4c3.1,0,6-0.6,8.7-1.9c2.7-1.3,5.5-3.9,8.3-7.8
		s5.7-9.5,8.8-16.8c3.1-7.3,6.6-16.9,10.5-28.8c3.9,0,5.3,2.6,4,7.8c-2.9,11.6-6,21.3-9.1,29.1c-3.2,7.8-6.4,14-9.9,18.7
		c-3.4,4.7-6.9,8-10.5,10c-3.6,2-7.2,2.9-11,2.9c-3.9,0-8.3-1.1-13.1-3.2c-4.8-2.1-9.5-4.9-14.1-8.3c-4.6-3.4-8.7-7.3-12.4-11.7
		c-3.7-4.3-6.4-8.8-8.1-13.4c-1,3.2-1.8,6.5-2.3,9.9c-0.6,3.4-0.8,6.7-0.8,10.1c0,3.6,0.4,7,1.1,10.1c-1.4,1.1-2.9,1.7-4.6,1.7
		c-1.8,0-3.3-0.7-4.5-2.1c-1.2-1.4-2.1-4.6-2.8-9.7c-0.6-3.5-1-7.6-1.4-12.4c-0.4-4.8-0.7-9.8-0.9-15.2c-0.3-5.4-0.5-10.9-0.6-16.4
		c-0.1-5.5-0.2-10.8-0.2-15.7c-2-0.4-4.1-1.5-6.5-3.2c-2-1.4-3.1-3.3-3.5-5.8c-0.4-2.5,0.7-4.4,3-5.8c1.8,2.1,4.2,3.4,7.1,4
		c0.4-20.9,2-38.8,4.7-53.7c2.7-14.9,6.1-27.1,10-36.7c3.9-9.5,8.2-16.5,12.8-21c4.6-4.5,9-6.7,13-6.7c6,0,10.7,2.9,14.1,8.8
		c3.4,5.9,5,14.7,5,26.5c0,11.2-1.5,22.1-4.4,32.6c-2.9,10.5-6.8,20-11.5,28.5c-4.7,8.5-9.9,15.6-15.8,21.3
		c-5.8,5.7-11.6,9.4-17.3,10.9v4.4c0,4.3,0,9,0,14c0,5,0.1,9.9,0.4,14.8c1.8-6.9,4.5-13.5,8.1-20s7.5-12.1,11.9-17
		c4.3-4.9,8.9-8.8,13.6-11.8c4.7-2.9,9.1-4.4,13.3-4.4c6.2,0,10.6,2.1,13.4,6.4C1393.7,482.1,1395.1,487.4,1395.1,493.7z
		 M1278.3,501.5c-0.6-6-2.3-10.6-5.3-13.8c-2.9-3.2-6.8-4.7-11.6-4.7c-4.2,0-8,1.3-11.5,3.8c-3.4,2.5-6.4,5.8-8.8,9.9
		c-2.5,4.1-4.4,8.8-5.8,14.1c-1.4,5.3-2.1,10.8-2.1,16.4c0,8.8,1.4,15.6,4.3,20.4c2.9,4.8,6.4,7.1,10.6,7.1c3.6,0,7.3-1.8,11-5.3
		c3.7-3.5,6.9-7.9,9.6-13.2c-0.1-1.3-0.2-2.6-0.3-4c-0.1-1.4-0.1-2.9-0.1-4.4c0-8.5,0.9-15.3,2.8-20.3
		C1273.1,502.5,1275.5,500.5,1278.3,501.5z M1287.5,501.9c0,4.3-0.5,7.4-1.4,9.1c-0.9,1.8-2.1,2.8-3.7,3c0,5.6-1.1,11.6-3.2,18.1
		c1.4,12.5,5.2,18.7,11.3,18.7c2.1,0,4.2-0.8,6.3-2.4c2.1-1.6,4.3-4.4,6.5-8.3c2.2-3.9,4.7-9.2,7.4-15.8c2.7-6.6,5.6-14.9,8.8-25
		c3.9,0,5.3,2.6,4,7.8c-2.8,11.2-5.6,20.5-8.3,27.8c-2.7,7.4-5.5,13.2-8.3,17.7c-2.8,4.4-5.7,7.5-8.7,9.2c-3,1.8-6.1,2.6-9.4,2.6
		c-8.4,0-14.3-5.1-17.7-15.3c-3.2,5.3-7.1,9.8-11.6,13.3c-4.5,3.6-9.3,5.4-14.5,5.4c-6.4,0-11.8-3.1-16.2-9.2
		c-4.3-6.2-6.5-15.3-6.5-27.3c0-7.6,1.1-15,3.2-22.3c2.1-7.3,5-13.8,8.6-19.4c3.6-5.7,7.9-10.2,12.8-13.7c4.9-3.4,10.2-5.1,15.8-5.1
		c4.2,0,7.8,0.8,10.9,2.4c3.1,1.6,5.6,3.8,7.7,6.6c2,2.8,3.5,6.1,4.5,9.9C1287,493.5,1287.5,497.6,1287.5,501.9z M1140,405
		c-4.1,0-8.3,1.2-12.8,3.6c-1.5,3.2-2.6,6.4-3.3,9.6c-0.6,3.2-0.9,6.3-0.9,9.4c0,5.7,0.9,9.8,2.8,12.3c1.9,2.5,4.1,3.7,6.6,3.7
		c2.2,0,4.4-0.6,6.6-1.9c2.2-1.3,4.2-3,6-5.3c1.8-2.2,3.3-4.9,4.4-8c1.1-3.1,1.7-6.4,1.7-9.9c0-4.5-1-7.8-2.9-10.1
		C1146.3,406.1,1143.5,405,1140,405z M1094.6,589.7c-15,0-28.8-1.9-41.5-5.7c-12.7-3.8-23.6-9.4-32.8-16.7
		c-9.2-7.4-16.4-16.4-21.5-27.1c-5.2-10.7-7.8-23-7.8-36.9c0-13.3,2.4-26.4,7.2-39.4c4.8-13,11.5-25.3,19.9-37.1
		c8.4-11.8,18.3-22.7,29.7-32.7c11.4-10,23.7-18.7,36.9-26c13.2-7.3,26.9-13,41.3-17.1c14.4-4.1,28.7-6.2,43-6.2
		c10.2,0,18.9,1,26.2,3s13,4.9,17.4,8.6c4.4,3.7,7.6,8.1,9.7,13.2c2,5.1,3,10.8,3,17.1c0,7.7-1.6,15.7-4.9,24
		c-3.3,8.3-7.7,16.3-13.3,24.2c-5.6,7.8-12.2,15.3-19.6,22.5c-7.5,7.1-15.4,13.4-23.7,18.7c-8.3,5.3-16.9,9.6-25.7,12.7
		c-8.8,3.2-17.4,4.7-25.6,4.7c-11.2,0-19.8-2.7-25.6-8.2c-5.9-5.5-8.8-12.8-8.8-22.1c0-5.5,1-11.1,2.9-16.8c2-5.7,4.6-11.3,7.9-16.7
		c3.3-5.4,7.1-10.5,11.5-15.2c4.3-4.8,9-8.9,13.9-12.5c4.9-3.6,9.9-6.4,14.9-8.4s9.9-3,14.7-3c7,0,12.1,2.1,15.3,6.4
		s4.8,9.8,4.8,16.5c0,6.2-1,12-3,17.4c-2,5.5-4.7,10.3-7.9,14.4c-3.2,4.1-6.9,7.4-10.9,9.8c-4.1,2.4-8.1,3.6-12.2,3.6
		c-5.9,0-10.2-2.2-13-6.6c-2.8-4.4-4.2-10.3-4.2-17.5c0-2.9,0.3-6,0.8-9.1c0.6-3.2,1.4-6.2,2.5-9.1c-3.2,2.8-6.3,5.9-9.1,9.2
		c-2.9,3.4-5.4,6.9-7.5,10.7c-2.1,3.8-3.8,7.6-5,11.5c-1.3,3.9-1.9,7.6-1.9,11.2c0,7.6,2,13,6,16.4c4,3.4,10,5,18,5
		c6.9,0,14-1.3,21.4-4c7.4-2.7,14.7-6.2,21.7-10.7c7.1-4.5,13.8-9.7,20.2-15.8c6.4-6,12-12.4,16.8-19.2c4.8-6.8,8.7-13.8,11.5-21
		c2.8-7.2,4.2-14.3,4.2-21.1c0-4.8-0.8-9.1-2.4-13c-1.6-3.9-4.1-7.3-7.5-10.1c-3.4-2.8-7.7-5-13-6.6c-5.3-1.6-11.7-2.4-19.1-2.4
		c-13.7,0-27.4,2-40.9,5.9c-13.5,3.9-26.4,9.3-38.7,16.1c-12.3,6.8-23.6,14.8-34.1,24.1c-10.5,9.2-19.6,19.2-27.3,29.9
		c-7.7,10.7-13.7,21.9-18.1,33.5c-4.3,11.6-6.5,23.3-6.5,34.9c0,11.2,2,21.5,6.1,30.8c4.1,9.3,10,17.3,17.9,24.1
		c7.8,6.7,17.5,11.9,28.9,15.7c11.4,3.7,24.6,5.6,39.4,5.6c16.1,0,31.4-1.9,45.9-5.8c14.5-3.9,27.6-9.2,39.3-16.2
		c11.7-6.9,21.6-15.1,29.8-24.6c8.2-9.5,14.1-19.8,17.8-31c4.5,0,6.1,2.6,4.8,7.8c-2.2,8.1-5.8,15.8-10.7,23.1
		c-4.9,7.3-10.9,14-17.9,20.1c-7,6.1-14.9,11.6-23.6,16.5c-8.8,4.9-17.9,9-27.5,12.4c-9.6,3.4-19.5,6-29.7,7.8
		C1114.7,588.8,1104.6,589.7,1094.6,589.7z"/>
	<path fill-rule="evenodd" clip-rule="evenodd" fill="#FFEC00" d="M893.4,651.8c-6.5-4.4-11.6-10.2-14.7-17.4
		c-3.2-7.2-5.5-14.8-7.2-22.4c-3.7-16.2-3.8-34.3-3-50.9c1.3-23.8,5-47.9,9.5-71.3c4.2-22.1,9.2-44,15.4-65.6
		c5.2-18.2,11.1-36.2,18.1-53.8l0.1-0.2l0.1-0.2c1.3-2.3,1.7-4.6,1.2-7.2c-0.6-2.5-2.3-3.8-4.7-4.6c-4.3-0.7-10.5-2.1-11.9-6.9
		c-0.3-1.1-0.3-2.3-0.1-3.5l0-0.1c0.8-3.4,6.6-5.4,9.5-6.4c5.8-2,12.1-3.6,18.2-5c0-0.5,0.1-0.9,0.3-1.4c6.1-17,13.5-33.5,21.8-49.5
		c9-17.4,18.1-34.7,27.3-52c0.9-1.7,3.4-3.6,4.9-4.8c3.2-2.5,6.7-4.8,10.1-7.1l0,0l0.1,0c2.9-1.8,6-3.6,8.7-5.6
		c2.1-1.5,4.5-2.6,7.1-3.2c3.3-0.7,6.3,0.5,7.1,4c0.6,2.7-1.7,4.5-3.7,5.7l-0.1,0.1l-0.1,0.1c-23.9,10.8-56,84.9-65.8,107.6
		c-0.2,0.4-0.6,1.6-0.7,2.4c0.3,0,0.7-0.1,0.9-0.2l40.8-9.3c8.6-2,17.2-3.9,25.8-5.7c3.8-0.8,7.6-1.6,11.4-2.4
		c1.9-0.4,4-0.6,5.7,0.4l1,0.6l0.3,1.1c0.3,1.4-0.5,3.6-1,4.9c-0.9,2.5-2.7,4.4-5.2,5.3l-0.1,0l-0.1,0c-12.1,3.2-24.2,6.6-36.2,10.2
		c-15.4,4.5-30.9,9-46.4,13.3c-2,0.9-3.6,2.2-4.3,4.3l0,0.1l0,0.1c-6.5,16.5-12.5,33.1-18.2,49.9c-5.8,17.3-10.9,34.9-15.1,52.6
		c-6.2,26.2-11.1,52.9-14,79.7c-2.2,20.1-2.9,41.2-0.1,61.3c0.3,2.2,0.7,4.4,1.2,6.6c0.5,2.3,1,4.5,1.5,6.8
		c3.1,13.7,9.4,32.2,23.6,38.1c6,2.5,12.5,2.3,18.8,0.9c7.1-1.6,14-4.7,20.3-8.3c11.5-6.6,21.6-15.4,30.5-25.2
		c10.8-11.8,19.9-25.4,28-39.1c7.8-13.2,15.4-27.6,20.1-42.2c3.4-10.7,5.7-22.3,4.8-33.6c-1.4-6-4.3-15.4-10.7-17.7
		c-3.1-1.1-6.6-0.4-9.6,0.9l0,0l0,0c-2.1,0.8-4.1,1.9-5.7,3.5c-1.4,1.4-3.4,3.3-5.4,3.8c-3.5,0.8-6.3-1.1-6.3-4.8l0-0.5l0.2-0.5
		c0.8-2.3,2.2-4.2,3.9-5.9c1.1-1.1,2.4-2.2,3.6-3.1c1.8-1.5,3.7-2.9,5.6-4.2l0.2-0.1l0.2-0.1c1.2-0.6,2.7-1,4-1.3
		c8.5-1.9,16.6,3.3,22.5,8.9c4.8,4.6,12.1,12.1,13.1,19l0,0.1l0,0.1c1.1,14.9-2.3,29.9-7.6,43.7c-6.9,18.1-17.2,35.4-28.3,51.1
		c-11.1,15.8-24,31.5-38.7,44.1c-11.2,9.7-24.2,17.7-38.8,21C920.9,664.2,906.4,661.3,893.4,651.8 M820.1,428.1
		c0.6-1,1.6-1.7,2.7-1.9c2.1-0.5,4.1,0.1,5.4,1.8c1.7,1.8,2.1,4.1,0.8,6.3c-3.5,8.2-7,16.5-10.3,24.8c-1.9,4.6-3.7,9.5-5.1,14.3
		c6.1-12,14-23.3,22.3-33.9c4.3-5.4,8.7-10.8,13.5-15.9c3.3-3.5,7-7.1,11-9.9l0.4-0.3l0.5-0.1c4.4-1.2,10.1-2.3,14.6-1.3l0.5,0.1
		l0.4,0.3c0.8,0.5,1.4,1.3,1.7,2.3c0.3,1.4-0.1,2.9-0.5,4.2c-0.5,1.4-1.1,2.7-1.9,3.9c-0.8,1.2-1.7,2.3-2.8,3.3
		c-1.4,1.1-3,1.7-4.7,1.2c-4.2-0.7-9.1,2.8-12,5.4c-27.1,24.2-44.5,57.8-56,91.8c-0.1,1.7-1.5,3.2-2.9,4.2l-0.1,0.1l-0.1,0.1
		c-1.5,1-3,2.1-4.4,3.2c-1.8,1.4-3.5,2.9-5.1,4.5c-0.8,1.3-1.9,2.4-3.6,2.2c-1.4-0.1-2.3-1-2.8-2.2c-1-1.6-1.1-3.4-0.6-5.1l0,0l0,0
		c5.1-14,10.1-28.2,14.4-42.4c3-10,5.9-20.3,7.8-30.5c0.3-1.9,0.6-4.3,0.2-6.2c-0.3-0.7-0.9-1.6-1.2-2.2l-0.1-0.1l0-0.1
		c-0.6-1.1-0.9-2.3-0.7-3.5l0.1-1.4l1.2-0.7c0.7-0.4,1.4-1,2-1.5c1.3-1.1,2.5-2.2,3.8-3.3C812.3,435.5,816.2,431.8,820.1,428.1z
		 M749.2,449.6c-0.3-1.5-2.1-2.4-3.3-2.9c-2.6-1.1-5.4-1-8.1-0.4c-2,0.4-3.8,1.2-5.6,2.1c-10.6,5.4-20.9,22.1-26.5,32.1
		c-4.3,7.7-8.2,15.6-11.3,23.9c-2.6,6.7-4.8,13.6-6.1,20.7c-0.2,1.9-0.1,3.8,0.3,5.7c0.2,0.9,0.8,3,1.8,3.4c0.4,0.2,1,0.1,1.4,0
		c1-0.2,1.9-0.9,2.5-1.6c10.1-10.1,19-21.8,26.8-33.7c10.3-15.7,19.5-32.2,28-48.9l0.1-0.1L749.2,449.6
		C749.1,449.6,749.2,449.6,749.2,449.6z M758.1,430.3c1-0.1,1.9-0.2,2.9-0.4c0.3,0,0.8-0.1,1.1-0.2l0.4-0.1c1.9-0.8,4.1-2,5-3.9
		l0.1-0.1l0.1-0.1c0.8-1.2,2-1.9,3.3-2.2c1.9-0.4,3.7,0.4,5,1.8c1.2,1.2,2.1,2.7,1.7,4.5l0,0.1l-0.1,0.1c-3.5,9.6-7,19.1-10.5,28.6
		c-3.5,9.4-6.8,18.8-9.9,28.4c-2.7,8.1-4.7,16.5-6.3,24.9c-1.8,9.3-3.2,18.6-4.4,28c-1,8.8-1.9,17.7-2.3,26.6
		c-0.4,6.8-0.6,13.8,0,20.6l0,0.1l0,0.1c0,0.7,0.1,1.4,0.2,2c0.2,0.9,0.4,1.9,0.6,2.8c1,4.6,3.2,8.8,7.6,10.9
		c4.7,2.2,10.3,1.9,15.3,0.8c6.5-1.5,12.7-4.1,18.4-7.6c5.3-3.3,10.3-7.7,14.7-12.1c6.4-6.3,12.3-13.3,17.9-20.3
		c5.9-7.4,11.3-15.3,16.1-23.5c4.1-7.2,8.1-14.5,11.6-22l0-0.1l0.1-0.1c1-1.7,2.5-4.5,4.6-5l1.1-0.3l1,0.6c0.9,0.6,1.5,1.5,1.7,2.6
		c0.4,1.6,0,3.3-0.5,4.8l0,0.1l0,0.1c-3.2,8.2-7,16.3-11.1,24.1c-4.9,9.4-10.8,18.3-17.2,26.7l0,0c-5.6,7.2-11.5,14.2-17.9,20.8
		c-4.7,4.9-10,9.7-15.8,13.4c-2.5,1.6-5.1,3-7.8,4.1c-2.8,1.2-5.8,2.1-8.8,2.8c-4.5,1-9.3,1.4-13.9,0.7c-4.1-0.6-8.1-1.5-11.9-3
		c-4.6-1.5-8.3-4.2-10.9-8.3c-2.7-4.2-4.3-8.9-5.2-13.7c-1-5.4-1.2-11.3-1.2-16.8c-0.1-7.5,0.2-15,0.7-22.5c0.6-8,1.3-16,2.3-23.9
		c0.9-7.2,2-14.4,3.5-21.5c1.6-7.1,3.3-14.1,5.2-21.1c0.3-1.3,0.7-2.5,1.1-3.8c-1.4,2.2-2.8,4.4-4.2,6.5
		c-5.6,8.4-11.4,16.7-17.4,24.8c-6.1,8.1-12.3,16-19,23.6c-5.3,6.1-10.9,12.1-16.7,17.6c-2,2-4.5,3.8-7.3,4.5c-2,0.5-4,0.4-5.9-0.4
		c-4-1.7-5.8-6-6.7-10c-1.9-8.5,0-18,2.7-26.1c4-11.9,10.6-23.7,17.3-34.4c6.5-10.4,13.8-20.7,22-29.8c6.3-7,13.3-13.7,21.1-19.2
		l0.1-0.1l0.1,0c1.7-1.1,3.5-2,5.4-2.9c2.1-1,4.3-1.8,6.5-2.3c2.5-0.6,5-0.9,7.5-0.9C753.3,429.9,755.7,430,758.1,430.3z"/>
</g>
</svg>
