<?xml version="1.0" encoding="utf-8"?>
<!-- Generator: Adobe Illustrator 18.1.1, SVG Export Plug-In . SVG Version: 6.00 Build 0)  -->
<svg version="1.1" id="icons" xmlns="http://www.w3.org/2000/svg" xmlns:xlink="http://www.w3.org/1999/xlink" x="0px" y="0px"
	 viewBox="0 0 595.3 841.9" enable-background="new 0 0 595.3 841.9" xml:space="preserve">
<g>
	<path fill="#15161A" d="M530.2,300c0.1,0,0.1,0,0.2,0c35.8-0.1,64.9-29.3,64.9-65.1c0-35.9-29.2-65.1-65.1-65.1H65.1
		C29.2,169.8,0,198.9,0,234.9c0,35.8,29.1,65,64.9,65.1c0.1,0,0.1,0,0.2,0h65.1v18.6H65.1l0,0C29.2,318.6,0,347.8,0,383.7
		c0,35.8,29.1,65,64.9,65.1c0.1,0,0.1,0,0.2,0h65.1v214c0,5.1,4.2,9.3,9.3,9.3h297.6c1,0,2.1-0.2,3.1-0.6c0.1,0,0.2,0,0.3-0.1
		c1.2-0.5,2.3-1.3,3.1-2.1l55.7-55.7c0.8-0.8,1.5-1.9,2-3c0.5-1.2,0.7-2.3,0.7-3.6V448.7h27.9c35.9,0,65.1-29.2,65.1-65.1
		s-29.2-65.1-65.1-65.1h-27.9v-18.6L530.2,300L530.2,300z M483.7,597.6h-46.5c-5.1,0-9.3,4.2-9.3,9.3v46.5h-279V300h334.8V597.6z
		 M446.5,616.2h24.1l-24.1,24.1V616.2z M18.6,383.6c0-25.7,20.8-46.5,46.5-46.5s46.5,20.8,46.5,46.5c0,25.7-20.8,46.5-46.5,46.5
		S18.6,409.3,18.6,383.6L18.6,383.6z M110.6,430.2c12.1-11.9,19.6-28.4,19.6-46.5c0-18.3-7.6-34.6-19.6-46.5h19.6v93H110.6z
		 M530.2,337.1c25.7,0,46.5,20.8,46.5,46.5c0,25.7-20.8,46.5-46.5,46.5h-27.9v-93H530.2z M530.2,188.2c25.7,0,46.5,20.8,46.5,46.5
		s-20.8,46.5-46.5,46.5c-0.1,0-0.1,0-0.2,0H110.6c12.1-11.9,19.6-28.4,19.6-46.5c0-18.3-7.6-34.6-19.6-46.5L530.2,188.2L530.2,188.2
		z M18.6,234.7c0-25.7,20.8-46.5,46.5-46.5s46.5,20.8,46.5,46.5s-20.8,46.5-46.5,46.5S18.6,260.4,18.6,234.7z"/>
	<path fill="#15161A" d="M93,383.6c0-15.3-12.6-27.9-27.9-27.9s-27.9,12.6-27.9,27.9s12.6,27.9,27.9,27.9S93,399,93,383.6z
		 M55.8,383.6c0-5.1,4.2-9.3,9.3-9.3c5.1,0,9.3,4.2,9.3,9.3c0,5.1-4.2,9.3-9.3,9.3C60,392.9,55.8,388.8,55.8,383.6z"/>
	<path fill="#15161A" d="M93,234.9c0-15.3-12.6-27.9-27.9-27.9s-27.9,12.6-27.9,27.9s12.6,27.9,27.9,27.9S93,250.2,93,234.9z
		 M55.8,234.9c0-5.1,4.2-9.3,9.3-9.3c5.1,0,9.3,4.2,9.3,9.3s-4.2,9.3-9.3,9.3C60,244.2,55.8,240,55.8,234.9z"/>
	<path fill="#15161A" d="M205,535.2c0.2,0.6,0.5,1,0.7,1.6c0.2,0.5,0.6,0.9,0.9,1.4c0.5,0.5,0.8,0.9,1.4,1.4
		c0.2,0.2,0.3,0.5,0.7,0.7c0.3,0.2,0.7,0.2,0.9,0.5c0.3,0.1,0.6,0.3,0.9,0.5c1,0.3,2.1,0.7,3.3,0.7l0,0H437c0.3,0,0.7-0.2,1-0.2
		c0.7-0.1,1.3-0.2,1.9-0.3c0.5-0.2,0.9-0.5,1.4-0.7c0.2-0.1,0.5-0.1,0.6-0.2c0.1-0.1,0.2-0.3,0.5-0.5c0.7-0.5,1.2-1,1.7-1.6
		c0.2-0.3,0.6-0.7,0.7-1.2c0.3-0.6,0.6-1.2,0.8-1.9c0.2-0.6,0.2-1.2,0.3-1.7c0-0.3,0.2-0.6,0.2-0.9c0-0.2-0.1-0.5-0.1-0.8
		c0-0.7-0.2-1.3-0.3-2c-0.1-0.6-0.3-1-0.6-1.5c-0.1-0.2-0.1-0.6-0.3-0.8l-83.7-130.1c0,0,0,0-0.1-0.1c-0.3-0.6-0.9-0.9-1.4-1.4
		c-0.5-0.5-0.8-0.9-1.3-1.3c0,0,0-0.1-0.1-0.1c-0.5-0.2-0.9-0.3-1.3-0.5c-0.7-0.2-1.3-0.6-2-0.7c-0.6-0.1-1.3,0-1.9,0
		s-1.2-0.1-1.7,0c-0.7,0.1-1.4,0.5-2.1,0.8c-0.3,0.2-0.8,0.2-1.2,0.5c0,0,0,0.1-0.1,0.1c-0.5,0.3-0.9,0.8-1.3,1.3
		c-0.5,0.5-0.9,0.8-1.3,1.4c0,0-0.1,0-0.1,0.1l-43.6,67.7l-19.9-30.6c0,0,0,0-0.1-0.1c-0.3-0.5-0.8-0.8-1.3-1.3
		c-0.5-0.5-0.8-0.9-1.4-1.3c0,0,0,0-0.1-0.1c-0.3-0.2-0.8-0.3-1.3-0.5c-0.7-0.3-1.3-0.7-2.1-0.8c-0.6-0.1-1.2,0-1.7,0
		s-1.2-0.1-1.7,0c-0.7,0.1-1.4,0.5-2,0.8c-0.5,0.2-0.9,0.2-1.3,0.5c0,0,0,0-0.1,0.1c-0.5,0.3-0.9,0.8-1.3,1.3
		c-0.5,0.5-0.9,0.8-1.3,1.3c0,0,0,0-0.1,0.1l-60.5,93c-0.1,0.2-0.1,0.5-0.2,0.7c-0.3,0.6-0.5,1.2-0.7,1.7c-0.2,0.6-0.3,1.2-0.3,1.9
		c0,0.2-0.1,0.5-0.1,0.8c0,0.3,0.1,0.6,0.2,0.9C204.6,533.9,204.7,534.6,205,535.2L205,535.2z M309.5,487.4c0.1-0.1,0.2-0.2,0.2-0.5
		l43.5-67.6L420,523.1H286.5L309.5,487.4z M264.4,523.1h-33.6l43.4-66.6l16.6,25.6L264.4,523.1z"/>
	<path fill="#15161A" d="M232.3,411.4c15.3,0,27.9-12.6,27.9-27.9s-12.6-27.9-27.9-27.9s-27.9,12.6-27.9,27.9S217,411.4,232.3,411.4
		z M232.3,374.1c5.1,0,9.3,4.2,9.3,9.3c0,5.1-4.2,9.3-9.3,9.3s-9.3-4.2-9.3-9.3C223,378.3,227.2,374.1,232.3,374.1z"/>
</g>
</svg>
