<?xml version="1.0" encoding="utf-8"?>
<!-- Generator: Adobe Illustrator 18.1.1, SVG Export Plug-In . SVG Version: 6.00 Build 0)  -->
<svg version="1.1" id="Capa_1" xmlns="http://www.w3.org/2000/svg" xmlns:xlink="http://www.w3.org/1999/xlink" x="0px" y="0px"
	 viewBox="0 0 595.3 841.9" enable-background="new 0 0 595.3 841.9" xml:space="preserve">
<g>
	<g>
		<path fill="#15161A" d="M425.4,497.7h-27.1l-9.4-9.4c33.4-38.6,53.4-88.8,53.4-143.8c0-122.2-99-221.2-221.2-221.2
			S0,222.3,0,344.5s99,221.2,221.2,221.2c55,0,105.2-20.1,143.8-53.3l9.4,9.4v26.9l170.2,169.8l50.7-50.7L425.4,497.7z M221.2,497.7
			c-84.6,0-153.2-68.6-153.2-153.2s68.6-153.2,153.2-153.2S374.4,260,374.4,344.5S305.8,497.7,221.2,497.7z"/>
	</g>
</g>
</svg>
