<?xml version="1.0" encoding="utf-8"?>
<!-- Generator: Adobe Illustrator 18.1.1, SVG Export Plug-In . SVG Version: 6.00 Build 0)  -->
<svg version="1.1" id="Шар_1" xmlns="http://www.w3.org/2000/svg" xmlns:xlink="http://www.w3.org/1999/xlink" x="0px" y="0px"
	 viewBox="-286 408.9 23 24" enable-background="new -286 408.9 23 24" xml:space="preserve">
<g>
	<path fill="#15161A" d="M-277.9,432.4c-1.5,0-2.8-1.2-2.8-2.8s1.2-2.8,2.8-2.8s2.8,1.2,2.8,2.8S-276.4,432.4-277.9,432.4z
		 M-277.9,427.4c-1.2,0-2.3,1-2.3,2.3s1,2.3,2.3,2.3c1.2,0,2.3-1,2.3-2.3S-276.7,427.4-277.9,427.4z"/>
	<path fill="#15161A" d="M-267.4,432.4c-1.5,0-2.8-1.2-2.8-2.8s1.2-2.8,2.8-2.8s2.8,1.2,2.8,2.8S-265.8,432.4-267.4,432.4z
		 M-267.4,427.4c-1.2,0-2.3,1-2.3,2.3s1,2.3,2.3,2.3s2.3-1,2.3-2.3S-266.1,427.4-267.4,427.4z"/>
	<path fill="#15161A" d="M-265.4,426.1h-10.8c-0.9,0-1.8-0.5-2.3-1.3c-0.5-0.8-0.6-1.8-0.2-2.6l0.1-0.3c0.1-0.2,0.1-0.3,0-0.5
		l-3.4-10.3c-0.2-0.5-0.6-0.8-1.1-0.8h-1.9c-0.4,0-0.8-0.4-0.8-0.8s0.4-0.8,0.8-0.8h1.9c1.2,0,2.3,0.8,2.6,1.9l0.6,1.9
		c0.1,0.3,0.4,0.5,0.7,0.5l14.8,0.2c0.4,0,0.7,0.2,1,0.5c0.2,0.3,0.3,0.7,0.2,1.1l-0.9,3.7c-0.2,0.9-1,1.6-1.9,1.7l-10.9,1.1
		c0,0,0,0-0.1,0l0,0l0,0.1c0,0.2,0,0.4,0,0.5l-0.3,0.8c-0.1,0.4-0.1,0.8,0.1,1.1c0.2,0.3,0.6,0.5,0.9,0.6h10.8
		c0.4,0,0.8,0.4,0.8,0.8S-265,426.1-265.4,426.1z M-283.2,409.1h-1.9c-0.2,0-0.3,0.1-0.3,0.3s0.1,0.3,0.3,0.3h1.9
		c0.7,0,1.3,0.5,1.6,1.1l3.4,10.3c0.1,0.3,0.1,0.6,0,0.8l-0.1,0.3c-0.3,0.7-0.2,1.5,0.2,2.2c0.4,0.6,1.1,1,1.9,1h10.8
		c0.2,0,0.3-0.1,0.3-0.3s-0.1-0.3-0.3-0.3h-10.8c-0.6,0-1.1-0.3-1.4-0.8c-0.3-0.5-0.4-1-0.2-1.6l0.3-0.8c0-0.1,0-0.2,0-0.3
		c-0.1-0.2-0.1-0.4,0-0.5c0.1-0.2,0.3-0.3,0.4-0.3l10.9-1.1c0.7-0.1,1.3-0.6,1.5-1.3l0.9-3.7c0.1-0.2,0-0.5-0.1-0.6
		c-0.1-0.2-0.4-0.3-0.6-0.3l-14.8-0.2c-0.5,0-1-0.4-1.2-0.9l-0.6-1.9C-281.3,409.8-282.2,409.2-283.2,409.1z"/>
</g>
</svg>
