<?xml version="1.0" encoding="utf-8"?>
<!-- Generator: Adobe Illustrator 18.1.1, SVG Export Plug-In . SVG Version: 6.00 Build 0)  -->
<svg version="1.1" id="Capa_1" xmlns="http://www.w3.org/2000/svg" xmlns:xlink="http://www.w3.org/1999/xlink" x="0px" y="0px"
	 viewBox="0 0 16 16" enable-background="new 0 0 16 16" xml:space="preserve">
<g>
	<g>
		<g>
			<path fill="#15161A" d="M15.9,5.5c-0.1-0.1-0.2-0.1-0.3-0.1h-4.2V3.5c0-1.9-1.5-3.4-3.4-3.4S4.6,1.7,4.6,3.5v1.9H0.4
				c-0.1,0-0.2,0-0.3,0.1C0,5.6,0,5.7,0,5.8l1.5,8.1c0.2,1.1,1.2,2,2.3,2h8.4c1.2,0,2.1-0.9,2.3-2L16,5.8C16,5.7,16,5.6,15.9,5.5z
				 M5.4,3.5c0-1.4,1.1-2.6,2.6-2.6s2.6,1.1,2.6,2.6v1.9H5.4V3.5z M13.7,13.8c-0.1,0.7-0.8,1.3-1.5,1.3H3.8c-0.8,0-1.4-0.6-1.5-1.3
				L0.9,6.2h14.3L13.7,13.8z"/>
			<path fill="#15161A" d="M11,10c0.2,0,0.4-0.2,0.4-0.4V8.4C11.4,8.2,11.2,8,11,8s-0.4,0.2-0.4,0.4v1.2C10.6,9.8,10.7,10,11,10z"/>
			<path fill="#15161A" d="M5,10c0.2,0,0.4-0.2,0.4-0.4V8.4C5.4,8.2,5.3,8,5,8C4.8,8,4.6,8.2,4.6,8.4v1.2C4.6,9.8,4.8,10,5,10z"/>
		</g>
	</g>
</g>
</svg>
