<?xml version="1.0" encoding="utf-8"?>
<!-- Generator: Adobe Illustrator 18.1.1, SVG Export Plug-In . SVG Version: 6.00 Build 0)  -->
<svg version="1.1" id="Capa_1" xmlns="http://www.w3.org/2000/svg" xmlns:xlink="http://www.w3.org/1999/xlink" x="0px" y="0px"
	 viewBox="0 0 595.3 841.9" enable-background="new 0 0 595.3 841.9" xml:space="preserve">
<g>
	<path fill="#F7DC22" d="M297.6,414.4c66.2,0,119.8-65.2,119.8-145.6c0-80.4-17.6-145.6-119.8-145.6s-119.8,65.2-119.8,145.6
		C177.8,349.3,231.5,414.4,297.6,414.4z"/>
	<path fill="#F7DC22" d="M71.3,636.7C71.3,631.8,71.2,635.3,71.3,636.7L71.3,636.7z"/>
	<path fill="#F7DC22" d="M524,640.5C524.1,639.2,524,631.2,524,640.5L524,640.5z"/>
	<path fill="#F7DC22" d="M523.7,630.8c-2.2-140-20.5-180-160.5-205.2c0,0-19.7,25.1-65.6,25.1S232,425.6,232,425.6
		c-138.4,25-157.8,64.3-160.4,200.7c-0.2,11.1-0.3,11.7-0.3,10.4c0,2.4,0,6.9,0,14.7c0,0,33.3,67.2,226.3,67.2
		c193,0,226.3-67.2,226.3-67.2c0-5,0-8.5,0-10.9C524,641.3,523.9,639.8,523.7,630.8z"/>
</g>
</svg>
