<?xml version="1.0" encoding="utf-8"?>
<!-- Generator: Adobe Illustrator 18.1.1, SVG Export Plug-In . SVG Version: 6.00 Build 0)  -->
<svg version="1.1" id="_x2014_лой_x5F_2" xmlns="http://www.w3.org/2000/svg" xmlns:xlink="http://www.w3.org/1999/xlink"
	 x="0px" y="0px" viewBox="0 0 2400 2000" enable-background="new 0 0 2400 2000" xml:space="preserve">
<g>
	<g>
		<path fill="#15161A" d="M1518.6,949.2c-5.4-1.6-10.9-3.1-16.3-4.7c-1.9-0.6-4.6-2-6.6-1.4c-1.1,0.3-2,1.4-2.8,2.2
			c1.4,0,2.8,0,4.2,0c-10.2-12.8-21-25.4-30.6-38.8c-1.5-2-2.9-4.1-4.3-6.1c-0.7-1-1.4-2.5-2.5-3.3c-1.4-1.1-3.8-1-5.5-1.3
			c-2.1-0.4-4.2-0.7-6.3-1.1c-4.4-0.7-8.8-1.4-13.2-2c-17.1-2.5-34.2-4.6-51.3-6.5c-8.3-0.9-16.6-1.8-24.9-2.6
			c-4.2-0.4-8.5-0.9-12.7-1.3c-1.5-0.2-3.1-0.6-4.6-0.6c-1.7,0-3.4,0.8-5,1.5c-12.9,5.2-24.5,13-37,19c1.4,0.4,2.7,0.7,4.1,1.1
			c-1.9-4.3-3.8-8.7-6.2-12.7c-2.2-3.7-4.9-6.5-7.7-9.6c-1.3-1.4-1.7-2-3.6-2.6c-2.6-0.7-5.3-1.4-8-2c-5.3-1.3-10.5-2.5-15.8-3.6
			c-10.3-2.2-20.7-4-31.2-5.5c-5.2-0.8-10.5-1.4-15.8-2c-4.5-0.5-8.5,1.1-12.8,2.4c-5.7,1.7-11.3,3.6-16.9,5.7
			c-4.2,1.6-8.8,4.4-13.3,4.4c0.9,0.5,1.7,1,2.6,1.5c-2.5-3.6-5.1-7.2-7.6-10.8c-1.1-1.6-2.3-3.3-3.4-4.9c-0.8-1.1-2.3-2.4-2.4-3.3
			c-0.2-1.8-1.2-2.8-3-3c-12.8-1.4-25.6-2.8-38.4-4.2c-6.1-0.7-12.1-1.3-18.2-1.7c-2.7-0.2-5.5-0.3-8.2-0.6
			c-3.2-0.3-6.5-1.2-9.7-1.3c-4.1-0.2-8.4,1.7-12.4,2.7c-6,1.5-12,2.8-18,4c-6.2,1.2-12.5,2.3-18.8,3.2c-2.6,0.4-5.9,0.2-8.3,1.3
			c-0.8,0.4-1.6,1-2.4,1.5c-1.2,0.8-2.6,1.5-3.8,2.3c-1.8,1.3-2.9,3.5-4.2,5.2c-3.5,4.5-7.2,8.7-10.4,13.3c1.1-0.5,2.3-0.9,3.4-1.4
			c-4.3-0.7-8.5-1.5-12.8-2.2c-4.6-0.8-9.5-2.2-14.2-1.7c-12,1.4-24,3.4-35.8,5.9c-5.9,1.3-12,2.4-17.7,4.4c-4.7,1.6-7.7,4.8-10.2,9
			c-6.4,10.9-12.3,22.2-18.2,33.4c-2.9,5.5-5.8,11.1-8.7,16.6c-0.7,1.3-1.4,2.7-2.1,4c-0.3,0.5-0.7,1.1-0.9,1.7
			c0-0.1-0.7,1.9-0.2,1.3c-0.6,0.8-2.4,1.5-3.4,1.8c-2.6,0.9-5.5,1.4-8.2,2.1c-2.6,0.7-5.7,1-8,2.5c-2.8,1.9-2.7,4-2.6,7.2
			c0.1,7.9,0.2,15.8,0.3,23.7c0.1,12.6,0.2,25.3,0.3,37.9c0,1.2,0.9,2.6,2.2,2.9c51.3,10,102.5,21,153.3,33.1
			c51.1,12.1,101.9,25.3,152.5,39.5c50.3,14.1,100.4,29.3,150.1,45.5c3.7,1.2,6.9,0.2,10.2-1.8c5.6-3.4,11.3-6.9,16.9-10.3
			c11.5-7,22.9-13.9,34.4-20.9c23.1-14.1,46.2-28.1,69.3-42.2c22.9-13.9,45.8-27.9,68.7-41.8c2.5-1.5,5.6-2.9,7.9-4.8
			c1.2-0.9,1.6-2.2,2.1-3.6c0.8-2.2,0-4.7-0.4-7c-0.6-3.5-1.1-7-1.7-10.4c-2.1-13-4-26.2-6.3-39.2c-1-5.6-2.5-11-5.2-15.9
			c-1.8-3.4-7-0.4-5.2,3c5.3,9.7,5.8,22,7.6,32.8c1.9,12,3.8,23.9,5.8,35.9c0.1-0.8,0.2-1.5,0.3-2.3c-0.3,0.7-0.8,2-1.1,2.4
			c-1.6,1.5-5.2,3-7.4,4.3c-5.1,3.1-10.1,6.2-15.2,9.3c-10.3,6.3-20.6,12.6-31,18.9c-20.5,12.5-40.9,24.9-61.4,37.4
			c-20.5,12.5-40.9,24.9-61.4,37.4c-5.1,3.1-10.1,6.2-15.2,9.3c-2.6,1.6-6.8,5-9.6,4.3c-1.8-0.4-5-1.8-7.2-2.6
			c-2.9-0.9-5.7-1.8-8.6-2.8c-5.7-1.8-11.4-3.7-17.2-5.5c-44.3-14-89-27.2-133.8-39.6c-45-12.4-90.3-24.1-135.8-34.9
			c-45.5-10.8-91.1-20.8-136.9-29.9c-5.7-1.1-11.4-2.2-17-3.4c0.7,1,1.5,1.9,2.2,2.9c-0.1-21.8-0.3-43.5-0.6-65.3
			c-0.3,0.7-0.6,1.4-0.9,2.1c1.9-1.5,2.8-1.2,5.3-1.9c3.6-0.9,7.8-1.5,11.2-2.9c1.2-0.5,2.5-1.2,3.5-2c2.4-1.8,3.7-6,5-8.6
			c7.2-14,14.6-27.9,22.3-41.7c1.8-3.3,3.6-6.6,5.5-9.8c2-3.3,4.3-4.9,8-5.9c7.4-2.1,15-3.7,22.6-5.2c7.6-1.5,15.3-2.8,23-3.8
			c2-0.3,4.5-1,6.5-0.9c1.1,0,2.3,0.4,3.5,0.6c6.6,1.1,13.2,2.3,19.8,3.4c1.4,0.2,2.5-0.2,3.4-1.4c2.8-3.9,5.9-7.6,8.9-11.3
			c1.1-1.4,2.8-4.3,3.5-4.9c0.7-0.7,1.8-1.1,2.6-1.6c1-0.6,2.1-1.5,3.3-2c0.8-0.3,3.7-0.5,5.4-0.7c5.9-0.8,11.7-1.8,17.6-2.8
			c5.8-1.1,11.6-2.3,17.4-3.7c2.9-0.7,5.8-1.4,8.6-2.1c1.8-0.5,3.6-1.2,5.5-1.2c2.4,0.1,4.8,0.7,7.1,1c2.9,0.3,5.9,0.5,8.9,0.7
			c5.8,0.4,11.6,0.9,17.4,1.5c13.9,1.5,27.7,3,41.6,4.5c-1-1-2-2-3-3c0.3,2.4,1.4,3.8,2.8,5.8c2,2.9,4,5.8,6.1,8.7
			c1.7,2.5,3.5,6.2,5.8,8.2c1.2,1,2.9,1,4.4,0.8c2.7-0.3,5.4-1.9,8-2.9c2.7-1,5.4-2,8.1-3c6.2-2.2,12.5-4.2,18.8-6
			c3.1-0.9,5.1-0.7,8.4-0.3c3.5,0.4,6.9,0.9,10.4,1.4c6.2,0.9,12.3,1.9,18.4,3c13.1,2.4,26.1,5.3,39,8.7c-0.6-0.5-1.2-0.9-1.8-1.4
			c2.4,3.4,5.5,6,7.8,9.6c2.7,4.3,4.7,9,6.8,13.6c0.7,1.6,2.8,1.7,4.1,1.1c7-3.4,13.6-7.3,20.4-11c4-2.2,8.1-4.2,12.3-6.1
			c1.9-0.9,4.1-2.2,6.3-2.5c-0.9,0.1,0.2,0.1,0.7,0.1c1.7,0.2,3.4,0.4,5.2,0.5c23.2,2.4,46.5,4.7,69.6,7.8c13.5,1.8,27,3.9,40.5,6.2
			c-0.6-0.5-1.2-0.9-1.8-1.4c11.6,16.9,24.7,32.6,37.5,48.6c1,1.3,3.2,1,4.2,0c0.5-0.5,1-1,1.5-1.5c-1,0.3-1.9,0.5-2.9,0.8
			c7.1,2,14.2,4.1,21.3,6.1C1520.7,956,1522.3,950.2,1518.6,949.2L1518.6,949.2z"/>
	</g>
	<g>
		<path fill="#15161A" d="M1515,953.9c-22.7,18.3-47.2,34.2-72.2,49.3c-25.3,15.2-50.9,29.8-76.7,44c-14.8,8.2-29.7,16.3-44.4,24.8
			c-1.7,1-0.2,3.6,1.5,2.6c26.1-15,52.8-29.1,78.9-44.1c25.4-14.6,50.8-29.3,75.2-45.5c13.6-9.1,27-18.7,39.7-28.9
			C1518.6,954.9,1516.5,952.7,1515,953.9L1515,953.9z"/>
	</g>
	<g>
		<path fill="#15161A" d="M1495.5,947.4c-18.7,13.6-38.9,24.8-58.7,36.4c-5.5,3.2-10.9,6.5-16.2,10c-1.6,1.1-0.1,3.6,1.5,2.6
			c19-12.4,39.2-22.6,58.2-35c5.7-3.7,11.3-7.4,16.8-11.4C1498.6,948.9,1497.1,946.3,1495.5,947.4L1495.5,947.4z"/>
	</g>
	<g>
		<path fill="#15161A" d="M1410.5,932c3,16.5,4.7,33.3,7.2,49.9c0.7,4.6,1.4,9.1,2.2,13.7c0.3,1.9,3.2,1.1,2.9-0.8
			c-3-16.5-4.7-33.3-7.2-49.9c-0.7-4.6-1.4-9.1-2.2-13.7C1413,929.3,1410.1,930.1,1410.5,932L1410.5,932z"/>
	</g>
	<g>
		<path fill="#15161A" d="M1302.6,903.6c-3.5,2.3-7,4.5-10.5,6.8c-0.7,0.4-1,1.3-0.5,2.1c0.4,0.7,1.4,1,2.1,0.5
			c3.5-2.3,7-4.5,10.5-6.8c0.7-0.4,1-1.3,0.5-2.1C1304.2,903.5,1303.2,903.2,1302.6,903.6L1302.6,903.6z"/>
	</g>
	<g>
		<path fill="#15161A" d="M1291.1,910.8c-3.7,8.2-7.7,16.3-10.5,24.8c-0.6,1.8,2.3,2.6,2.9,0.8c2.7-8.3,6.6-16.1,10.2-24
			C1294.5,910.6,1291.9,909,1291.1,910.8L1291.1,910.8z"/>
	</g>
	<g>
		<path fill="#15161A" d="M1154.9,860.8c-14.8,5.4-29.7,10.5-44.6,15.5c-1.8,0.6-1,3.5,0.8,2.9c14.9-4.9,29.8-10.1,44.6-15.5
			C1157.4,863,1156.7,860.1,1154.9,860.8L1154.9,860.8z"/>
	</g>
	<g>
		<path fill="#15161A" d="M1004.6,886.5c19.7,4,39.7,6.1,59.5,9.1c1.9,0.3,2.7-2.6,0.8-2.9c-19.8-3.1-39.8-5.1-59.5-9.1
			C1003.5,883.2,1002.7,886.1,1004.6,886.5L1004.6,886.5z"/>
	</g>
	<g>
		<path fill="#15161A" d="M1115.3,895.7c-15.6,9.2-33.7,12.5-50.6,18.7c-4.8,1.8-9.5,3.7-13.9,6.1c-1.7,0.9-0.2,3.5,1.5,2.6
			c16-8.5,34.1-11.5,50.8-18.2c4.7-1.9,9.3-4,13.7-6.6C1118.4,897.3,1116.9,894.7,1115.3,895.7L1115.3,895.7z"/>
	</g>
	<g>
		<path fill="#15161A" d="M1114,898.1c24.8,4.6,49.7,9,74.4,14.2c6.9,1.5,13.9,3.1,20.8,4.8c1.9,0.5,2.7-2.4,0.8-2.9
			c-24.4-6.1-49.2-10.5-73.9-15.1c-7.1-1.3-14.2-2.6-21.3-4C1112.9,894.9,1112.1,897.8,1114,898.1L1114,898.1z"/>
	</g>
	<g>
		<path fill="#15161A" d="M1210.2,917.1c5.6,7.1,12,13.6,16.3,21.5c1.7,3.1,3.2,6.3,4.7,9.5c0.8,1.7,3.4,0.2,2.6-1.5
			c-2.3-4.9-4.6-9.8-7.6-14.3c-2.1-3.2-4.7-6.1-7.1-9c-2.3-2.8-4.6-5.6-6.8-8.4C1211.1,913.5,1209,915.6,1210.2,917.1L1210.2,917.1z
			"/>
	</g>
	<g>
		<path fill="#15161A" d="M1239.2,905.3c1.5,9.2,3.2,18.4,4.5,27.6c0.3,1.9,0.3,4.1,0.9,5.9c0.4,1.2,2.1,1.6,2.8,0.4
			c0.2-0.4,0.2-0.9,0.2-1.3c0-0.8,0.1-2.3-0.6-2.8c-0.6-0.5-1.6-0.7-2.1,0c-0.5,0.6-0.5,1.1-0.4,1.8c0,1.2,0.1,2.4,0.2,3.6
			c0.1,1.9,3.1,1.9,3,0c-0.1-1.1-0.1-2.2-0.2-3.2c0-0.2,0-0.5,0-0.7c-0.1-0.6,0.5-0.4-0.4,0.7c-0.7,0-1.4,0-2.1,0
			c-0.2-0.2-0.5-0.6-0.4-0.9c0,0.1,0,0.2,0,0.2c0,0.2,0,0.5,0.1,0.7c0,0.2,0,0.4,0,0.7c0,0.1,0,0.2,0,0.3c0,0,0,0.1,0,0.1
			c-0.1-0.3,0.6-1.1,0.7-1.2c0.4-0.1,0.8-0.1,1.2-0.2c2.1,0.8,1,1.4,0.9,0.8c0-0.2-0.1-0.4-0.1-0.5c-0.1-0.7-0.2-1.5-0.3-2.2
			c-0.5-3.2-0.9-6.4-1.4-9.7c-1.1-7-2.3-13.9-3.5-20.9C1241.7,902.6,1238.8,903.4,1239.2,905.3L1239.2,905.3z"/>
	</g>
	<g>
		<path fill="#15161A" d="M1241.2,904.3c14.9-5,29.8-10,44.7-15.1c1.8-0.6,1-3.5-0.8-2.9c-14.9,5-29.8,10-44.7,15.1
			C1238.6,902,1239.3,904.9,1241.2,904.3L1241.2,904.3z"/>
	</g>
	<g>
		<path fill="#15161A" d="M1456.9,901.6c-14,8.4-28,16.8-42,25.2c-1.7,1-0.1,3.6,1.5,2.6c14-8.4,28-16.8,42-25.2
			C1460.1,903.2,1458.6,900.6,1456.9,901.6L1456.9,901.6z"/>
	</g>
	<g>
		<path fill="#15161A" d="M1209.9,915.5c-19,8.2-38,16.5-57,24.7c-1.8,0.8-0.2,3.4,1.5,2.6c19-8.2,38-16.5,57-24.7
			C1213.2,917.3,1211.7,914.7,1209.9,915.5L1209.9,915.5z"/>
	</g>
	<g>
		<path fill="#15161A" d="M1148.7,942.3c1.6,10.5,3.2,20.9,3.3,31.5c0.1,10.2-0.4,20.4-0.6,30.7c-0.1,4.3-0.2,8.7,0,13
			c0.1,1.9,3.1,1.9,3,0c-0.5-9,0.1-18,0.3-27c0.2-9.1,0.8-18.3-0.2-27.3c-0.8-7.3-1.9-14.5-3-21.7
			C1151.3,939.6,1148.4,940.4,1148.7,942.3L1148.7,942.3z"/>
	</g>
	<g>
		<path fill="#15161A" d="M1048.3,922c-3.3,10.4-6.9,20.7-10.9,30.9c-3.4,8.6-7.2,17.1-10.5,25.8c-1.4,3.6-2.6,7.3-4.2,10.9
			c-0.3,0.8,0.3,1.6,1,1.8c0.9,0.2,1.5-0.3,1.8-1c2.7-6.4,4.8-13.1,7.6-19.5c4.3-10,8.4-20.1,12.1-30.4c2.1-5.8,4-11.7,5.9-17.6
			C1051.8,920.9,1048.9,920.1,1048.3,922L1048.3,922z"/>
	</g>
	<g>
		<path fill="#15161A" d="M868.7,967.6c29.9,6.6,59.8,13.3,89.7,19.9c30.1,6.7,60.1,13.5,90.1,20.3c29.9,6.8,59.8,13.6,89.6,20.5
			c29.7,6.8,59.5,13.3,89.1,20.8c27.9,7,55.3,15.9,83.2,23c3.5,0.9,6.9,1.7,10.4,2.5c1.9,0.4,2.7-2.5,0.8-2.9
			c-28-6.5-55.4-15.4-83.1-22.8c-29.1-7.8-58.7-14.1-88.1-20.9c-29.9-6.9-59.7-13.8-89.6-20.6c-30-6.8-60.1-13.6-90.1-20.4
			c-29.9-6.7-59.8-13.4-89.7-20c-3.8-0.8-7.6-1.7-11.4-2.5C867.6,964.3,866.8,967.2,868.7,967.6L868.7,967.6z"/>
	</g>
	<g>
		<path fill="#15161A" d="M889.1,958.6c31.7,8.1,63.4,16.2,95,24.4c9,2.3,18,4.6,27,6.9c1.9,0.5,2.7-2.4,0.8-2.9
			c-31.7-8.1-63.4-16.2-95-24.4c-9-2.3-18-4.6-27-6.9C888,955.2,887.2,958.1,889.1,958.6L889.1,958.6z"/>
	</g>
	<g>
		<path fill="#15161A" d="M1061,926.7c10.9,1.6,21.9,3.1,32.8,4.7c10.2,1.5,20.5,2.9,30.5,5.3c5.8,1.4,11.5,3.1,17,5.2
			c1.8,0.7,2.6-2.2,0.8-2.9c-19.7-7.6-41-9.6-61.7-12.6c-6.2-0.9-12.4-1.8-18.6-2.7c-0.8-0.1-1.6,0.2-1.8,1
			C1059.7,925.6,1060.2,926.6,1061,926.7L1061,926.7z"/>
	</g>
	<g>
		<path fill="#15161A" d="M932.6,903.1c17.4,3.5,34.7,7.2,52,11.2c4.9,1.1,9.8,2.3,14.7,3.4c1.9,0.4,2.7-2.4,0.8-2.9
			c-17.3-4.1-34.6-7.9-51.9-11.6c-4.9-1-9.9-2-14.8-3C931.5,899.8,930.7,902.7,932.6,903.1L932.6,903.1z"/>
	</g>
	<g>
		<path fill="#15161A" d="M1065.6,895.5c5,5,9.3,10.5,13,16.5c1,1.6,3.6,0.1,2.6-1.5c-3.8-6.2-8.3-12-13.4-17.1
			C1066.3,892,1064.2,894.1,1065.6,895.5L1065.6,895.5z"/>
	</g>
	<g>
		<path fill="#15161A" d="M1061.4,894.5c-18.2,7.5-36.7,14.2-55.4,20.1c-1.8,0.6-1.1,3.5,0.8,2.9c18.8-5.8,37.3-12.5,55.4-20.1
			C1064,896.6,1063.2,893.7,1061.4,894.5L1061.4,894.5z"/>
	</g>
	<g>
		<path fill="#15161A" d="M1002.3,916.6c3.1,17.8,6.2,35.5,9.4,53.3c0.9,5,1.8,10.1,2.7,15.1c0.3,1.9,3.2,1.1,2.9-0.8
			c-3.1-17.7-6.2-35.5-9.4-53.2c-0.9-5.1-1.8-10.1-2.7-15.2C1004.8,913.9,1001.9,914.7,1002.3,916.6L1002.3,916.6z"/>
	</g>
	<g>
		<path fill="#15161A" d="M1012.8,989c5.1-1.4,10-3.5,14.4-6.4c1.6-1,0.1-3.6-1.5-2.6c-4.2,2.7-8.9,4.8-13.7,6.1
			C1010.1,986.6,1010.9,989.5,1012.8,989L1012.8,989z"/>
	</g>
	<g>
		<path fill="#15161A" d="M1238.5,900.3c-22.1-3.5-44.3-6.9-66.4-10.4c-6.2-1-12.5-2-18.7-2.9c-1.9-0.3-2.7,2.6-0.8,2.9
			c22.1,3.5,44.3,6.9,66.4,10.4c6.2,1,12.5,2,18.7,2.9C1239.5,903.4,1240.4,900.6,1238.5,900.3L1238.5,900.3z"/>
	</g>
	<g>
		<path fill="#15161A" d="M1174.8,880.2c-6.5,1.6-13.1,3.3-19.6,4.9c-1.9,0.5-1.1,3.4,0.8,2.9c6.5-1.6,13.1-3.3,19.6-4.9
			C1177.5,882.6,1176.7,879.7,1174.8,880.2L1174.8,880.2z"/>
	</g>
	<g>
		<path fill="#15161A" d="M1151.9,888c-1.8,3.7-3.9,7.3-6.1,10.9c-0.4,0.7-0.1,1.7,0.5,2.1c0.7,0.4,1.6,0.2,2.1-0.5
			c2.2-3.5,4.2-7.2,6.1-10.9c0.4-0.7,0.2-1.6-0.5-2.1C1153.3,887.1,1152.2,887.3,1151.9,888L1151.9,888z"/>
	</g>
	<g>
		<path fill="#15161A" d="M1104.5,875.7c-20.4-1.5-40.7-3.6-60.9-6.2c-5.7-0.8-11.5-1.6-17.2-2.4c-1.9-0.3-2.7,2.6-0.8,2.9
			c20.4,3,40.9,5.5,61.4,7.3c5.8,0.5,11.6,1,17.5,1.4C1106.4,878.8,1106.4,875.8,1104.5,875.7L1104.5,875.7z"/>
	</g>
	<g>
		<path fill="#15161A" d="M1105.9,878.4c2.4,6.7,3.8,13.7,6,20.5c0.6,1.8,3.5,1,2.9-0.8c-2.2-6.8-3.7-13.8-6-20.5
			C1108.2,875.8,1105.3,876.6,1105.9,878.4L1105.9,878.4z"/>
	</g>
	<g>
		<path fill="#15161A" d="M1408.5,927.2c-25.9-2.6-51.8-5.6-77.7-9.1c-7.3-1-14.6-2-21.9-3.1c-1.9-0.3-2.7,2.6-0.8,2.9
			c26,3.8,52,7.1,78.1,10c7.4,0.8,14.8,1.6,22.2,2.3C1410.4,930.4,1410.4,927.4,1408.5,927.2L1408.5,927.2z"/>
	</g>
	<g>
		<path fill="#15161A" d="M1185.4,998.8c-11.9,6.8-23.7,13.8-36.1,19.7c-1.7,0.8-0.2,3.4,1.5,2.6c12.4-5.9,24.2-12.9,36.1-19.7
			C1188.6,1000.4,1187.1,997.8,1185.4,998.8L1185.4,998.8z"/>
	</g>
	<g>
		<path fill="#15161A" d="M1024.6,991.7c16,3.8,32,7.6,48,11.4c16.1,3.8,32.3,7.7,48.4,11.5c9,2.1,18,4.3,27,6.4
			c1.9,0.4,2.7-2.4,0.8-2.9c-16-3.8-32-7.6-48-11.4c-16.1-3.8-32.3-7.7-48.4-11.5c-9-2.1-18-4.3-27-6.4
			C1023.6,988.4,1022.8,991.2,1024.6,991.7L1024.6,991.7z"/>
	</g>
	<g>
		<path fill="#15161A" d="M1177,1022.8c17.5,4.3,35,8.6,52.5,12.9c17.7,4.3,35.4,8.7,53,13c9.8,2.4,19.6,4.8,29.3,7.2
			c1.9,0.5,2.7-2.4,0.8-2.9c-17.5-4.3-35-8.6-52.5-12.9c-17.7-4.3-35.4-8.7-53-13c-9.8-2.4-19.6-4.8-29.3-7.2
			C1175.9,1019.4,1175.1,1022.3,1177,1022.8L1177,1022.8z"/>
	</g>
	<g>
		<path fill="#15161A" d="M1392.6,1006c-8.8,5.7-17.8,10.9-27,16.1c-4.9,2.8-10,5.3-14.9,8.1c-6.1,3.4-12,7.1-18,10.7
			c-6.9,4.2-13.9,8.4-21.1,12.2c-1.7,0.9-0.2,3.5,1.5,2.6c12.7-6.7,24.7-14.5,37.1-21.7c5.1-2.9,10.3-5.6,15.5-8.5
			c4.7-2.6,9.4-5.3,14-8.1c4.8-2.9,9.7-5.8,14.4-8.8C1395.7,1007.5,1394.2,1004.9,1392.6,1006L1392.6,1006z"/>
	</g>
	<g>
		<path fill="#15161A" d="M1364.9,951.2c7.9,14.6,16.3,29,24.4,43.5c2.1,3.7,4.2,7.5,6.2,11.2c0.9,1.7,3.5,0.2,2.6-1.5
			c-7.9-14.6-16.3-29-24.4-43.5c-2.1-3.7-4.2-7.5-6.2-11.2C1366.5,948,1364,949.5,1364.9,951.2L1364.9,951.2z"/>
	</g>
	<g>
		<path fill="#15161A" d="M1296.6,978.2c1.9,8.2,2.9,16.6,4.2,24.9c0.7,4.4,1.4,8.7,2.2,13.1c0.9,4.8,1.9,9.5,2.6,14.3
			c1.2,8.2,2.4,16.4,5.3,24.2c0.7,1.8,3.6,1,2.9-0.8c-2.6-7-3.9-14.3-5-21.6c-0.8-5.2-1.7-10.4-2.7-15.6c-1.7-9-3-18-4.4-27
			c-0.7-4.1-1.3-8.2-2.2-12.3C1299.1,975.5,1296.2,976.3,1296.6,978.2L1296.6,978.2z"/>
	</g>
	<g>
		<path fill="#15161A" d="M1365.4,949.1c-15.8,7.6-31.8,14.8-48.1,21.3c-5,2-10.1,4-15.1,5.9c-1.8,0.7-1,3.6,0.8,2.9
			c16.6-6.4,33.1-13.1,49.3-20.6c4.9-2.3,9.8-4.6,14.7-6.9C1368.7,950.9,1367.1,948.3,1365.4,949.1L1365.4,949.1z"/>
	</g>
	<g>
		<path fill="#15161A" d="M1207.1,956.4c-3.2,6.8-7.3,13.2-11,19.8c-4.7,8.3-8.5,17.2-12.5,25.9c-2.8,6-5.6,12.1-8.4,18.1
			c-0.8,1.7,1.8,3.3,2.6,1.5c5-10.8,10-21.6,14.9-32.4c3.4-7.3,7.3-14.1,11.3-21.1c1.9-3.4,3.9-6.8,5.6-10.3
			C1210.5,956.1,1207.9,954.6,1207.1,956.4L1207.1,956.4z"/>
	</g>
	<g>
		<path fill="#15161A" d="M1208,958.6c24.2,6.7,48.9,11.1,73.5,16.2c6.9,1.4,13.8,2.9,20.7,4.5c1.9,0.4,2.7-2.5,0.8-2.9
			c-24.4-5.7-49.2-9.8-73.6-15.5c-6.9-1.6-13.7-3.3-20.5-5.2C1207,955.2,1206.2,958,1208,958.6L1208,958.6z"/>
	</g>
	<g>
		<path fill="#15161A" d="M1366.6,949c-26.7-3.8-53.1-9.2-79.6-13.7c-7-1.2-13.9-2.3-20.9-3.3c-0.8-0.1-1.6,0.2-1.8,1
			c-0.2,0.7,0.2,1.7,1,1.8c26.7,3.8,53.1,9.2,79.6,13.7c7,1.2,13.9,2.3,20.9,3.3c0.8,0.1,1.6-0.2,1.8-1
			C1367.8,950.1,1367.4,949.1,1366.6,949L1366.6,949z"/>
	</g>
	<g>
		<path fill="#15161A" d="M1209.2,961.4c19.1-8.9,38.1-17.8,57.2-26.7c1.7-0.8,0.2-3.4-1.5-2.6c-19.1,8.9-38.1,17.8-57.2,26.7
			C1205.9,959.7,1207.4,962.2,1209.2,961.4L1209.2,961.4z"/>
	</g>
	<g>
		<path fill="#15161A" d="M1110.9,878c2.3,6.1,3.7,12.5,5,18.8c0.2,0.9,1.6,0.5,1.4-0.4c-1.3-6.4-2.8-12.7-5-18.8
			C1112,876.8,1110.5,877.1,1110.9,878L1110.9,878z"/>
	</g>
	<g>
		<path fill="#15161A" d="M1114.9,877.1c1,3,2,6,2.9,9c1,3.3,1.8,6.7,2.5,10c0.2,0.9,1.6,0.5,1.4-0.4c-0.7-3.4-1.5-6.7-2.5-10
			c-0.9-3-2-6-2.9-9C1116,875.8,1114.6,876.2,1114.9,877.1L1114.9,877.1z"/>
	</g>
	<g>
		<path fill="#15161A" d="M1151.9,864.6c4.5,6.3,9.1,12.7,13.6,19c0.6,0.8,1.9,0,1.3-0.8c-4.5-6.3-9.1-12.7-13.6-19
			C1152.6,863,1151.3,863.8,1151.9,864.6L1151.9,864.6z"/>
	</g>
	<g>
		<path fill="#15161A" d="M1146.3,901.9c1,0,1-1.5,0-1.5C1145.3,900.4,1145.3,901.9,1146.3,901.9L1146.3,901.9z"/>
	</g>
	<g>
		<path fill="#15161A" d="M1118.6,875.9c2.2,7.2,4.2,14.3,5.4,21.7c0.2,1,1.6,0.5,1.4-0.4c-1.2-7.4-3.2-14.6-5.4-21.7
			C1119.8,874.6,1118.3,875,1118.6,875.9L1118.6,875.9z"/>
	</g>
	<g>
		<path fill="#15161A" d="M1167.9,878.9c-1.3-0.4-2.9,0.4-4.2,0.7c-1.7,0.4-3.3,0.9-5,1.3c-3.3,0.9-6.6,1.8-10,2.7
			c-0.9,0.3-0.5,1.7,0.4,1.4c3.1-0.8,6.2-1.7,9.3-2.5c1.5-0.4,3.1-0.8,4.6-1.2c0.7-0.2,1.4-0.4,2.1-0.6c0.7-0.2,1.6-0.6,2.3-0.4
			C1168.5,880.6,1168.9,879.2,1167.9,878.9L1167.9,878.9z"/>
	</g>
	<g>
		<path fill="#15161A" d="M1164.1,875c-4.3,1.6-8.6,3-13.1,4.2c-0.9,0.3-0.5,1.7,0.4,1.4c4.4-1.2,8.8-2.6,13.1-4.2
			C1165.4,876.1,1165,874.7,1164.1,875L1164.1,875z"/>
	</g>
	<g>
		<path fill="#15161A" d="M1148.6,886c-2.4,4.8-4.8,9.7-7.1,14.5c-0.4,0.9,0.9,1.6,1.3,0.8c2.4-4.8,4.8-9.7,7.1-14.5
			C1150.3,885.9,1149,885.1,1148.6,886L1148.6,886z"/>
	</g>
	<g>
		<path fill="#15161A" d="M1144.1,886.4c-1.9,4.1-3.9,8.3-5.8,12.4c-0.4,0.9,0.9,1.6,1.3,0.8c1.9-4.1,3.9-8.3,5.8-12.4
			C1145.8,886.3,1144.5,885.5,1144.1,886.4L1144.1,886.4z"/>
	</g>
	<g>
		<path fill="#15161A" d="M1137.3,890.5c-1.2,2.7-2.3,5.3-3.5,8c-0.2,0.4-0.1,0.8,0.3,1c0.3,0.2,0.9,0.1,1-0.3
			c1.2-2.7,2.3-5.3,3.5-8c0.2-0.4,0.1-0.8-0.3-1C1138,890.1,1137.5,890.2,1137.3,890.5L1137.3,890.5z"/>
	</g>
	<g>
		<path fill="#15161A" d="M1130.4,891.7c-0.6,2.2-1.5,4.3-2.6,6.3c-0.5,0.8,0.8,1.6,1.3,0.8c1.2-2.1,2.1-4.3,2.8-6.6
			C1132.1,891.2,1130.6,890.8,1130.4,891.7L1130.4,891.7z"/>
	</g>
	<g>
		<path fill="#15161A" d="M1122.7,892.7c-0.9,1.3-1.5,2.7-1.9,4.1c-0.1,0.4,0.1,0.8,0.5,0.9c0.4,0.1,0.8-0.1,0.9-0.5
			c0.1-0.4,0.2-0.7,0.3-1.1c0.1-0.2,0.1-0.3,0.2-0.5c0-0.1,0-0.1,0,0c0,0,0-0.1,0.1-0.1c0-0.1,0.1-0.2,0.1-0.3
			c0.3-0.7,0.7-1.3,1.1-1.9c0.2-0.3,0.1-0.8-0.3-1C1123.3,892.2,1122.9,892.3,1122.7,892.7L1122.7,892.7z"/>
	</g>
	<g>
		<path fill="#15161A" d="M1161.6,871.2c-2.6,0.7-5.2,1.5-7.8,2.2c-0.9,0.3-0.5,1.7,0.4,1.4c2.6-0.7,5.2-1.5,7.8-2.2
			C1162.9,872.3,1162.5,870.9,1161.6,871.2L1161.6,871.2z"/>
	</g>
	<g>
		<path fill="#15161A" d="M1158.9,865.7c-2,0.9-3.9,1.8-5.9,2.8c-0.4,0.2-0.5,0.7-0.3,1c0.2,0.4,0.7,0.4,1,0.3
			c2-0.9,3.9-1.8,5.9-2.8c0.4-0.2,0.5-0.7,0.3-1C1159.7,865.6,1159.3,865.5,1158.9,865.7L1158.9,865.7z"/>
	</g>
	<g>
		<path fill="#15161A" d="M1008.3,918.9c1.5,8.5,3.1,17.1,4.6,25.6c1.5,8.3,2.9,16.7,4.6,25c1,4.6,2.2,9.1,3.8,13.5
			c0.3,0.9,1.8,0.5,1.4-0.4c-2.8-7.7-4.3-15.8-5.8-23.9c-1.5-8.5-3.1-17.1-4.6-25.6c-0.9-4.9-1.8-9.8-2.6-14.6
			C1009.5,917.5,1008.1,917.9,1008.3,918.9L1008.3,918.9z"/>
	</g>
	<g>
		<path fill="#15161A" d="M1012.4,919.5c4.1,20.3,7.8,40.8,11.2,61.2c0.2,1,1.6,0.5,1.4-0.4c-3.3-20.5-7.1-40.9-11.2-61.2
			C1013.6,918.1,1012.2,918.5,1012.4,919.5L1012.4,919.5z"/>
	</g>
	<g>
		<path fill="#15161A" d="M1062.8,899.8c-17.1,7.6-34.5,14.4-52.1,20.6c-0.9,0.3-0.5,1.8,0.4,1.4c17.8-6.2,35.3-13.1,52.5-20.7
			C1064.4,900.7,1063.7,899.4,1062.8,899.8L1062.8,899.8z"/>
	</g>
	<g>
		<path fill="#15161A" d="M1064.7,899.7c3.2,4,6.3,8,9.5,12c0.6,0.8,1.7-0.3,1.1-1.1c-3.2-4-6.3-8-9.5-12
			C1065.1,897.9,1064.1,899,1064.7,899.7L1064.7,899.7z"/>
	</g>
	<g>
		<path fill="#15161A" d="M1061.4,901c2.6,4,5.5,7.9,8.7,11.4c0.7,0.7,1.7-0.3,1.1-1.1c-3.1-3.4-6-7.2-8.5-11.1
			C1062.2,899.5,1060.9,900.2,1061.4,901L1061.4,901z"/>
	</g>
	<g>
		<path fill="#15161A" d="M1058.7,902.4c2.5,4.4,5.5,8.5,8.8,12.3c0.6,0.7,1.7-0.3,1.1-1.1c-3.3-3.7-6.1-7.7-8.6-12
			C1059.5,900.8,1058.2,901.5,1058.7,902.4L1058.7,902.4z"/>
	</g>
	<g>
		<path fill="#15161A" d="M1055.8,903c1.7,4.4,4.4,8.3,7,12.1c0.5,0.8,1.8,0,1.3-0.8c-2.6-3.7-5.2-7.5-6.9-11.8
			C1056.9,901.7,1055.4,902.1,1055.8,903L1055.8,903z"/>
	</g>
	<g>
		<path fill="#15161A" d="M1052.2,905.5c2.2,3.8,4.4,7.5,6.6,11.2c0.5,0.8,1.8,0.1,1.3-0.8c-2.3-3.7-4.5-7.4-6.6-11.2
			C1053,903.9,1051.7,904.6,1052.2,905.5L1052.2,905.5z"/>
	</g>
	<g>
		<path fill="#15161A" d="M1049.8,906.8c1.8,3.6,3.9,7.2,6.1,10.6c0.5,0.8,1.8,0.1,1.3-0.8c-2.2-3.4-4.2-7-6.1-10.6
			C1050.7,905.2,1049.4,905.9,1049.8,906.8L1049.8,906.8z"/>
	</g>
	<g>
		<path fill="#15161A" d="M1046.2,908.5c2,3.3,3.8,6.6,5.6,10c0.4,0.9,1.7,0.1,1.3-0.8c-1.7-3.4-3.6-6.7-5.6-10
			C1047,906.9,1045.7,907.7,1046.2,908.5L1046.2,908.5z"/>
	</g>
	<g>
		<path fill="#15161A" d="M1042.9,909.3c2.3,3.7,4.5,7.4,6.8,11.1c0.5,0.8,1.8,0.1,1.3-0.8c-2.3-3.7-4.5-7.4-6.8-11.1
			C1043.7,907.7,1042.4,908.5,1042.9,909.3L1042.9,909.3z"/>
	</g>
	<g>
		<path fill="#15161A" d="M1039.9,910.6c2.2,5.2,4.6,10.4,7.2,15.4c0.4,0.9,1.7,0.1,1.3-0.8c-2.5-4.9-4.9-10-7-15.1
			C1041,909.3,1039.5,909.7,1039.9,910.6L1039.9,910.6z"/>
	</g>
	<g>
		<path fill="#15161A" d="M1036.4,912.8c2.6,6.9,5.3,13.8,7.9,20.8c0.3,0.9,1.8,0.5,1.4-0.4c-2.6-6.9-5.3-13.8-7.9-20.8
			C1037.5,911.6,1036.1,911.9,1036.4,912.8L1036.4,912.8z"/>
	</g>
	<g>
		<path fill="#15161A" d="M1032.9,914.2c2.1,4.6,4.1,9.2,5.8,14c0.8,2.3,1.6,4.7,2.3,7c0.4,1.3,0.1,3.5,1.8,4
			c0.9,0.3,1.3-1.2,0.4-1.4c-0.4-0.1-0.5-2.1-0.6-2.5c-0.3-1-0.6-2-0.9-3c-0.7-2.1-1.4-4.3-2.2-6.4c-1.6-4.2-3.3-8.3-5.2-12.4
			C1033.8,912.5,1032.5,913.3,1032.9,914.2L1032.9,914.2z"/>
	</g>
	<g>
		<path fill="#15161A" d="M1030.1,914.8c0.2,2.6,1.1,5,2,7.4c1,2.6,2.1,5.2,3,7.9c1.9,5.3,3.5,10.6,4.8,16.1
			c0.2,0.9,1.7,0.5,1.4-0.4c-1.3-5.3-2.8-10.5-4.6-15.6c-0.9-2.5-1.8-5-2.8-7.5c-1-2.5-2.1-5.1-2.3-7.9
			C1031.6,913.9,1030.1,913.8,1030.1,914.8L1030.1,914.8z"/>
	</g>
	<g>
		<path fill="#15161A" d="M1026.8,915.5c1.9,6.5,3.8,12.9,5.7,19.4c1.8,6,3.5,12,6,17.8c0.4,0.9,1.7,0.1,1.3-0.8
			c-2.5-5.8-4.2-11.9-6-17.9c-1.9-6.3-3.7-12.6-5.6-18.9C1027.9,914.2,1026.5,914.6,1026.8,915.5L1026.8,915.5z"/>
	</g>
	<g>
		<path fill="#15161A" d="M1022.3,917.3c4.5,13.3,8.4,26.8,11.7,40.4c0.2,0.9,1.7,0.5,1.4-0.4c-3.3-13.6-7.2-27.1-11.7-40.4
			C1023.4,916,1022,916.4,1022.3,917.3L1022.3,917.3z"/>
	</g>
	<g>
		<path fill="#15161A" d="M1018.9,918.8c4.7,15.6,9,31.3,13.1,47.1c0.2,0.9,1.7,0.5,1.4-0.4c-4.1-15.8-8.4-31.5-13.1-47.1
			C1020,917.5,1018.6,917.9,1018.9,918.8L1018.9,918.8z"/>
	</g>
	<g>
		<path fill="#15161A" d="M1014.8,920.1c7.2,17.6,7.4,37.1,14.2,54.9c0.3,0.9,1.8,0.5,1.4-0.4c-6.8-17.8-7-37.3-14.2-54.9
			C1015.9,918.8,1014.5,919.2,1014.8,920.1L1014.8,920.1z"/>
	</g>
	<g>
		<path fill="#15161A" d="M1244.9,903.9c2.2,11.5,4.3,23,6.5,34.6c0.2,0.9,1.6,0.5,1.4-0.4c-2.2-11.5-4.3-23-6.5-34.6
			C1246.2,902.6,1244.8,903,1244.9,903.9L1244.9,903.9z"/>
	</g>
	<g>
		<path fill="#15161A" d="M1249,901.7c1.1,5.8,2.3,11.7,3.4,17.5c1.1,5.5,1.9,11.2,3.7,16.5c0.3,0.9,1.8,0.5,1.4-0.4
			c-1.8-5.3-2.7-11-3.7-16.5c-1.1-5.8-2.3-11.7-3.4-17.5C1250.2,900.3,1248.8,900.7,1249,901.7L1249,901.7z"/>
	</g>
	<g>
		<path fill="#15161A" d="M1252.3,898.3c2.9,12,5.8,24.1,8.7,36.1c0.2,0.9,1.7,0.5,1.4-0.4c-2.9-12-5.8-24.1-8.7-36.1
			C1253.5,897,1252,897.4,1252.3,898.3L1252.3,898.3z"/>
	</g>
	<g>
		<path fill="#15161A" d="M1257.8,898.9c2.6,11.4,5.6,22.7,9.1,33.9c0.3,0.9,1.7,0.5,1.4-0.4c-3.5-11.2-6.5-22.5-9.1-33.9
			C1259,897.6,1257.6,898,1257.8,898.9L1257.8,898.9z"/>
	</g>
	<g>
		<path fill="#15161A" d="M1262.1,898.3c1.1,6,2.8,11.9,4.5,17.7c1.7,5.9,3.4,11.8,5.1,17.7c0.3,0.9,1.7,0.5,1.4-0.4
			c-1.7-5.9-3.4-11.8-5.1-17.7c-1.7-5.9-3.4-11.7-4.5-17.7C1263.4,897,1261.9,897.4,1262.1,898.3L1262.1,898.3z"/>
	</g>
	<g>
		<path fill="#15161A" d="M1265.8,896.6c1.7,6.5,3.4,12.9,5.1,19.4c1.7,6.4,3.3,12.8,5.3,19.1c0.3,0.9,1.7,0.5,1.4-0.4
			c-2-6.3-3.6-12.7-5.3-19.1c-1.7-6.5-3.4-12.9-5.1-19.4C1267,895.3,1265.6,895.7,1265.8,896.6L1265.8,896.6z"/>
	</g>
	<g>
		<path fill="#15161A" d="M1269.6,895c3.1,12.8,6.9,25.5,11.2,38c0.3,0.9,1.8,0.5,1.4-0.4c-4.3-12.5-8.1-25.2-11.2-38
			C1270.8,893.6,1269.4,894,1269.6,895L1269.6,895z"/>
	</g>
	<g>
		<path fill="#15161A" d="M1273.1,894c2,5.7,3.9,11.3,5.9,17c1.9,5.5,4,11.1,5.5,16.8c0.2,0.9,1.7,0.5,1.4-0.4
			c-1.5-5.7-3.6-11.2-5.5-16.8c-2-5.7-3.9-11.3-5.9-17C1274.3,892.7,1272.8,893.1,1273.1,894L1273.1,894z"/>
	</g>
	<g>
		<path fill="#15161A" d="M1277.2,891.5c3.5,9.5,7,19,10.4,28.4c0.3,0.9,1.8,0.5,1.4-0.4c-3.5-9.5-7-19-10.4-28.4
			C1278.3,890.2,1276.9,890.6,1277.2,891.5L1277.2,891.5z"/>
	</g>
	<g>
		<path fill="#15161A" d="M1281,890.1c3,8.3,6,16.6,9,24.8c0.3,0.9,1.8,0.5,1.4-0.4c-3-8.3-6-16.6-9-24.8
			C1282.1,888.8,1280.7,889.2,1281,890.1L1281,890.1z"/>
	</g>
	<g>
		<path fill="#15161A" d="M1285.4,891c2.7,6.7,5.3,13.3,8,20c0.4,0.9,1.8,0.5,1.4-0.4c-2.7-6.7-5.3-13.3-8-20
			C1286.5,889.7,1285.1,890.1,1285.4,891L1285.4,891z"/>
	</g>
	<g>
		<path fill="#15161A" d="M1299.1,903.3c-4.2,1.6-8.1,4-11.4,7.1c-0.7,0.7,0.4,1.7,1.1,1.1c3.1-2.9,6.8-5.2,10.7-6.7
			C1300.4,904.4,1300,903,1299.1,903.3L1299.1,903.3z"/>
	</g>
	<g>
		<path fill="#15161A" d="M1297.8,899c-3.3,2-6.7,4.1-10,6.1c-0.8,0.5-0.1,1.8,0.8,1.3c3.3-2,6.7-4.1,10-6.1
			C1299.3,899.8,1298.6,898.5,1297.8,899L1297.8,899z"/>
	</g>
	<g>
		<path fill="#15161A" d="M1294.2,894.6c-1.9,0.7-3.7,1.5-5.6,2.2c-0.4,0.2-0.6,0.5-0.5,0.9c0.1,0.4,0.5,0.7,0.9,0.5
			c1.9-0.7,3.7-1.5,5.6-2.2c0.4-0.2,0.6-0.5,0.5-0.9C1295,894.8,1294.5,894.5,1294.2,894.6L1294.2,894.6z"/>
	</g>
	<g>
		<path fill="#15161A" d="M1285.5,911.9c-2.4,7-4.8,14-7.3,21c-0.3,0.9,1.1,1.3,1.4,0.4c2.4-7,4.8-14,7.3-21
			C1287.3,911.4,1285.8,911,1285.5,911.9L1285.5,911.9z"/>
	</g>
	<g>
		<path fill="#15161A" d="M1281.4,915.5c-2.7,6-4.8,12.2-6.2,18.5c-0.2,0.9,1.2,1.3,1.4,0.4c1.4-6.3,3.4-12.3,6.1-18.2
			C1283.1,915.4,1281.8,914.7,1281.4,915.5L1281.4,915.5z"/>
	</g>
	<g>
		<path fill="#15161A" d="M1274.3,921.9c-1.2,3.9-2.5,7.7-3.7,11.6c-0.3,0.9,1.1,1.3,1.4,0.4c1.2-3.9,2.5-7.7,3.7-11.6
			C1276.1,921.4,1274.6,921,1274.3,921.9L1274.3,921.9z"/>
	</g>
	<g>
		<path fill="#15161A" d="M1268,926.5c0.2,2.2-0.4,4.5-2,6.2c-0.7,0.7,0.4,1.8,1.1,1.1c1.8-1.9,2.7-4.6,2.4-7.2
			c0-0.4-0.3-0.8-0.8-0.8C1268.3,925.7,1267.9,926.1,1268,926.5L1268,926.5z"/>
	</g>
	<g>
		<path fill="#15161A" d="M1290.4,890c-13.9,4.4-27.8,9.1-41.5,14.1c-0.9,0.3-0.5,1.8,0.4,1.4c13.7-5,27.6-9.8,41.5-14.1
			C1291.7,891.2,1291.3,889.7,1290.4,890L1290.4,890z"/>
	</g>
	<g>
		<path fill="#15161A" d="M1072.3,906.9c-9.5,4.6-19.3,8.6-29.4,12c-0.9,0.3-0.5,1.8,0.4,1.4c10.2-3.4,20.1-7.5,29.7-12.2
			C1073.9,907.7,1073.2,906.5,1072.3,906.9L1072.3,906.9z"/>
	</g>
	<g>
		<path fill="#15161A" d="M1043.8,923.9c-6.9,17.5-13.8,35-20.6,52.5c-0.4,0.9,1.1,1.3,1.4,0.4c6.9-17.5,13.8-35,20.6-52.5
			C1045.6,923.4,1044.1,923,1043.8,923.9L1043.8,923.9z"/>
	</g>
	<g>
		<path fill="#15161A" d="M1209.2,920.1c6.6,10.1,13.6,19.8,21.2,29.1c0.6,0.7,1.7-0.3,1.1-1.1c-7.5-9.2-14.5-18.8-21-28.8
			C1210,918.5,1208.7,919.3,1209.2,920.1L1209.2,920.1z"/>
	</g>
	<g>
		<path fill="#15161A" d="M1204.4,922.6c6.8,9.6,13.6,19.1,20.4,28.7c0.6,0.8,1.9,0,1.3-0.8c-6.8-9.6-13.6-19.1-20.4-28.7
			C1205.1,921,1203.8,921.8,1204.4,922.6L1204.4,922.6z"/>
	</g>
	<g>
		<path fill="#15161A" d="M1199.6,924.4c7.2,9,13.9,18.4,20.1,28.1c0.5,0.8,1.8,0.1,1.3-0.8c-6.2-9.9-13-19.3-20.3-28.4
			C1200,922.5,1199,923.6,1199.6,924.4L1199.6,924.4z"/>
	</g>
	<g>
		<path fill="#15161A" d="M1196.8,926.9c6.6,9.1,13.1,18.1,19.7,27.2c0.6,0.8,1.9,0,1.3-0.8c-6.6-9.1-13.1-18.1-19.7-27.2
			C1197.6,925.3,1196.3,926.1,1196.8,926.9L1196.8,926.9z"/>
	</g>
	<g>
		<path fill="#15161A" d="M1209.4,923.1c-3.7,2.7-8.1,4.2-12.2,6c-4.4,1.9-8.8,3.7-13.2,5.6c-8.8,3.7-17.7,7.4-26.5,11.1
			c-0.9,0.4-0.5,1.8,0.4,1.4c9-3.8,18-7.5,27-11.3c4.4-1.9,8.8-3.7,13.2-5.6c4.1-1.7,8.5-3.3,12.1-6
			C1210.9,923.8,1210.1,922.5,1209.4,923.1L1209.4,923.1z"/>
	</g>
	<g>
		<path fill="#15161A" d="M1156,949.3c0.3,19.3,0.7,38.6,1,57.9c0,1,1.5,1,1.5,0c-0.3-19.3-0.7-38.6-1-57.9
			C1157.4,948.4,1155.9,948.4,1156,949.3L1156,949.3z"/>
	</g>
	<g>
		<path fill="#15161A" d="M1188.6,991.8c-9.3,5-18.6,10-27.8,15c-0.8,0.5-0.1,1.8,0.8,1.3c9.3-5,18.6-10,27.8-15
			C1190.2,992.7,1189.4,991.4,1188.6,991.8L1188.6,991.8z"/>
	</g>
	<g>
		<path fill="#15161A" d="M1191.5,985.4c-7.6,4.3-15.2,8.6-22.8,12.8c-0.8,0.5-0.1,1.8,0.8,1.3c7.6-4.3,15.2-8.6,22.8-12.8
			C1193.1,986.2,1192.3,984.9,1191.5,985.4L1191.5,985.4z"/>
	</g>
	<g>
		<path fill="#15161A" d="M1194.3,978.3c-5.8,3.3-11.5,6.6-17.3,10c-0.8,0.5-0.1,1.8,0.8,1.3c5.8-3.3,11.5-6.6,17.3-10
			C1195.9,979.1,1195.2,977.8,1194.3,978.3L1194.3,978.3z"/>
	</g>
	<g>
		<path fill="#15161A" d="M1196.6,973.9c-2.8,1.5-5.8,2.7-8.8,3.6c-0.9,0.3-0.5,1.7,0.4,1.4c3.2-0.9,6.3-2.1,9.2-3.7
			C1198.2,974.7,1197.4,973.4,1196.6,973.9L1196.6,973.9z"/>
	</g>
	<g>
		<path fill="#15161A" d="M1227.6,944.6c-6.9,3.4-14.1,6.1-21.5,8.3c-0.9,0.3-0.5,1.7,0.4,1.4c7.5-2.2,14.8-5,21.9-8.4
			C1229.2,945.4,1228.5,944.2,1227.6,944.6L1227.6,944.6z"/>
	</g>
	<g>
		<path fill="#15161A" d="M1202.9,952.3c-7.2,15.8-14.3,31.6-21.5,47.4c-0.4,0.9,0.9,1.6,1.3,0.8c7.2-15.8,14.3-31.6,21.5-47.4
			C1204.6,952.2,1203.3,951.4,1202.9,952.3L1202.9,952.3z"/>
	</g>
	<g>
		<path fill="#15161A" d="M1215,924.9c-4.1,2.2-8.3,4.3-12.7,6c-0.9,0.4-0.5,1.8,0.4,1.4c4.5-1.8,8.8-3.9,13-6.2
			C1216.6,925.7,1215.8,924.4,1215,924.9L1215,924.9z"/>
	</g>
	<g>
		<path fill="#15161A" d="M1219.6,928.6c-2.6,0.9-5.2,1.8-7.8,2.7c-0.9,0.3-0.5,1.8,0.4,1.4c2.6-0.9,5.2-1.8,7.8-2.7
			C1220.9,929.8,1220.5,928.3,1219.6,928.6L1219.6,928.6z"/>
	</g>
	<g>
		<path fill="#15161A" d="M1193.3,929.8c5,9,10.1,17.9,15.1,26.9c0.5,0.8,1.8,0.1,1.3-0.8c-5-9-10.1-17.9-15.1-26.9
			C1194.1,928.2,1192.8,928.9,1193.3,929.8L1193.3,929.8z"/>
	</g>
	<g>
		<path fill="#15161A" d="M1188.3,929.7c2.6,5.6,5.2,11.1,7.8,16.7c2.5,5.4,5.4,10.7,7.1,16.4c0.3,0.9,1.7,0.5,1.4-0.4
			c-1.7-5.6-4.6-11-7.1-16.3c-2.7-5.7-5.3-11.4-8-17.1C1189.2,928.1,1187.9,928.9,1188.3,929.7L1188.3,929.7z"/>
	</g>
	<g>
		<path fill="#15161A" d="M1183.4,931.9c5.7,11.2,11,22.6,15.8,34.2c0.4,0.9,1.8,0.5,1.4-0.4c-4.8-11.7-10.1-23.3-15.9-34.6
			C1184.2,930.3,1182.9,931.1,1183.4,931.9L1183.4,931.9z"/>
	</g>
	<g>
		<path fill="#15161A" d="M1178.4,933.6c6.7,13.1,12.4,26.7,17.3,40.6c0.3,0.9,1.8,0.5,1.4-0.4c-4.9-14-10.7-27.7-17.4-41
			C1179.3,931.9,1178,932.7,1178.4,933.6L1178.4,933.6z"/>
	</g>
	<g>
		<path fill="#15161A" d="M1174.7,934.8c3.7,14.4,12.2,27.1,15,41.8c0.2,0.9,1.6,0.5,1.4-0.4c-2.9-14.6-11.3-27.4-15-41.8
			C1175.9,933.5,1174.4,933.9,1174.7,934.8L1174.7,934.8z"/>
	</g>
	<g>
		<path fill="#15161A" d="M1169.8,936.8c5.7,16.2,11,32.6,16.2,49c0.3,0.9,1.7,0.5,1.4-0.4c-5.1-16.4-10.5-32.7-16.2-49
			C1170.9,935.5,1169.5,935.9,1169.8,936.8L1169.8,936.8z"/>
	</g>
	<g>
		<path fill="#15161A" d="M1166.5,938.4c5.1,17.2,10.2,34.5,15.3,51.7c0.3,0.9,1.7,0.5,1.4-0.4c-5.1-17.2-10.2-34.5-15.3-51.7
			C1167.7,937.1,1166.3,937.5,1166.5,938.4L1166.5,938.4z"/>
	</g>
	<g>
		<path fill="#15161A" d="M1161.3,940.5c2.7,8.8,5.4,17.6,8.2,26.4c2.6,8.5,5.2,17.1,6.5,26c0.1,1,1.6,0.5,1.4-0.4
			c-1.2-8.9-3.8-17.4-6.5-26c-2.7-8.8-5.4-17.6-8.2-26.4C1162.5,939.2,1161,939.6,1161.3,940.5L1161.3,940.5z"/>
	</g>
	<g>
		<path fill="#15161A" d="M1158.3,941c-0.1,4.6,1.2,9.1,2.6,13.5c1.4,4.7,2.8,9.3,4.1,14c2.6,9.4,4.9,18.9,7,28.4
			c0.2,0.9,1.7,0.5,1.4-0.4c-2.1-9.4-4.4-18.7-6.9-28c-1.3-4.5-2.6-9.1-3.9-13.6c-1.4-4.6-2.9-9.2-2.8-14
			C1159.8,940,1158.3,940,1158.3,941L1158.3,941z"/>
	</g>
	<g>
		<path fill="#15161A" d="M1154.3,942.9c3.3,16.4,6.6,32.9,10,49.3c1,4.7,1.9,9.4,2.9,14.2c0.2,0.9,1.6,0.5,1.4-0.4
			c-3.3-16.4-6.6-32.9-10-49.3c-1-4.7-1.9-9.4-2.9-14.2C1155.6,941.5,1154.2,941.9,1154.3,942.9L1154.3,942.9z"/>
	</g>
	<g>
		<path fill="#15161A" d="M1156.9,981.1c1.2,10,3.2,19.9,6,29.6c0.3,0.9,1.7,0.5,1.4-0.4c-2.7-9.6-4.7-19.4-5.9-29.2
			C1158.3,980.2,1156.8,980.1,1156.9,981.1L1156.9,981.1z"/>
	</g>
	<g>
		<path fill="#15161A" d="M1226.4,940.7c-6.1,2.8-12.4,5.1-18.8,6.9c-0.9,0.3-0.5,1.7,0.4,1.4c6.6-1.8,13-4.2,19.2-7.1
			C1228,941.6,1227.2,940.3,1226.4,940.7L1226.4,940.7z"/>
	</g>
	<g>
		<path fill="#15161A" d="M1224.5,936c-3.3,1.3-6.7,2.6-10,3.9c-0.4,0.1-0.6,0.5-0.5,0.9c0.1,0.4,0.5,0.7,0.9,0.5
			c3.3-1.3,6.7-2.6,10-3.9c0.4-0.1,0.6-0.5,0.5-0.9C1225.3,936.2,1224.9,935.9,1224.5,936L1224.5,936z"/>
	</g>
	<g>
		<path fill="#15161A" d="M1220.9,932.5c-1.8,0.6-3.5,1.3-5.3,1.9c-0.4,0.1-0.6,0.5-0.5,0.9c0.1,0.4,0.5,0.7,0.9,0.5
			c1.8-0.6,3.5-1.3,5.3-1.9c0.4-0.1,0.6-0.5,0.5-0.9C1221.7,932.6,1221.3,932.3,1220.9,932.5L1220.9,932.5z"/>
	</g>
	<g>
		<path fill="#15161A" d="M1458.9,909.3c-14.5,8.2-28.9,16.4-43.4,24.5c-0.8,0.5-0.1,1.8,0.8,1.3c14.5-8.2,28.9-16.4,43.4-24.5
			C1460.5,910.2,1459.7,908.9,1458.9,909.3L1458.9,909.3z"/>
	</g>
	<g>
		<path fill="#15161A" d="M1415.9,936.2c4.3,18.3,8.3,36.6,11.8,55.1c0.2,0.9,1.6,0.5,1.4-0.4c-3.5-18.5-7.4-36.8-11.8-55.1
			C1417.2,934.9,1415.7,935.3,1415.9,936.2L1415.9,936.2z"/>
	</g>
	<g>
		<path fill="#15161A" d="M1490.6,945.6c-7.2,6.6-15.8,11.4-24.1,16.4c-8.9,5.4-17.7,10.9-26.6,16.3c-0.8,0.5-0.1,1.8,0.8,1.3
			c9-5.5,18-11,27-16.5c8.2-5,16.8-9.8,24-16.4C1492.4,946,1491.3,944.9,1490.6,945.6L1490.6,945.6z"/>
	</g>
	<g>
		<path fill="#15161A" d="M1501.6,950.2c-9.1,5.9-18.3,11.6-27.4,17.4c-11.1,6.9-22.2,13.8-33.3,20.7c-4.5,2.8-9.1,5.6-13.6,8.4
			c-0.8,0.5-0.1,1.8,0.8,1.3c9.2-5.7,18.5-11.4,27.7-17.2c11.1-6.9,22.2-13.8,33.2-20.8c4.5-2.8,9-5.7,13.4-8.6
			C1503.1,951,1502.4,949.7,1501.6,950.2L1501.6,950.2z"/>
	</g>
	<g>
		<path fill="#15161A" d="M1506.7,951.5c-8.1,5.5-16.5,10.7-24.7,16c-10.6,6.7-21.3,13.5-31.9,20.1c-4,2.5-8.1,5-12.1,7.5
			c-0.8,0.5-0.1,1.8,0.8,1.3c8.5-5.2,16.9-10.5,25.3-15.8c10.6-6.7,21.2-13.4,31.8-20.2c3.9-2.5,7.8-5,11.7-7.7
			C1508.3,952.3,1507.5,951,1506.7,951.5L1506.7,951.5z"/>
	</g>
	<g>
		<path fill="#15161A" d="M1510.2,952.8c-6.8,5.1-14,9.6-21.1,14.4c-9.7,6.5-19.4,12.9-29.1,19.5c-3.4,2.3-6.8,4.6-10.1,7
			c-0.8,0.6,0,1.9,0.8,1.3c7.2-5.3,14.7-10.1,22.1-15.1c9.6-6.4,19.2-12.8,28.8-19.3c3.1-2.1,6.3-4.2,9.4-6.5
			C1511.7,953.5,1510.9,952.2,1510.2,952.8L1510.2,952.8z"/>
	</g>
	<g>
		<path fill="#15161A" d="M1419.3,932.9c4.5,17.8,9.7,35.5,15.7,52.9c0.3,0.9,1.8,0.5,1.4-0.4c-5.9-17.4-11.2-35.1-15.7-52.9
			C1420.5,931.5,1419.1,931.9,1419.3,932.9L1419.3,932.9z"/>
	</g>
	<g>
		<path fill="#15161A" d="M1421.8,927.4c6.3,17.8,12.8,35.6,17.8,53.8c0.3,0.9,1.7,0.5,1.4-0.4c-5-18.3-11.5-36-17.8-53.8
			C1422.9,926.1,1421.5,926.5,1421.8,927.4L1421.8,927.4z"/>
	</g>
	<g>
		<path fill="#15161A" d="M1455.4,906.5c6.2,6.5,11,14.5,16.1,21.9c5.4,7.8,10.8,15.7,16.1,23.5c0.5,0.8,1.8,0,1.3-0.8
			c-5.5-8-10.9-15.9-16.4-23.9c-5.1-7.4-9.8-15.3-16-21.8C1455.8,904.8,1454.7,905.8,1455.4,906.5L1455.4,906.5z"/>
	</g>
	<g>
		<path fill="#15161A" d="M1453,907.6c10.2,15.5,20.4,31,30.6,46.6c0.5,0.8,1.8,0.1,1.3-0.8c-10.2-15.5-20.4-31-30.6-46.6
			C1453.8,906,1452.5,906.8,1453,907.6L1453,907.6z"/>
	</g>
	<g>
		<path fill="#15161A" d="M1450.1,910.4c9.1,15.8,18.5,31.5,28.1,47c0.5,0.8,1.8,0.1,1.3-0.8c-9.6-15.5-19-31.2-28.1-47
			C1450.9,908.8,1449.6,909.6,1450.1,910.4L1450.1,910.4z"/>
	</g>
	<g>
		<path fill="#15161A" d="M1445.5,912.1c9.6,15.9,18,32.5,26.7,48.9c0.5,0.9,1.7,0.1,1.3-0.8c-8.7-16.4-17.1-33-26.7-48.9
			C1446.3,910.5,1445,911.3,1445.5,912.1L1445.5,912.1z"/>
	</g>
	<g>
		<path fill="#15161A" d="M1441,914.9c9,16.2,17.7,32.6,26.2,49.1c0.4,0.9,1.7,0.1,1.3-0.8c-8.4-16.5-17.1-32.9-26.2-49.1
			C1441.8,913.3,1440.5,914.1,1441,914.9L1441,914.9z"/>
	</g>
	<g>
		<path fill="#15161A" d="M1437.3,917.3c8.5,17.5,16.7,35.3,24.6,53.1c0.4,0.9,1.7,0.1,1.3-0.8c-7.8-17.9-16-35.6-24.6-53.1
			C1438.2,915.7,1436.9,916.4,1437.3,917.3L1437.3,917.3z"/>
	</g>
	<g>
		<path fill="#15161A" d="M1433.8,918.9c8.3,17.5,16,35.3,23,53.3c0.3,0.9,1.8,0.5,1.4-0.4c-7.1-18.1-14.8-36-23.1-53.6
			C1434.7,917.3,1433.4,918,1433.8,918.9L1433.8,918.9z"/>
	</g>
	<g>
		<path fill="#15161A" d="M1429.9,921.7c7.6,17.8,14.8,35.7,21.6,53.8c0.3,0.9,1.8,0.5,1.4-0.4c-6.8-18.2-14.1-36.3-21.7-54.2
			C1430.8,920,1429.6,920.8,1429.9,921.7L1429.9,921.7z"/>
	</g>
	<g>
		<path fill="#15161A" d="M1425.5,924.6c7.4,18.2,14.3,36.7,20.8,55.3c0.3,0.9,1.8,0.5,1.4-0.4c-6.4-18.6-13.3-37.1-20.8-55.3
			C1426.6,923.3,1425.2,923.7,1425.5,924.6L1425.5,924.6z"/>
	</g>
	<g>
		<path fill="#15161A" d="M1490.1,942.5c-11.2,7.6-22.9,14.6-35,20.9c-0.9,0.4-0.1,1.7,0.8,1.3c12.1-6.3,23.7-13.2,35-20.9
			C1491.6,943.2,1490.9,941.9,1490.1,942.5L1490.1,942.5z"/>
	</g>
	<g>
		<path fill="#15161A" d="M1362.8,954.5c9.2,17.2,18.6,34.3,28.3,51.2c0.5,0.8,1.8,0.1,1.3-0.8c-9.7-16.9-19.1-34-28.3-51.2
			C1363.6,952.9,1362.3,953.7,1362.8,954.5L1362.8,954.5z"/>
	</g>
	<g>
		<path fill="#15161A" d="M1358.1,955.9c9.6,18,19,36.1,28.1,54.3c0.4,0.9,1.7,0.1,1.3-0.8c-9.1-18.2-18.4-36.3-28.1-54.3
			C1359,954.3,1357.7,955.1,1358.1,955.9L1358.1,955.9z"/>
	</g>
	<g>
		<path fill="#15161A" d="M1354.1,957.5c8.6,18.7,17.5,37.3,26.9,55.6c0.4,0.9,1.7,0.1,1.3-0.8c-9.4-18.3-18.3-36.9-26.9-55.6
			C1355,955.9,1353.7,956.6,1354.1,957.5L1354.1,957.5z"/>
	</g>
	<g>
		<path fill="#15161A" d="M1302.8,979.6c4.1,18.6,8.1,37.2,12.2,55.7c1.1,4.8,1.9,9.8,4.2,14.2c0.4,0.9,1.7,0.1,1.3-0.8
			c-2-3.9-2.8-8.4-3.7-12.6c-1-4.6-2-9.2-3-13.8c-2-9.1-4-18.3-6-27.4c-1.1-5.3-2.3-10.5-3.4-15.8
			C1304,978.2,1302.6,978.6,1302.8,979.6L1302.8,979.6z"/>
	</g>
	<g>
		<path fill="#15161A" d="M1305.9,978c4.6,17.7,9.2,35.5,13.8,53.2c1.3,5.1,2.6,10.1,3.9,15.2c0.2,0.9,1.7,0.5,1.4-0.4
			c-4.6-17.7-9.2-35.5-13.8-53.2c-1.3-5.1-2.6-10.1-3.9-15.2C1307.1,976.7,1305.7,977.1,1305.9,978L1305.9,978z"/>
	</g>
	<g>
		<path fill="#15161A" d="M1310.3,976.9c2.5,8.6,5.1,17.2,7.6,25.8c2.5,8.5,5.1,16.9,7.3,25.5c1.2,4.8,2.3,9.7,3,14.6
			c0.1,1,1.6,0.5,1.4-0.4c-1.4-8.7-3.6-17.1-6-25.5c-2.5-8.6-5-17.1-7.5-25.7c-1.4-4.9-2.9-9.8-4.3-14.7
			C1311.5,975.6,1310,976,1310.3,976.9L1310.3,976.9z"/>
	</g>
	<g>
		<path fill="#15161A" d="M1314.7,974.6c5.2,17.4,10.5,34.8,15.4,52.3c1.3,4.9,2.6,9.8,3.8,14.7c0.2,0.9,1.7,0.5,1.4-0.4
			c-4.2-17.6-9.6-34.9-14.7-52.2c-1.5-4.9-2.9-9.9-4.4-14.8C1315.9,973.3,1314.4,973.7,1314.7,974.6L1314.7,974.6z"/>
	</g>
	<g>
		<path fill="#15161A" d="M1319.3,972.5c5.1,16.7,10.2,33.4,15.2,50.2c1.4,4.7,2.9,9.4,4.3,14.1c0.3,0.9,1.7,0.5,1.4-0.4
			c-5.1-16.6-10.1-33.3-15.2-49.9c-1.5-4.8-2.9-9.6-4.4-14.3C1320.5,971.2,1319,971.6,1319.3,972.5L1319.3,972.5z"/>
	</g>
	<g>
		<path fill="#15161A" d="M1323.7,971.8c5.7,15.8,10.9,31.8,16.1,47.8c1.5,4.6,3,9.2,4.5,13.8c0.3,0.9,1.7,0.5,1.4-0.4
			c-5.2-16-10.3-31.9-15.8-47.8c-1.6-4.6-3.2-9.2-4.8-13.8C1324.8,970.5,1323.4,970.9,1323.7,971.8L1323.7,971.8z"/>
	</g>
	<g>
		<path fill="#15161A" d="M1327.9,969.1c4.7,16.2,11.4,31.8,17.1,47.7c1.6,4.5,3.3,9.1,4.9,13.6c0.3,0.9,1.8,0.5,1.4-0.4
			c-5.6-16-11.9-31.8-17.6-47.7c-1.6-4.5-3.1-9-4.4-13.5C1329.1,967.7,1327.7,968.1,1327.9,969.1L1327.9,969.1z"/>
	</g>
	<g>
		<path fill="#15161A" d="M1331.8,966.8c5.9,15.8,11.9,31.5,18,47.1c1.7,4.4,3.5,8.9,5.3,13.3c0.4,0.9,1.8,0.5,1.4-0.4
			c-6.2-15.6-12.3-31.3-18.3-47c-1.7-4.5-3.4-9-5-13.4C1332.9,965.5,1331.4,965.9,1331.8,966.8L1331.8,966.8z"/>
	</g>
	<g>
		<path fill="#15161A" d="M1335.1,965.6c6.7,15.4,13.2,30.8,19.4,46.4c1.8,4.4,3.5,8.8,5.2,13.2c0.3,0.9,1.8,0.5,1.4-0.4
			c-6.1-15.7-12.4-31.2-19-46.7c-1.9-4.4-3.8-8.9-5.7-13.3C1336,964,1334.7,964.7,1335.1,965.6L1335.1,965.6z"/>
	</g>
	<g>
		<path fill="#15161A" d="M1339.4,963.8c7.3,14.8,14.2,29.9,20.8,45c1.9,4.4,3.8,8.8,5.6,13.2c0.4,0.9,1.8,0.5,1.4-0.4
			c-6.4-15.4-13.2-30.6-20.3-45.7c-2-4.3-4.1-8.6-6.2-12.9C1340.2,962.1,1338.9,962.9,1339.4,963.8L1339.4,963.8z"/>
	</g>
	<g>
		<path fill="#15161A" d="M1344.2,962.6c6.5,15.2,13.3,30.2,20.7,45c2,4.1,4.5,8.2,5.9,12.6c0.3,0.9,1.7,0.5,1.4-0.4
			c-1.2-3.8-3.2-7.3-5-10.8c-1.9-3.8-3.7-7.5-5.5-11.3c-3.6-7.5-7.1-15.1-10.5-22.7c-1.9-4.4-3.8-8.7-5.7-13.1
			C1345.2,960.9,1343.9,961.7,1344.2,962.6L1344.2,962.6z"/>
	</g>
	<g>
		<path fill="#15161A" d="M1348.4,960.6c8.7,18.7,17.4,37.4,26.1,56.2c0.4,0.9,1.7,0.1,1.3-0.8c-8.7-18.7-17.4-37.4-26.1-56.2
			C1349.3,959,1348,959.7,1348.4,960.6L1348.4,960.6z"/>
	</g>
	<g>
		<path fill="#15161A" d="M1393.2,1001.7c-17.4,10-34.8,20-52.1,30c-0.8,0.5-0.1,1.8,0.8,1.3c17.4-10,34.8-20,52.1-30
			C1394.8,1002.5,1394.1,1001.2,1393.2,1001.7L1393.2,1001.7z"/>
	</g>
	<g>
		<path fill="#15161A" d="M1391.8,998.1c-6.9,3.3-13.5,7.3-19.7,11.8c-0.8,0.6,0,1.9,0.8,1.3c6.2-4.5,12.8-8.5,19.7-11.8
			C1393.4,999,1392.7,997.7,1391.8,998.1L1391.8,998.1z"/>
	</g>
	<g>
		<path fill="#15161A" d="M1390.7,993.6c-4.3,2.7-8.7,5.4-13,8.1c-0.8,0.5-0.1,1.8,0.8,1.3c4.3-2.7,8.7-5.4,13-8.1
			C1392.2,994.4,1391.5,993.1,1390.7,993.6L1390.7,993.6z"/>
	</g>
	<g>
		<path fill="#15161A" d="M1387.1,990.4c-3.2,2.1-6.4,4.2-9.5,6.3c-0.8,0.5-0.1,1.8,0.8,1.3c3.2-2.1,6.4-4.2,9.5-6.3
			C1388.6,991.2,1387.9,989.9,1387.1,990.4L1387.1,990.4z"/>
	</g>
	<g>
		<path fill="#15161A" d="M1384.3,988c-2.1,1.3-4.2,2.5-6.3,3.8c-0.8,0.5-0.1,1.8,0.8,1.3c2.1-1.3,4.2-2.5,6.3-3.8
			C1385.9,988.8,1385.2,987.5,1384.3,988L1384.3,988z"/>
	</g>
	<g>
		<path fill="#15161A" d="M1384,983.9c-1.3,1-2.7,2-4,3c-0.3,0.2-0.5,0.7-0.3,1c0.2,0.3,0.7,0.5,1,0.3c1.3-1,2.7-2,4-3
			c0.3-0.2,0.5-0.7,0.3-1C1384.8,983.9,1384.3,983.7,1384,983.9L1384,983.9z"/>
	</g>
	<g>
		<path fill="#15161A" d="M1366.4,955.9c-15.9,7.9-32.2,15-48.9,21.1c-4.7,1.7-9.5,3.4-14.3,5c-0.9,0.3-0.5,1.8,0.4,1.4
			c16.9-5.6,33.5-12.1,49.7-19.6c4.7-2.1,9.3-4.4,13.9-6.7C1368,956.8,1367.3,955.5,1366.4,955.9L1366.4,955.9z"/>
	</g>
	<g>
		<path fill="#15161A" d="M1085.4,857.8c-11.2,2.5-22.4,5.3-33.4,8.4c-0.9,0.3-0.5,1.7,0.4,1.4c11.1-3,22.2-5.8,33.4-8.4
			C1086.7,859.1,1086.3,857.6,1085.4,857.8L1085.4,857.8z"/>
	</g>
	<g>
		<path fill="#15161A" d="M1089.8,860.4c-7.6,2-15.2,4.3-22.6,7c-0.9,0.3-0.5,1.8,0.4,1.4c7.4-2.7,15-5,22.6-7
			C1091.1,861.6,1090.7,860.1,1089.8,860.4L1089.8,860.4z"/>
	</g>
	<g>
		<path fill="#15161A" d="M1100.2,860.4c-6.6,2.4-13.2,4.8-19.7,7.3c-0.9,0.3-0.5,1.8,0.4,1.4c6.5-2.5,13.1-4.9,19.7-7.3
			C1101.5,861.5,1101.1,860.1,1100.2,860.4L1100.2,860.4z"/>
	</g>
	<g>
		<path fill="#15161A" d="M1108.3,862.5c-6,2-11.7,4.5-17.3,7.5c-0.8,0.5-0.1,1.8,0.8,1.3c5.4-3,11.1-5.4,16.9-7.3
			C1109.6,863.6,1109.3,862.2,1108.3,862.5L1108.3,862.5z"/>
	</g>
	<g>
		<path fill="#15161A" d="M1121.5,862.6c0,0,0.1-0.1,0.1-0.1c-0.2,0.1-0.5,0.1-0.7,0.2c-0.1,0-0.1-0.1-0.2-0.1c0-0.3,0-0.5,0-0.8
			c-0.2,0.3-1,0.5-1.3,0.6c-0.4,0.2-0.8,0.3-1.2,0.5c-0.9,0.4-1.8,0.8-2.8,1.2c-1.7,0.7-3.4,1.5-5.1,2.2c-3.6,1.6-7.2,3.1-10.9,4.6
			c-0.9,0.4-0.5,1.8,0.4,1.4c4.4-1.9,8.8-3.7,13.2-5.6c2.2-0.9,4.3-1.9,6.5-2.8c0.7-0.3,2.1-0.6,2.4-1.4c0.3-0.6-0.1-1.1-0.7-1.3
			c-0.3-0.1-0.5,0-0.7,0.2c0,0-0.1,0.1-0.1,0.1C1119.7,862.2,1120.7,863.2,1121.5,862.6L1121.5,862.6z"/>
	</g>
	<g>
		<path fill="#15161A" d="M1040.1,896.7c-12.4,4.8-25.1,8.9-38,12.2c-0.9,0.2-0.5,1.7,0.4,1.4c12.9-3.3,25.6-7.4,38-12.2
			C1041.4,897.8,1041,896.4,1040.1,896.7L1040.1,896.7z"/>
	</g>
	<g>
		<path fill="#15161A" d="M1032.5,894.2c-11.6,4.4-23.3,8.5-35.2,12.1c-0.9,0.3-0.5,1.7,0.4,1.4c11.9-3.6,23.6-7.6,35.2-12.1
			C1033.8,895.3,1033.4,893.8,1032.5,894.2L1032.5,894.2z"/>
	</g>
	<g>
		<path fill="#15161A" d="M1021.8,892.8c-10.6,2.9-21.1,6.2-31.5,9.9c-0.9,0.3-0.5,1.8,0.4,1.4c10.4-3.6,20.9-6.9,31.5-9.9
			C1023.1,894,1022.7,892.5,1021.8,892.8L1021.8,892.8z"/>
	</g>
	<g>
		<path fill="#15161A" d="M1005.8,891.3c-10.9,3.1-21.7,6.1-32.7,9c-0.9,0.2-0.5,1.7,0.4,1.4c10.9-2.9,21.8-5.9,32.7-9
			C1007.2,892.5,1006.8,891,1005.8,891.3L1005.8,891.3z"/>
	</g>
	<g>
		<path fill="#15161A" d="M993.3,888.7c-12.4,3.2-24.8,6.4-37.2,9.6c-0.9,0.2-0.5,1.7,0.4,1.4c12.4-3.2,24.8-6.4,37.2-9.6
			C994.7,889.9,994.3,888.5,993.3,888.7L993.3,888.7z"/>
	</g>
	<g>
		<path fill="#15161A" d="M981.7,886.2c-12.4,3.1-24.8,6.4-37.1,10c-0.9,0.3-0.5,1.7,0.4,1.4c12.3-3.6,24.7-6.9,37.1-10
			C983.1,887.4,982.7,885.9,981.7,886.2L981.7,886.2z"/>
	</g>
	<g>
		<path fill="#15161A" d="M1191.1,915.2c-11.9,4.9-23.7,10.1-35.4,15.4c-0.9,0.4-0.1,1.7,0.8,1.3c11.6-5.3,23.3-10.3,35.1-15.2
			C1192.4,916.3,1192,914.8,1191.1,915.2L1191.1,915.2z"/>
	</g>
	<g>
		<path fill="#15161A" d="M1176.9,913.9c-11.2,4.7-22.5,9.4-33.4,14.8c-0.9,0.4-0.1,1.7,0.8,1.3c10.8-5.4,21.9-10.1,33-14.7
			C1178.1,915,1177.7,913.6,1176.9,913.9L1176.9,913.9z"/>
	</g>
	<g>
		<path fill="#15161A" d="M1163.6,910.7c-10.7,5.4-21.4,10.9-32.1,16.3c-0.9,0.4-0.1,1.7,0.8,1.3c10.7-5.4,21.4-10.9,32.1-16.3
			C1165.2,911.5,1164.5,910.2,1163.6,910.7L1163.6,910.7z"/>
	</g>
	<g>
		<path fill="#15161A" d="M1154.2,908.5c-11.3,5.6-22.5,11.2-33.8,16.7c-0.9,0.4-0.1,1.7,0.8,1.3c11.3-5.6,22.5-11.2,33.8-16.7
			C1155.8,909.4,1155,908.1,1154.2,908.5L1154.2,908.5z"/>
	</g>
	<g>
		<path fill="#15161A" d="M1143,907c-10.6,5.1-21.2,10.3-31.9,15.4c-0.9,0.4-0.1,1.7,0.8,1.3c10.6-5.1,21.2-10.3,31.9-15.4
			C1144.6,907.9,1143.9,906.6,1143,907L1143,907z"/>
	</g>
	<g>
		<path fill="#15161A" d="M1132.5,904.6c-11.9,6-23.7,12-35.6,17.9c-0.9,0.4-0.1,1.7,0.8,1.3c11.9-6,23.7-12,35.6-17.9
			C1134.2,905.5,1133.4,904.2,1132.5,904.6L1132.5,904.6z"/>
	</g>
	<g>
		<path fill="#15161A" d="M1120.6,903.3c-13.2,6.8-28,10.6-40.3,19.2c-0.8,0.5,0,1.8,0.8,1.3c12.3-8.6,27.1-12.3,40.3-19.2
			C1122.2,904.1,1121.5,902.8,1120.6,903.3L1120.6,903.3z"/>
	</g>
	<g>
		<path fill="#15161A" d="M1274.4,883.5c-8.6,3.9-17.4,7.4-26.4,10.3c-0.9,0.3-0.5,1.8,0.4,1.4c9.1-3,18-6.5,26.8-10.5
			C1276,884.4,1275.2,883.1,1274.4,883.5L1274.4,883.5z"/>
	</g>
	<g>
		<path fill="#15161A" d="M1263.5,882.1c-8.4,4.1-16.9,7.9-25.6,11.6c-0.9,0.4-0.5,1.8,0.4,1.4c8.7-3.7,17.4-7.6,25.9-11.7
			C1265.1,883,1264.3,881.7,1263.5,882.1L1263.5,882.1z"/>
	</g>
	<g>
		<path fill="#15161A" d="M1254.9,879.8c-8.9,4.4-17.8,8.7-26.8,12.8c-0.9,0.4-0.1,1.7,0.8,1.3c9-4.1,18-8.3,26.8-12.8
			C1256.5,880.6,1255.7,879.3,1254.9,879.8L1254.9,879.8z"/>
	</g>
	<g>
		<path fill="#15161A" d="M1245.9,877.7c-1.9,1.7-4.2,2.9-6.5,4c-2.6,1.2-5.1,2.4-7.7,3.7c-5.2,2.5-10.3,4.9-15.5,7.4
			c-0.9,0.4-0.1,1.7,0.8,1.3c5.3-2.5,10.6-5,15.9-7.6c4.7-2.3,10.1-4.2,14-7.7C1247.6,878.1,1246.6,877,1245.9,877.7L1245.9,877.7z"
			/>
	</g>
	<g>
		<path fill="#15161A" d="M1238.2,875.8c-9.5,4.9-19.2,9.7-28.8,14.3c-0.9,0.4-0.1,1.7,0.8,1.3c9.7-4.6,19.3-9.4,28.8-14.3
			C1239.8,876.7,1239.1,875.4,1238.2,875.8L1238.2,875.8z"/>
	</g>
	<g>
		<path fill="#15161A" d="M1228.9,875c-9.7,4.2-19.3,8.9-28.7,13.8c-0.9,0.5-0.1,1.7,0.8,1.3c9.4-5,19-9.6,28.7-13.8
			C1230.5,875.9,1229.8,874.6,1228.9,875L1228.9,875z"/>
	</g>
	<g>
		<path fill="#15161A" d="M1219.4,873c-10.8,4.3-21.4,9.1-31.9,14.2c-0.9,0.4-0.1,1.7,0.8,1.3c10.3-5.1,20.9-9.8,31.5-14.1
			C1220.7,874.1,1220.3,872.7,1219.4,873L1219.4,873z"/>
	</g>
	<g>
		<path fill="#15161A" d="M1342.5,952.6c-6.5,2.8-13,5.5-19.4,8.3c-3.2,1.4-6.4,2.7-9.6,4.1c-2.6,1.1-5.9,1.9-7.7,4.1
			c-0.6,0.7,0.4,1.8,1.1,1.1c0.9-1.1,2.1-1.6,3.4-2.2c1.6-0.7,3.2-1.3,4.7-2c3.1-1.3,6.2-2.7,9.4-4c6.3-2.7,12.7-5.4,19-8.1
			C1344.2,953.6,1343.4,952.3,1342.5,952.6L1342.5,952.6z"/>
	</g>
	<g>
		<path fill="#15161A" d="M1331.2,951.1c-10.8,4.7-21.5,9.6-32.2,14.7c-0.9,0.4-0.1,1.7,0.8,1.3c10.7-5,21.4-9.9,32.2-14.7
			C1332.8,952,1332,950.7,1331.2,951.1L1331.2,951.1z"/>
	</g>
	<g>
		<path fill="#15161A" d="M1321.1,948.7c-11.7,4.5-23.1,9.6-34.3,15.3c-0.9,0.4-0.1,1.7,0.8,1.3c11.1-5.6,22.4-10.6,34-15.1
			C1322.4,949.8,1322,948.4,1321.1,948.7L1321.1,948.7z"/>
	</g>
	<g>
		<path fill="#15161A" d="M1310.6,946.6c-11.3,5-22.7,9.8-34.2,14.3c-0.9,0.3-0.5,1.8,0.4,1.4c11.6-4.5,23.1-9.4,34.5-14.5
			C1312.2,947.5,1311.4,946.2,1310.6,946.6L1310.6,946.6z"/>
	</g>
	<g>
		<path fill="#15161A" d="M1299.4,944.8c-13.3,6-26.5,12-39.8,18.1c-0.9,0.4-0.1,1.7,0.8,1.3c13.3-6,26.5-12,39.8-18.1
			C1301.1,945.7,1300.3,944.4,1299.4,944.8L1299.4,944.8z"/>
	</g>
	<g>
		<path fill="#15161A" d="M1284.9,942.5c-11.4,5.9-22.8,11.7-34.4,17.4c-0.9,0.4-0.1,1.7,0.8,1.3c11.5-5.7,23-11.5,34.4-17.4
			C1286.5,943.4,1285.8,942.1,1284.9,942.5L1284.9,942.5z"/>
	</g>
	<g>
		<path fill="#15161A" d="M1273.8,940.6c-10,5.7-20.2,10.9-30.5,15.8c-0.9,0.4-0.1,1.7,0.8,1.3c10.4-4.9,20.6-10.1,30.5-15.8
			C1275.4,941.4,1274.6,940.1,1273.8,940.6L1273.8,940.6z"/>
	</g>
	<g>
		<path fill="#15161A" d="M1263,941c-8.7,4.2-17.1,8.9-25.2,14.1c-0.8,0.5-0.1,1.8,0.8,1.3c8.1-5.2,16.6-9.9,25.2-14.1
			C1264.7,941.9,1263.9,940.6,1263,941L1263,941z"/>
	</g>
	<g>
		<path fill="#15161A" d="M1440.8,903.1c-10.2,6-20.3,12-30.5,18.1c-0.8,0.5-0.1,1.8,0.8,1.3c10.2-6,20.3-12,30.5-18.1
			C1442.4,903.9,1441.7,902.6,1440.8,903.1L1440.8,903.1z"/>
	</g>
	<g>
		<path fill="#15161A" d="M1429.3,901.6c-8.3,5.3-16.6,10.6-25,15.8c-0.8,0.5-0.1,1.8,0.8,1.3c8.4-5.2,16.7-10.5,25-15.8
			C1430.9,902.4,1430.1,901.1,1429.3,901.6L1429.3,901.6z"/>
	</g>
	<g>
		<path fill="#15161A" d="M1417.7,901.9c-7.3,5-14.5,10-21.8,15c-0.8,0.5,0,1.8,0.8,1.3c7.3-5,14.5-10,21.8-15
			C1419.3,902.6,1418.5,901.3,1417.7,901.9L1417.7,901.9z"/>
	</g>
	<g>
		<path fill="#15161A" d="M1411.4,898.5c-7.9,6.1-16.1,12-24.5,17.5c-0.8,0.5-0.1,1.8,0.8,1.3c8.4-5.5,16.5-11.4,24.5-17.5
			C1412.9,899.3,1412.2,898,1411.4,898.5L1411.4,898.5z"/>
	</g>
	<g>
		<path fill="#15161A" d="M1401.6,898.5c-7.4,5.1-14.8,10.2-22.2,15.2c-0.8,0.5,0,1.8,0.8,1.3c7.4-5,14.8-10.1,22.2-15.2
			C1403.2,899.2,1402.4,897.9,1401.6,898.5L1401.6,898.5z"/>
	</g>
	<g>
		<path fill="#15161A" d="M1391.8,896.7c-6.9,4.7-13.8,9.4-20.8,14.2c-0.8,0.5,0,1.8,0.8,1.3c6.9-4.7,13.8-9.4,20.8-14.2
			C1393.3,897.5,1392.6,896.2,1391.8,896.7L1391.8,896.7z"/>
	</g>
	<g>
		<path fill="#15161A" d="M1379.2,896.8c-8.4,5.8-16.8,11.9-24.9,18.1c-0.8,0.6,0,1.9,0.8,1.3c8.2-6.2,16.5-12.3,24.9-18.1
			C1380.8,897.5,1380,896.2,1379.2,896.8L1379.2,896.8z"/>
	</g>
	<g>
		<path fill="#15161A" d="M1371.5,894c-0.5,1.1-1.5,1.7-2.4,2.4c-1,0.7-2.1,1.5-3.1,2.2c-2,1.5-4,2.9-6.1,4.4
			c-4.1,2.9-8.2,5.9-12.3,8.8c-0.8,0.6,0,1.9,0.8,1.3c4.4-3.1,8.7-6.3,13.1-9.4c2.1-1.5,4.3-3.1,6.4-4.6c1.7-1.2,4-2.4,4.9-4.4
			C1373.2,893.9,1371.9,893.2,1371.5,894L1371.5,894z"/>
	</g>
	<g>
		<path fill="#15161A" d="M1361,893.6c-7.6,6.4-16.9,10.3-23.9,17.3c-0.7,0.7,0.4,1.7,1.1,1.1c7-7,16.4-11,23.9-17.3
			C1362.8,894.1,1361.7,893,1361,893.6L1361,893.6z"/>
	</g>
	<g>
		<path fill="#15161A" d="M1353.8,890.7c-9,6.6-18.1,13.1-27.1,19.7c-0.8,0.6,0,1.9,0.8,1.3c9-6.6,18.1-13.1,27.1-19.7
			C1355.4,891.4,1354.6,890.1,1353.8,890.7L1353.8,890.7z"/>
	</g>
	<g>
		<path fill="#15161A" d="M1342.4,890.4c-9.5,5.9-18.9,12-28.2,18.2c-0.8,0.5,0,1.8,0.8,1.3c9.3-6.2,18.7-12.3,28.2-18.2
			C1344,891.2,1343.2,889.9,1342.4,890.4L1342.4,890.4z"/>
	</g>
	<g>
		<path fill="#15161A" d="M1155.1,890.8c-2.2,3.7-4.1,7.5-5.8,11.5c-0.2,0.4,0.2,0.8,0.5,0.9c0.4,0.1,0.8-0.2,0.9-0.5
			c1.6-3.9,3.5-7.6,5.6-11.2C1156.9,890.7,1155.6,890,1155.1,890.8L1155.1,890.8z"/>
	</g>
	<g>
		<path fill="#15161A" d="M1294.3,915.9c-3.2,6.5-6.2,13.1-9,19.8c-0.4,0.9,1.1,1.3,1.4,0.4c2.8-6.6,5.7-13.1,8.9-19.5
			C1296,915.7,1294.7,915,1294.3,915.9L1294.3,915.9z"/>
	</g>
	<g>
		<path fill="#15161A" d="M1180.5,1005.8c-7.8,4.9-15.8,9.5-24,13.6c-0.9,0.4-0.1,1.7,0.8,1.3c8.2-4.1,16.2-8.7,24-13.6
			C1182.1,1006.6,1181.3,1005.3,1180.5,1005.8L1180.5,1005.8z"/>
	</g>
	<g>
		<path fill="#15161A" d="M1180.9,1009.9c-4,2.5-7.9,4.9-11.9,7.4c-0.8,0.5-0.1,1.8,0.8,1.3c4-2.5,7.9-4.9,11.9-7.4
			C1182.5,1010.7,1181.7,1009.4,1180.9,1009.9L1180.9,1009.9z"/>
	</g>
	<g>
		<path fill="#15161A" d="M1178.3,1015.5c-1.6,1-3.2,2-4.8,3c-0.3,0.2-0.5,0.7-0.3,1c0.2,0.3,0.7,0.5,1,0.3c1.6-1,3.2-2,4.8-3
			c0.3-0.2,0.5-0.7,0.3-1C1179.1,1015.4,1178.6,1015.2,1178.3,1015.5L1178.3,1015.5z"/>
	</g>
	<g>
		<path fill="#15161A" d="M1399.1,1007.7c-22,12.8-43.6,26.1-65.7,38.8c-6,3.5-12.1,6.9-18.2,10.3c-0.8,0.5-0.1,1.8,0.8,1.3
			c22.3-12.2,44-25.4,65.9-38.5c6-3.6,12-7.1,18-10.7C1400.6,1008.5,1399.9,1007.2,1399.1,1007.7L1399.1,1007.7z"/>
	</g>
	<g>
		<path fill="#15161A" d="M1423.7,1009.9c-7.4,4.1-14.7,8.4-22.1,12.5c-7.1,4-14.3,7.7-21.5,11.4c-13.1,6.8-25.8,14.4-38.5,21.9
			c-6.9,4.1-13.7,8.1-20.6,12.1c-0.8,0.5-0.1,1.8,0.8,1.3c12.7-7.3,25.1-14.9,37.8-22.2c6.3-3.7,12.7-7.2,19.1-10.7
			c7-3.7,14.1-7.3,21-11.1c8.3-4.6,16.6-9.4,24.9-14C1425.3,1010.7,1424.5,1009.4,1423.7,1009.9L1423.7,1009.9z"/>
	</g>
	<g>
		<path fill="#15161A" d="M1413.9,1009.8c-13,7.9-26.5,15-39.9,22.1c-6.4,3.4-12.9,6.7-19.1,10.3c-5.7,3.3-11.2,6.8-16.8,10.3
			c-6.2,3.9-12.3,7.9-18.7,11.5c-0.8,0.5-0.1,1.8,0.8,1.3c11.4-6.5,22.2-14.1,33.5-20.7c12.6-7.4,25.8-13.8,38.6-20.7
			c7.6-4.1,15-8.3,22.4-12.7C1415.4,1010.6,1414.7,1009.3,1413.9,1009.8L1413.9,1009.8z"/>
	</g>
	<g>
		<path fill="#15161A" d="M1405.4,1009.8c-8.7,4.7-17.4,9.5-26.1,14.2c-8,4.4-16.2,8.6-24.1,13.1c-2.9,1.6-5.7,3.5-8.5,5.2
			c-4.9,3-9.8,6.1-14.7,9.1c-4.8,2.9-9.6,5.9-14.6,8.6c-0.8,0.5-0.1,1.8,0.8,1.3c9.4-5.2,18.5-11,27.6-16.7c3.2-2,6.4-4,9.7-6
			c2.8-1.6,5.6-3.1,8.4-4.6c4.3-2.3,8.5-4.6,12.8-7c9.8-5.3,19.6-10.7,29.4-16C1407.1,1010.6,1406.3,1009.3,1405.4,1009.8
			L1405.4,1009.8z"/>
	</g>
	<g>
		<path fill="#15161A" d="M1513.1,959.9c3.3,16.3,6.4,32.6,8.6,49.1c0.6,4.7,1.2,9.5,1.7,14.2c0.1,1,1.6,1,1.5,0
			c-1.8-16.6-4.3-33.2-7.5-49.6c-0.9-4.7-1.9-9.4-2.8-14.1C1514.4,958.6,1512.9,959,1513.1,959.9L1513.1,959.9z"/>
	</g>
	<g>
		<path fill="#15161A" d="M1510.3,963c-0.5,4.1-0.1,8.2,0.6,12.2c0.7,4.3,1.6,8.6,2.4,12.9c1.5,8.6,2.8,17.3,3.8,26
			c0.6,4.9,1.1,9.9,1.6,14.9c0.1,1,1.6,1,1.5,0c-1.6-17.2-4.1-34.3-7.3-51.3c-0.9-4.8-1.7-9.7-1-14.7
			C1511.9,962,1510.4,962,1510.3,963L1510.3,963z"/>
	</g>
	<g>
		<path fill="#15161A" d="M1503,966.3c3.4,17.1,6.1,34.3,8.9,51.5c0.8,4.8,1.6,9.7,2.3,14.5c0.2,1,1.6,0.5,1.4-0.4
			c-2.8-17.2-5.4-34.4-8.4-51.5c-0.9-4.9-1.8-9.7-2.8-14.5C1504.3,965,1502.9,965.4,1503,966.3L1503,966.3z"/>
	</g>
	<g>
		<path fill="#15161A" d="M1497.5,972.4c2.9,7.6,4,15.9,5.3,24c1.4,8.6,2.6,17.2,3.6,25.8c0.6,4.8,1.1,9.6,1.5,14.4
			c0.1,1,1.6,1,1.5,0c-1.6-17.1-3.8-34.2-6.9-51.1c-0.8-4.6-1.9-9.1-3.5-13.5C1498.6,971.1,1497.2,971.5,1497.5,972.4L1497.5,972.4z
			"/>
	</g>
	<g>
		<path fill="#15161A" d="M1493.7,973.6c1.3,8.5,2.6,17,3.9,25.4c1.3,8.6,2.8,17.2,3.9,25.8c0.6,4.7,0.9,9.5,0.6,14.2
			c-0.1,1,1.4,1,1.5,0c0.6-8.5-1-16.9-2.2-25.3c-1.3-8.6-2.7-17.3-4-25.9c-0.8-4.9-1.5-9.8-2.3-14.7
			C1495,972.3,1493.6,972.7,1493.7,973.6L1493.7,973.6z"/>
	</g>
	<g>
		<path fill="#15161A" d="M1489.5,977c2.7,16.7,4.9,33.5,6.4,50.3c0.4,4.8,0.8,9.6,1.2,14.5c0.1,1,1.6,1,1.5,0
			c-1.2-17-3-34-5.5-50.8c-0.7-4.8-1.4-9.6-2.2-14.3C1490.8,975.6,1489.3,976,1489.5,977L1489.5,977z"/>
	</g>
	<g>
		<path fill="#15161A" d="M1485.5,977.9c2.1,17.4,3.8,34.9,5.1,52.5c0.4,5,0.7,10,1,15.1c0.1,1,1.6,1,1.5,0
			c-1.1-17.5-2.6-35.1-4.4-52.5c-0.5-5-1.1-10-1.7-15C1486.8,977,1485.3,977,1485.5,977.9L1485.5,977.9z"/>
	</g>
	<g>
		<path fill="#15161A" d="M1481.6,981.7c1.3,17.4,2.5,34.7,3.8,52.1c0.4,4.9,0.7,9.8,1.1,14.7c0.1,1,1.6,1,1.5,0
			c-1.3-17.4-2.5-34.7-3.8-52.1c-0.4-4.9-0.7-9.8-1.1-14.7C1483,980.7,1481.5,980.7,1481.6,981.7L1481.6,981.7z"/>
	</g>
	<g>
		<path fill="#15161A" d="M1477.1,984.6c1.1,17.6,2.2,35.2,3.2,52.8c0.3,5,0.6,10.1,0.9,15.1c0.1,1,1.6,1,1.5,0
			c-1.1-17.6-2.2-35.2-3.2-52.8c-0.3-5-0.6-10.1-0.9-15.1C1478.5,983.6,1477,983.6,1477.1,984.6L1477.1,984.6z"/>
	</g>
	<g>
		<path fill="#15161A" d="M1472.7,986.1c1,18,1.9,36,2.9,54c0.3,5.1,0.5,10.2,0.8,15.4c0.1,1,1.6,1,1.5,0c-1-18-1.9-36-2.9-54
			c-0.3-5.1-0.5-10.2-0.8-15.4C1474.2,985.1,1472.7,985.1,1472.7,986.1L1472.7,986.1z"/>
	</g>
	<g>
		<path fill="#15161A" d="M1321.2,1074c2.2,18.6,3.8,37.3,4.7,56c0.3,5.4,0.5,10.7,0.6,16.1c0,1,1.5,1,1.5,0
			c-0.5-18.7-1.7-37.4-3.6-56.1c-0.5-5.3-1.1-10.7-1.7-16C1322.6,1073.1,1321.1,1073.1,1321.2,1074L1321.2,1074z"/>
	</g>
	<g>
		<path fill="#15161A" d="M1326.2,1073.3c1.6,19,3.2,38,4.7,57c0.4,5.2,0.8,10.5,1.7,15.7c0.2,1,1.6,0.5,1.4-0.4
			c-1.5-9.3-1.9-18.8-2.7-28.2c-0.8-9.4-1.6-18.8-2.3-28.1c-0.4-5.3-0.9-10.6-1.3-15.9C1327.6,1072.4,1326.1,1072.3,1326.2,1073.3
			L1326.2,1073.3z"/>
	</g>
	<g>
		<path fill="#15161A" d="M1331.2,1070c2.4,18.3,4.4,36.6,5.8,55c0.4,5.2,0.8,10.4,1.1,15.6c0.1,1,1.6,1,1.5,0
			c-1.1-18.4-2.8-36.7-4.9-55c-0.6-5.2-1.3-10.3-2-15.5C1332.5,1069,1331,1069,1331.2,1070L1331.2,1070z"/>
	</g>
	<g>
		<path fill="#15161A" d="M1336.1,1067.4c2.3,17.9,4.6,35.9,6.8,53.8c0.6,5.1,1.3,10.2,1.9,15.3c0.1,0.9,1.6,1,1.5,0
			c-2.3-17.9-4.6-35.9-6.8-53.8c-0.6-5.1-1.3-10.2-1.9-15.3C1337.5,1066.4,1336,1066.4,1336.1,1067.4L1336.1,1067.4z"/>
	</g>
	<g>
		<path fill="#15161A" d="M1340.5,1064.3c2.7,17.8,5.5,35.7,8.2,53.5c0.8,5.1,1.6,10.1,2.3,15.2c0.1,1,1.6,0.5,1.4-0.4
			c-2.7-17.8-5.5-35.7-8.2-53.5c-0.8-5.1-1.6-10.1-2.3-15.2C1341.8,1062.9,1340.3,1063.3,1340.5,1064.3L1340.5,1064.3z"/>
	</g>
	<g>
		<path fill="#15161A" d="M1344.2,1061.3c3.1,17.3,6.1,34.5,9.2,51.8c0.9,4.9,1.7,9.8,2.6,14.7c0.2,0.9,1.6,0.5,1.4-0.4
			c-3.1-17.3-6.1-34.5-9.2-51.8c-0.9-4.9-1.7-9.8-2.6-14.7C1345.5,1059.9,1344,1060.3,1344.2,1061.3L1344.2,1061.3z"/>
	</g>
	<g>
		<path fill="#15161A" d="M1348.5,1060.2c3.3,17.3,6.7,34.5,10,51.8c1,4.9,1.9,9.8,2.9,14.7c0.2,0.9,1.6,0.5,1.4-0.4
			c-3.4-17.3-6.7-34.6-10.1-51.9c-0.9-4.9-1.9-9.7-2.8-14.6C1349.8,1058.9,1348.3,1059.3,1348.5,1060.2L1348.5,1060.2z"/>
	</g>
	<g>
		<path fill="#15161A" d="M1353.7,1056.4c3.2,17.1,6.4,34.2,9.6,51.2c0.9,4.8,1.8,9.6,2.7,14.5c0.2,0.9,1.6,0.5,1.4-0.4
			c-3.2-17.1-6.4-34.2-9.6-51.2c-0.9-4.8-1.8-9.6-2.7-14.5C1355,1055.1,1353.5,1055.5,1353.7,1056.4L1353.7,1056.4z"/>
	</g>
	<g>
		<path fill="#15161A" d="M1359.3,1054.2c3.4,17.3,6.8,34.5,10.2,51.8c1,4.9,1.9,9.8,2.8,14.7c0.2,0.9,1.6,0.5,1.4-0.4
			c-3.3-17.3-6.7-34.6-10.2-51.8c-1-4.9-1.9-9.8-2.9-14.7C1360.5,1052.8,1359.1,1053.2,1359.3,1054.2L1359.3,1054.2z"/>
	</g>
	<g>
		<path fill="#15161A" d="M1467.4,991.7c1.4,16.9,2.7,33.7,4.1,50.6c0.4,4.8,0.8,9.6,1.2,14.4c0.1,1,1.6,1,1.5,0
			c-1.4-16.9-2.7-33.7-4.1-50.6c-0.4-4.8-0.8-9.6-1.2-14.4C1468.8,990.7,1467.3,990.7,1467.4,991.7L1467.4,991.7z"/>
	</g>
	<g>
		<path fill="#15161A" d="M1461.9,994.8c2.3,17.2,4,34.4,5.2,51.7c0.3,4.8,0.6,9.7,0.8,14.6c0,1,1.5,1,1.5,0
			c-0.8-17.4-2.3-34.9-4.3-52.2c-0.6-4.8-1.2-9.6-1.8-14.4C1463.2,993.5,1461.7,993.9,1461.9,994.8L1461.9,994.8z"/>
	</g>
	<g>
		<path fill="#15161A" d="M1457.7,997.2c1.6,17.3,3.2,34.6,4.8,52c0.5,4.9,0.9,9.9,1.4,14.8c0.1,1,1.6,1,1.5,0
			c-1.6-17.3-3.2-34.6-4.8-52c-0.5-4.9-0.9-9.9-1.4-14.8C1459.1,996.3,1457.6,996.3,1457.7,997.2L1457.7,997.2z"/>
	</g>
	<g>
		<path fill="#15161A" d="M1452.2,1000.8c2.5,17,4.4,34.1,6,51.2c0.4,4.9,0.8,9.7,1.2,14.6c0.1,1,1.6,1,1.5,0
			c-1.2-17.3-3-34.6-5.2-51.8c-0.6-4.8-1.3-9.6-2-14.4C1453.6,999.5,1452.1,999.9,1452.2,1000.8L1452.2,1000.8z"/>
	</g>
	<g>
		<path fill="#15161A" d="M1447.2,1004.1c2.4,16.8,4.2,33.6,5.5,50.4c0.4,4.8,0.7,9.5,1,14.3c0.1,1,1.6,1,1.5,0c-1-17-2.5-34-4.6-51
			c-0.6-4.7-1.2-9.5-1.9-14.2C1448.6,1002.8,1447.1,1003.2,1447.2,1004.1L1447.2,1004.1z"/>
	</g>
	<g>
		<path fill="#15161A" d="M1441.5,1005.8c1.7,17.3,3.5,34.5,5.2,51.8c0.5,4.9,1,9.7,1.5,14.6c0.1,1,1.6,1,1.5,0
			c-1.7-17.3-3.5-34.5-5.2-51.8c-0.5-4.9-1-9.7-1.5-14.6C1442.9,1004.8,1441.4,1004.8,1441.5,1005.8L1441.5,1005.8z"/>
	</g>
	<g>
		<path fill="#15161A" d="M1438,1010.2c1,0,1-1.5,0-1.5C1437,1008.7,1437,1010.2,1438,1010.2L1438,1010.2z"/>
	</g>
	<g>
		<path fill="#15161A" d="M1434.9,1011.2c1.7,16.9,3.3,33.8,5,50.7c0.5,4.8,0.9,9.6,1.4,14.4c0.1,1,1.6,1,1.5,0
			c-1.7-16.9-3.3-33.8-5-50.7c-0.5-4.8-0.9-9.6-1.4-14.4C1436.3,1010.2,1434.8,1010.2,1434.9,1011.2L1434.9,1011.2z"/>
	</g>
	<g>
		<path fill="#15161A" d="M1428.1,1014c2.1,17,4.5,34,6,51.1c0.4,4.8,0.7,9.7,0.9,14.5c0,1,1.5,1,1.5,0c-0.7-17.2-3-34.2-5.1-51.2
			c-0.6-4.8-1.2-9.6-1.8-14.4C1429.5,1013.1,1428,1013.1,1428.1,1014L1428.1,1014z"/>
	</g>
	<g>
		<path fill="#15161A" d="M1423,1017.8c1.2,16.9,3.7,33.6,6,50.3c0.7,4.8,1.3,9.6,2,14.4c0.1,1,1.6,0.5,1.4-0.4
			c-2.3-16.7-4.8-33.4-6.6-50.2c-0.5-4.7-1-9.5-1.3-14.2C1424.4,1016.9,1422.9,1016.9,1423,1017.8L1423,1017.8z"/>
	</g>
	<g>
		<path fill="#15161A" d="M1417.6,1019.5c0.7,17.3,2.9,34.5,5,51.6c0.6,4.9,1.2,9.7,1.8,14.6c0.1,0.9,1.6,1,1.5,0
			c-2.1-17.2-4.5-34.3-5.9-51.6c-0.4-4.9-0.7-9.7-0.9-14.6C1419,1018.5,1417.5,1018.5,1417.6,1019.5L1417.6,1019.5z"/>
	</g>
	<g>
		<path fill="#15161A" d="M1412.3,1022.3c-0.5,8.9,0.4,17.7,1.5,26.4c1.1,8.8,2.2,17.5,3.3,26.3c0.6,5,1.3,10.1,1.9,15.1
			c0.1,0.9,1.6,1,1.5,0c-1.1-8.8-2.2-17.7-3.4-26.5c-1.1-8.7-2.4-17.4-3.1-26.2c-0.4-5-0.6-10.1-0.3-15.1
			C1413.8,1021.3,1412.3,1021.3,1412.3,1022.3L1412.3,1022.3z"/>
	</g>
	<g>
		<path fill="#15161A" d="M1404.2,1028.6c3,16.5,5.5,33,7.6,49.6c0.6,4.7,1.1,9.5,1.7,14.2c0.1,0.9,1.6,1,1.5,0
			c-1.8-16.7-4.1-33.3-6.8-49.8c-0.8-4.8-1.6-9.6-2.5-14.3C1405.5,1027.3,1404,1027.7,1404.2,1028.6L1404.2,1028.6z"/>
	</g>
	<g>
		<path fill="#15161A" d="M1363.4,1051.5c3.2,16.7,6.4,33.4,9.6,50.1c0.9,4.8,1.8,9.6,2.8,14.4c0.2,0.9,1.6,0.5,1.4-0.4
			c-3.2-16.7-6.4-33.4-9.6-50.1c-0.9-4.8-1.8-9.6-2.8-14.4C1364.6,1050.2,1363.2,1050.6,1363.4,1051.5L1363.4,1051.5z"/>
	</g>
	<g>
		<path fill="#15161A" d="M1368.4,1047.9c2,17.1,6.2,33.9,10,50.6c1.1,4.9,2.2,9.7,3.3,14.6c0.2,0.9,1.7,0.5,1.4-0.4
			c-3.8-16.7-8-33.4-11-50.3c-0.9-4.8-1.6-9.6-2.2-14.5C1369.8,1047,1368.3,1046.9,1368.4,1047.9L1368.4,1047.9z"/>
	</g>
	<g>
		<path fill="#15161A" d="M1372.9,1045.8c3.6,16.3,7.1,32.6,10.4,48.9c1,4.7,1.9,9.4,2.8,14.1c0.2,0.9,1.6,0.5,1.4-0.4
			c-3.2-16.3-6.6-32.7-10.1-48.9c-1-4.7-2-9.3-3.1-14C1374.1,1044.5,1372.7,1044.9,1372.9,1045.8L1372.9,1045.8z"/>
	</g>
	<g>
		<path fill="#15161A" d="M1379.3,1042.1c2.9,16.9,5.9,33.7,8.7,50.6c0.8,4.8,1.6,9.6,2.4,14.4c0.2,0.9,1.6,0.5,1.4-0.4
			c-2.8-16.9-5.7-33.8-8.7-50.6c-0.8-4.8-1.7-9.6-2.5-14.4C1380.6,1040.7,1379.2,1041.1,1379.3,1042.1L1379.3,1042.1z"/>
	</g>
	<g>
		<path fill="#15161A" d="M1384.3,1041c3,16.5,5.9,32.9,8.9,49.4c0.8,4.7,1.7,9.3,2.5,14c0.2,0.9,1.6,0.5,1.4-0.4
			c-3-16.5-5.9-32.9-8.9-49.4c-0.8-4.7-1.7-9.3-2.5-14C1385.6,1039.6,1384.2,1040,1384.3,1041L1384.3,1041z"/>
	</g>
	<g>
		<path fill="#15161A" d="M1388.9,1037.5c2.8,16.5,5.7,32.9,8.5,49.4c0.8,4.7,1.6,9.3,2.4,14c0.2,0.9,1.6,0.5,1.4-0.4
			c-2.8-16.5-5.7-32.9-8.5-49.4c-0.8-4.7-1.6-9.3-2.4-14C1390.2,1036.1,1388.8,1036.5,1388.9,1037.5L1388.9,1037.5z"/>
	</g>
	<g>
		<path fill="#15161A" d="M1393.4,1034.2c2.8,16.9,5.3,33.8,7.6,50.7c0.7,4.9,1.3,9.8,2,14.8c0.1,0.9,1.6,1,1.5,0
			c-2.2-17.1-4.7-34.2-7.3-51.2c-0.8-4.9-1.5-9.8-2.3-14.7C1394.7,1032.9,1393.3,1033.3,1393.4,1034.2L1393.4,1034.2z"/>
	</g>
	<g>
		<path fill="#15161A" d="M1398.6,1031.4c2.4,17.2,4.8,34.4,7.2,51.6c0.7,4.9,1.4,9.7,2,14.6c0.1,1,1.6,0.5,1.4-0.4
			c-2.4-17.2-4.8-34.4-7.2-51.6c-0.7-4.9-1.4-9.7-2-14.6C1400,1030.1,1398.5,1030.5,1398.6,1031.4L1398.6,1031.4z"/>
	</g>
	<g>
		<path fill="#15161A" d="M1420.4,994.1c-9.6-1.5-19.3-2.9-28.9-4.4c-1.9-0.3-2.7,2.6-0.8,2.9c9.6,1.5,19.3,2.9,28.9,4.4
			C1421.5,997.3,1422.3,994.4,1420.4,994.1L1420.4,994.1z"/>
	</g>
	<g>
		<path fill="#15161A" d="M1145.6,957.1c0.6,19.8,0.7,39.5,0.3,59.3c0,1,1.5,1,1.5,0c0.4-19.8,0.3-39.5-0.3-59.3
			C1147.1,956.1,1145.6,956.1,1145.6,957.1L1145.6,957.1z"/>
	</g>
	<g>
		<path fill="#15161A" d="M1141.8,998.1c0,6.4,0,12.8,0,19.2c0,1,1.5,1,1.5,0c0-6.4,0-12.8,0-19.2
			C1143.3,997.1,1141.8,997.1,1141.8,998.1L1141.8,998.1z"/>
	</g>
	<g>
		<path fill="#15161A" d="M1137.7,1006.4c0,3.1,0,6.1,0,9.2c0,1,1.5,1,1.5,0c0-3.1,0-6.1,0-9.2
			C1139.2,1005.4,1137.7,1005.4,1137.7,1006.4L1137.7,1006.4z"/>
	</g>
	<g>
		<path fill="#15161A" d="M1133.5,1007.2c0,2.5,0,5,0,7.5c0,1,1.5,1,1.5,0c0-2.5,0-5,0-7.5C1135,1006.3,1133.5,1006.3,1133.5,1007.2
			L1133.5,1007.2z"/>
	</g>
	<g>
		<path fill="#15161A" d="M1293.8,984.1c2.3,16.9,4.5,33.7,6.7,50.6c0.6,4.8,1.2,9.5,1.8,14.3c0.1,0.9,1.6,1,1.5,0
			c-2.1-17-4.4-34.1-6.6-51.1c-0.6-4.8-1.3-9.5-1.9-14.3C1295.1,982.7,1293.6,983.1,1293.8,984.1L1293.8,984.1z"/>
	</g>
	<g>
		<path fill="#15161A" d="M1292.9,1022.3c1.1,8.9,2.2,17.8,3.3,26.7c0.1,0.9,1.6,1,1.5,0c-1.1-8.9-2.2-17.8-3.3-26.7
			C1294.2,1021.4,1292.7,1021.3,1292.9,1022.3L1292.9,1022.3z"/>
	</g>
	<g>
		<path fill="#15161A" d="M1289.3,1033.4c0.8,5,1.5,10,2.3,14.9c0.1,1,1.6,0.5,1.4-0.4c-0.8-5-1.5-10-2.3-14.9
			C1290.6,1032,1289.2,1032.4,1289.3,1033.4L1289.3,1033.4z"/>
	</g>
	<g>
		<path fill="#15161A" d="M1285.7,1035.5c-1,3.6-0.5,7.5,1.3,10.7c0.5,0.8,1.8,0.1,1.3-0.8c-1.6-2.9-2-6.4-1.1-9.6
			C1287.4,1035,1286,1034.6,1285.7,1035.5L1285.7,1035.5z"/>
	</g>
	<g>
		<path fill="#15161A" d="M1407.3,939.6c2.1,18.7,4.1,37.3,6.2,56c0.1,0.9,1.6,1,1.5,0c-2.1-18.7-4.1-37.3-6.2-56
			C1408.6,938.7,1407.1,938.6,1407.3,939.6L1407.3,939.6z"/>
	</g>
	<g>
		<path fill="#15161A" d="M1404.1,962.4c2.3,10.1,3.4,20.4,3.4,30.7c0,1,1.5,1,1.5,0c0.1-10.5-1.1-20.9-3.4-31.1
			C1405.3,961,1403.9,961.4,1404.1,962.4L1404.1,962.4z"/>
	</g>
	<g>
		<path fill="#15161A" d="M1401.4,971.3c0.7,7.5,1.4,15,2.1,22.5c0.1,1,1.6,1,1.5,0c-0.7-7.5-1.4-15-2.1-22.5
			C1402.8,970.4,1401.3,970.4,1401.4,971.3L1401.4,971.3z"/>
	</g>
	<g>
		<path fill="#15161A" d="M1397.6,979.9c0.6,3.9,1.1,7.8,1.7,11.7c0.1,0.4,0.6,0.6,0.9,0.5c0.4-0.1,0.6-0.5,0.5-0.9
			c-0.6-3.9-1.1-7.8-1.7-11.7c-0.1-0.4-0.6-0.6-0.9-0.5C1397.7,979,1397.5,979.5,1397.6,979.9L1397.6,979.9z"/>
	</g>
	<g>
		<path fill="#15161A" d="M998.6,927.3c1.8,10.3,3.6,20.5,5.4,30.8c0.9,5.1,1.8,10.2,2.7,15.4c0.8,4.6,1.4,9.5,3.7,13.7
			c0.5,0.8,1.8,0.1,1.3-0.8c-2.4-4.2-2.8-9.2-3.6-13.8c-0.9-5.1-1.8-10.2-2.7-15.4c-1.8-10.1-3.6-20.2-5.3-30.3
			C999.9,926,998.4,926.4,998.6,927.3L998.6,927.3z"/>
	</g>
	<g>
		<path fill="#15161A" d="M997.2,942.1c0.9,14.7,3.1,29.2,6.4,43.5c0.2,0.9,1.7,0.5,1.4-0.4c-3.4-14.2-5.5-28.6-6.4-43.1
			C998.6,941.1,997.1,941.1,997.2,942.1L997.2,942.1z"/>
	</g>
	<g>
		<path fill="#15161A" d="M994.3,955.5c-0.5,9.5,1,19,4.2,27.9c0.3,0.9,1.8,0.5,1.4-0.4c-3.2-8.8-4.6-18.2-4.1-27.5
			C995.9,954.5,994.4,954.5,994.3,955.5L994.3,955.5z"/>
	</g>
	<g>
		<path fill="#15161A" d="M989.7,964.7c0.5,5.9,1,11.7,1.5,17.6c0.1,1,1.6,1,1.5,0c-0.5-5.9-1-11.7-1.5-17.6
			C991.1,963.7,989.6,963.7,989.7,964.7L989.7,964.7z"/>
	</g>
	<g>
		<path fill="#15161A" d="M1234.7,903.2c2.5,14,4.4,28.1,5.8,42.3c0.1,1,1.6,1,1.5,0c-1.4-14.3-3.4-28.5-5.9-42.7
			C1236,901.8,1234.6,902.2,1234.7,903.2L1234.7,903.2z"/>
	</g>
	<g>
		<path fill="#15161A" d="M1232.1,923.9c2.2,7.3,3.4,14.8,3.8,22.4c0,1,1.5,1,1.5,0c-0.4-7.7-1.6-15.4-3.8-22.8
			C1233.3,922.6,1231.9,923,1232.1,923.9L1232.1,923.9z"/>
	</g>
	<g>
		<path fill="#15161A" d="M1122,876.3c2.5,7,4.7,14.1,6.7,21.3c0.3,0.9,1.7,0.5,1.4-0.4c-2-7.2-4.2-14.3-6.7-21.3
			C1123.1,875,1121.7,875.4,1122,876.3L1122,876.3z"/>
	</g>
	<g>
		<path fill="#15161A" d="M1125.2,874.4c2.9,8.4,5.9,16.7,9,25c0.3,0.9,1.8,0.5,1.4-0.4c-3.1-8.3-6.1-16.6-9-25
			C1126.4,873.1,1124.9,873.5,1125.2,874.4L1125.2,874.4z"/>
	</g>
	<g>
		<path fill="#15161A" d="M1128.6,873.6c3.4,8.5,6.7,17,10.1,25.5c0.3,0.9,1.8,0.5,1.4-0.4c-3.4-8.5-6.7-17-10.1-25.5
			C1129.7,872.3,1128.3,872.7,1128.6,873.6L1128.6,873.6z"/>
	</g>
	<g>
		<path fill="#15161A" d="M1132.2,871.4c3,10.1,9.1,19.1,10.9,29.5c0.2,0.9,1.6,0.5,1.4-0.4c-1.9-10.5-7.9-19.5-10.9-29.5
			C1133.4,870.1,1131.9,870.5,1132.2,871.4L1132.2,871.4z"/>
	</g>
	<g>
		<path fill="#15161A" d="M1135.7,870.5c3.8,8.3,7.7,16.6,11.5,24.9c0.4,0.9,1.7,0.1,1.3-0.8c-3.8-8.3-7.7-16.6-11.5-24.9
			C1136.6,868.9,1135.3,869.6,1135.7,870.5L1135.7,870.5z"/>
	</g>
	<g>
		<path fill="#15161A" d="M1139.3,869.3c3.4,7.1,6.9,14.3,10.3,21.4c0.4,0.9,1.7,0.1,1.3-0.8c-3.4-7.1-6.9-14.3-10.3-21.4
			C1140.2,867.7,1138.9,868.4,1139.3,869.3L1139.3,869.3z"/>
	</g>
	<g>
		<path fill="#15161A" d="M1143,867.6c3,6.7,6.1,13.5,9.1,20.2c0.4,0.9,1.7,0.1,1.3-0.8c-3-6.7-6.1-13.5-9.1-20.2
			C1143.9,866,1142.6,866.7,1143,867.6L1143,867.6z"/>
	</g>
	<g>
		<path fill="#15161A" d="M1146.1,866.3c3.4,6.2,6.5,12.5,9.2,19.1c0.4,0.9,1.8,0.5,1.4-0.4c-2.7-6.7-5.8-13.2-9.3-19.4
			C1146.9,864.7,1145.6,865.4,1146.1,866.3L1146.1,866.3z"/>
	</g>
	<g>
		<path fill="#15161A" d="M1149.1,866.2c3.5,5.9,6.5,12,9,18.3c0.4,0.9,1.8,0.5,1.4-0.4c-2.6-6.4-5.6-12.7-9.2-18.7
			C1149.9,864.6,1148.6,865.4,1149.1,866.2L1149.1,866.2z"/>
	</g>
	<g>
		<path fill="#15161A" d="M1104.4,882.8c1.7,5.3,3,10.7,4.5,16c0.3,0.9,1.7,0.5,1.4-0.4c-1.5-5.3-2.8-10.7-4.5-16
			C1105.6,881.5,1104.1,881.9,1104.4,882.8L1104.4,882.8z"/>
	</g>
	<g>
		<path fill="#15161A" d="M1103.4,889.8c0.4,2,0.8,3.9,1.3,5.9c0.4,1.8,0.9,3.7,1.7,5.4c0.4,0.9,1.7,0.1,1.3-0.8
			c-0.8-1.6-1.2-3.4-1.6-5.2c-0.5-1.9-0.9-3.8-1.2-5.7C1104.6,888.4,1103.2,888.8,1103.4,889.8L1103.4,889.8z"/>
	</g>
	<g>
		<path fill="#15161A" d="M1101.8,894.6c0.6,2.5,1.1,5,1.7,7.4c0.2,0.9,1.7,0.5,1.4-0.4c-0.6-2.5-1.1-5-1.7-7.4
			C1103,893.2,1101.6,893.6,1101.8,894.6L1101.8,894.6z"/>
	</g>
	<g>
		<path fill="#15161A" d="M1099.7,898.3c0,0.1,0.1,0.2,0.1,0.3c0.1,0.2-0.1-0.1,0,0.1c0.1,0.2,0.1,0.3,0.2,0.5
			c0.1,0.3,0.2,0.6,0.3,0.9c0.1,0.3,0.1,0.6,0.2,0.9c0,0.1,0,0.1,0,0.2c0,0,0,0.1,0,0.1c0-0.1,0-0.1,0,0c0,0.2,0,0.3,0,0.5
			c0,0.4,0.3,0.8,0.8,0.8c0.4,0,0.8-0.3,0.8-0.8c-0.1-1.5-0.5-2.9-1.1-4.2c-0.2-0.4-0.7-0.5-1-0.3
			C1099.6,897.5,1099.5,897.9,1099.7,898.3L1099.7,898.3z"/>
	</g>
	<g>
		<path fill="#15161A" d="M877.2,983.8c0.7,14.8,0.8,29.7,0.4,44.6c0,1,1.5,1,1.5,0c0.4-14.9,0.3-29.7-0.4-44.6
			C878.6,982.9,877.1,982.9,877.2,983.8L877.2,983.8z"/>
	</g>
	<g>
		<path fill="#15161A" d="M883.2,1002.8c0,8.5,0,17.1,0,25.6c0,1,1.5,1,1.5,0c0-8.5,0-17.1,0-25.6
			C884.7,1001.8,883.2,1001.8,883.2,1002.8L883.2,1002.8z"/>
	</g>
	<g>
		<path fill="#15161A" d="M888.8,1009.5c0,5.9,0,11.9,0,17.8c0,1,1.5,1,1.5,0c0-5.9,0-11.9,0-17.8
			C890.3,1008.5,888.8,1008.5,888.8,1009.5L888.8,1009.5z"/>
	</g>
	<g>
		<path fill="#15161A" d="M895.4,1016.1c0,4.5,0,8.9,0,13.4c0,1,1.5,1,1.5,0c0-4.5,0-8.9,0-13.4
			C896.9,1015.2,895.4,1015.2,895.4,1016.1L895.4,1016.1z"/>
	</g>
	<g>
		<path fill="#15161A" d="M1526.9,1020.3c-17,9.7-34.2,19.2-51.4,28.6c-4.9,2.7-9.8,5.3-14.8,8c-0.9,0.5-0.1,1.8,0.8,1.3
			c17.2-9.3,34.4-18.7,51.5-28.3c4.9-2.7,9.8-5.5,14.6-8.3C1528.5,1021.1,1527.8,1019.8,1526.9,1020.3L1526.9,1020.3z"/>
	</g>
	<g>
		<path fill="#15161A" d="M1529.2,1013.1c-14.7,8.3-29.4,16.6-44.2,24.9c-4.2,2.4-8.4,4.7-12.6,7.1c-0.8,0.5-0.1,1.8,0.8,1.3
			c14.7-8.3,29.4-16.6,44.2-24.9c4.2-2.4,8.4-4.7,12.6-7.1C1530.8,1013.9,1530,1012.6,1529.2,1013.1L1529.2,1013.1z"/>
	</g>
	<g>
		<path fill="#15161A" d="M1528.9,1008.6c-14.5,7.3-28.9,14.6-43.4,21.9c-0.9,0.4-0.1,1.7,0.8,1.3c14.5-7.3,28.9-14.6,43.4-21.9
			C1530.5,1009.5,1529.7,1008.2,1528.9,1008.6L1528.9,1008.6z"/>
	</g>
	<g>
		<path fill="#15161A" d="M1526.3,1003c-10.7,6-21.6,11.8-32.7,17.1c-0.9,0.4-0.1,1.7,0.8,1.3c11.1-5.4,21.9-11.1,32.7-17.1
			C1527.9,1003.8,1527.2,1002.5,1526.3,1003L1526.3,1003z"/>
	</g>
	<g>
		<path fill="#15161A" d="M1524.7,998c-8.1,4.5-16.1,9-24.2,13.4c-0.8,0.5-0.1,1.8,0.8,1.3c8.1-4.5,16.1-9,24.2-13.4
			C1526.3,998.8,1525.5,997.5,1524.7,998L1524.7,998z"/>
	</g>
	<g>
		<path fill="#15161A" d="M1524,990.8c-5.9,5.2-12.7,9.3-20,12.2c-0.9,0.3-0.5,1.8,0.4,1.4c7.6-3,14.5-7.2,20.7-12.6
			C1525.8,991.2,1524.7,990.2,1524,990.8L1524,990.8z"/>
	</g>
	<g>
		<path fill="#15161A" d="M1522.7,986.9c-4,2.4-8,4.7-12,7.1c-0.8,0.5-0.1,1.8,0.8,1.3c4-2.4,8-4.7,12-7.1
			C1524.3,987.7,1523.5,986.4,1522.7,986.9L1522.7,986.9z"/>
	</g>
	<g>
		<path fill="#15161A" d="M1523.3,980.3c-7.3,4.4-14.4,9.2-21.2,14.4c-0.8,0.6,0,1.9,0.8,1.3c6.8-5.2,13.9-10,21.2-14.4
			C1524.9,981.1,1524.2,979.8,1523.3,980.3L1523.3,980.3z"/>
	</g>
	<g>
		<path fill="#15161A" d="M1523.4,973.8c-16.5,9.3-32.5,19.5-47.9,30.6c-0.8,0.6,0,1.9,0.8,1.3c15.4-11,31.4-21.2,47.9-30.6
			C1525,974.6,1524.2,973.3,1523.4,973.8L1523.4,973.8z"/>
	</g>
	<g>
		<path fill="#15161A" d="M1520.5,969.7c-16.5,11.3-33.4,22.1-50.6,32.4c-0.8,0.5-0.1,1.8,0.8,1.3c17.2-10.3,34.1-21.1,50.6-32.4
			C1522.1,970.5,1521.3,969.2,1520.5,969.7L1520.5,969.7z"/>
	</g>
	<g>
		<path fill="#15161A" d="M1520.2,962.5c-15.4,12.2-31.9,23-49.1,32.5c-4.8,2.7-9.7,5.2-14.6,7.6c-0.9,0.4-0.1,1.7,0.8,1.3
			c17.7-8.8,34.8-19,50.9-30.5c4.5-3.2,8.8-6.5,13.2-9.9C1522.1,962.9,1521,961.9,1520.2,962.5L1520.2,962.5z"/>
	</g>
	<g>
		<path fill="#15161A" d="M1517.2,958.9c-8.1,8.5-17.7,15.4-28.2,20.6c-0.9,0.4-0.1,1.7,0.8,1.3c10.7-5.2,20.3-12.3,28.5-20.8
			C1518.9,959.2,1517.8,958.2,1517.2,958.9L1517.2,958.9z"/>
	</g>
	<g>
		<path fill="#15161A" d="M1315.3,1073.6c1.6,12.2,2.9,24.4,4,36.7c0.1,1,1.6,1,1.5,0c-1.1-12.3-2.4-24.5-4-36.7
			C1316.7,1072.6,1315.2,1072.6,1315.3,1073.6L1315.3,1073.6z"/>
	</g>
	<g>
		<path fill="#15161A" d="M1310.8,1071.8c0.9,8.2,1.5,16.3,1.9,24.5c0,1,1.5,1,1.5,0c-0.4-8.2-1-16.4-1.9-24.5
			C1312.2,1070.9,1310.7,1070.9,1310.8,1071.8L1310.8,1071.8z"/>
	</g>
	<g>
		<path fill="#15161A" d="M1305.3,1070.7c-0.2,6.1-0.1,12.3,0.6,18.4c0.1,1,1.6,1,1.5,0c-0.6-6.1-0.8-12.2-0.6-18.4
			C1306.8,1069.8,1305.3,1069.8,1305.3,1070.7L1305.3,1070.7z"/>
	</g>
	<g>
		<path fill="#15161A" d="M1301.4,1070.2c0,4.3,0,8.5,0,12.8c0,1,1.5,1,1.5,0c0-4.3,0-8.5,0-12.8
			C1302.9,1069.2,1301.4,1069.2,1301.4,1070.2L1301.4,1070.2z"/>
	</g>
	<g>
		<path fill="#15161A" d="M1297.3,1068.5c-0.5,4.3-0.6,8.5-0.3,12.8c0.1,1,1.6,1,1.5,0c-0.3-4.3-0.2-8.6,0.3-12.8
			C1298.9,1067.5,1297.4,1067.5,1297.3,1068.5L1297.3,1068.5z"/>
	</g>
	<g>
		<path fill="#15161A" d="M1320.1,1074c2.5,19,3.8,38.1,3.9,57.2c0,5.4,0,10.9-0.2,16.3c-0.1,1.9,2.9,1.9,3,0
			c0.6-19.1,0-38.3-1.9-57.3c-0.5-5.4-1.1-10.8-1.9-16.2c-0.1-0.8-0.6-1.5-1.5-1.5C1320.9,1072.5,1320,1073.2,1320.1,1074
			L1320.1,1074z"/>
	</g>
</g>
</svg>
