<?xml version="1.0" encoding="utf-8"?>
<!-- Generator: Adobe Illustrator 18.1.1, SVG Export Plug-In . SVG Version: 6.00 Build 0)  -->
<svg version="1.1" id="_x31_" xmlns="http://www.w3.org/2000/svg" xmlns:xlink="http://www.w3.org/1999/xlink" x="0px" y="0px"
	 viewBox="0 0 550 460" enable-background="new 0 0 550 460" xml:space="preserve">
<g>
	<g>
		<path fill="#15161A" d="M266.3,247.8c-17.7,0-30.9-5.3-33.6-7.2c-0.4-0.3-0.5-0.7-0.4-1.2c0.9-3.8,20.5-15.8,43.1-19.2
			c24.2-3.6,46.6,4,47,6.6l0,0c0.4,2.5-18.7,16.5-42.9,20.1C274.9,247.6,270.4,247.8,266.3,247.8z M288.9,220.2
			c-4.2,0-8.7,0.3-13.3,1c-22.9,3.5-41.6,15.4-42.3,18.5c0,0.1,0,0.2,0,0.2c1.9,1.4,20.5,9.9,46,6.1c24.6-3.7,41.7-17.2,42.1-19
			C320.7,225.6,307.2,220.2,288.9,220.2z"/>
		<path fill="#15161A" d="M267.8,245.9c-15.3,0-26.6-4.5-28.9-6.2c-0.4-0.3-0.5-0.7-0.4-1.1c0.8-3.3,17.7-13.7,37.2-16.6
			c21.4-3.2,40.2,3.5,40.5,5.7l0,0c0.3,2.3-15.7,14.2-37,17.4C275.2,245.7,271.4,245.9,267.8,245.9z M287.4,222.1
			c-3.6,0-7.5,0.3-11.5,0.9c-18.8,2.8-34.1,12.2-36.2,15.4c-0.2,0.4-0.2,0.5-0.2,0.5c1.7,1.2,17.6,8.5,39.6,5.2
			c21.1-3.2,35.7-14.6,36.2-16.3C314.4,226.6,303,222.1,287.4,222.1z M315.3,227.9L315.3,227.9L315.3,227.9z"/>
		<path fill="#15161A" d="M267.8,245.9c-15.3,0-26.6-4.5-28.9-6.2c-0.4-0.3-0.5-0.7-0.4-1.1c0.8-3.3,17.7-13.7,37.2-16.6
			c21.4-3.2,40.2,3.5,40.5,5.7l0,0c0.3,2.3-15.7,14.2-37,17.4C275.2,245.7,271.4,245.9,267.8,245.9z M287.4,222.1
			c-3.6,0-7.5,0.3-11.5,0.9c-18.8,2.8-34.1,12.2-36.2,15.4c-0.2,0.4-0.2,0.5-0.2,0.5c1.7,1.2,17.6,8.5,39.6,5.2
			c21.1-3.2,35.7-14.6,36.2-16.3C314.4,226.6,303,222.1,287.4,222.1z M315.3,227.9L315.3,227.9L315.3,227.9z"/>
		<path fill="#15161A" d="M267.8,245.9c-7.7,0-14.1-1.2-18.7-2.3c-0.2,0-0.3-0.2-0.4-0.4c0-0.2,0.1-0.4,0.2-0.5
			c5.6-3.7,16.3-8.7,28.3-10.5c14.6-2.2,26.5,1.1,29.8,2.1c0.2,0.1,0.3,0.2,0.3,0.4c0,0.2-0.1,0.4-0.2,0.5c-4.9,2.9-15.1,7.9-28,9.9
			l0,0C275.2,245.7,271.4,245.9,267.8,245.9z M250.5,242.9c6.7,1.6,16.7,3,28.5,1.2l0,0c11.9-1.8,21.5-6.3,26.6-9.2
			c-4.3-1.2-15.3-3.7-28.3-1.7C266.3,234.8,256.2,239.3,250.5,242.9z"/>
		<path fill="#15161A" d="M253.4,244.5C253.4,244.5,253.4,244.5,253.4,244.5c-1.7-0.3-3.1-0.6-4.3-0.9c-0.2,0-0.3-0.2-0.4-0.4
			c0-0.2,0.1-0.4,0.2-0.5c5.6-3.7,16.3-8.7,28.3-10.5c14.6-2.2,26.5,1.1,29.8,2.1c0.2,0.1,0.3,0.2,0.3,0.4c0,0.2-0.1,0.4-0.2,0.5
			c-1.1,0.6-2.3,1.3-3.8,2c-0.1,0.1-0.3,0.1-0.4,0c-5.7-2.4-13.4-5.7-25.6-3.8l0,0c-12.2,1.8-18.8,7.1-23.6,10.9
			C253.7,244.5,253.6,244.5,253.4,244.5z M250.5,242.9c0.8,0.2,1.8,0.4,2.8,0.6c2.6-2.1,5.7-4.5,9.9-6.7
			C258,238.7,253.6,240.9,250.5,242.9z M292,232.6c4.5,0.9,8.2,2.4,11.2,3.6c0.9-0.5,1.8-0.9,2.5-1.3
			C303.1,234.2,298.2,233,292,232.6z"/>
		<path fill="#15161A" d="M262.7,245.7C262.7,245.7,262.7,245.7,262.7,245.7c-0.8-0.1-1.6-0.1-2.4-0.2c-0.2,0-0.4-0.2-0.5-0.4
			c0-0.2,0-0.4,0.2-0.5c2.5-1.5,9.3-5.2,18-6.5l0,0c8.2-1.2,15.3,0.2,18.8,1.1c0.2,0.1,0.4,0.2,0.4,0.5c0,0.2-0.1,0.4-0.3,0.5
			l-0.1,0.1c-0.7,0.3-1.4,0.6-2.1,0.8c-0.1,0-0.2,0-0.3,0c-2.4-0.7-8.6-2.3-16-1.2c-6.3,0.9-12,3.6-15.3,5.8
			C262.9,245.7,262.8,245.7,262.7,245.7z M261.9,244.7c0.2,0,0.4,0,0.7,0.1c1-0.6,3-1.9,5.9-3.1
			C265.7,242.7,263.5,243.8,261.9,244.7z M287.6,238.7c3.1,0.3,5.5,0.9,6.9,1.4c0.2-0.1,0.4-0.2,0.6-0.2
			C293.2,239.4,290.6,238.9,287.6,238.7z M278.2,238.6l0,0.3L278.2,238.6z"/>
		<path fill="#15161A" d="M272.6,271.6c-0.7,0-1.4,0-2.1-0.1c-14.4-1.9-24.1-13.5-25.7-16.2c-0.4-0.6-0.5-1-0.4-1.3
			c0-0.1,0.1-0.1,0.1-0.2c2.4-2,17.1-0.5,21.6,0c7.2,0.8,19.9,2.7,21.3,4.7c0.8,1.1,0.6,3.1-0.7,5.3
			C284.6,267.8,279.4,271.6,272.6,271.6z M245.5,254.4c0.9,2.2,10.8,14.2,25.2,16.1c7.3,0.8,13-3,15.4-7.2c1-1.8,1.3-3.4,0.7-4.2
			c-0.8-1-8.7-2.9-20.7-4.3C255.7,253.6,247.4,253.4,245.5,254.4z"/>
		<path fill="#15161A" d="M276.3,274.6c-32,0-43.6-33.8-43.7-34.2c-0.1-0.2,0-0.4,0.2-0.6c0.2-0.1,0.4-0.1,0.6,0
			c1.9,1.4,20.5,9.9,46,6.1c24.6-3.7,41.6-17.1,42.1-19c0-0.1,0-0.1,0-0.1c0-0.3,0.2-0.5,0.5-0.5c0.2,0,0.5,0.2,0.5,0.4
			c0,0,0,0.1,0,0.1c0,1.3-1.8,41.6-38.9,47.2C281,274.4,278.6,274.6,276.3,274.6z M234,241.4c2.7,6.7,16.7,36.6,49.4,31.6
			c32.2-4.9,37.1-36.5,37.9-44.4c-4.4,4.7-21.3,15.2-41.8,18.3l-0.1-0.5l0.1,0.5C257.5,250.2,239.5,244.3,234,241.4z"/>
	</g>
	<g>
		<defs>
			<path id="SVGID_1_" d="M276.6,225.1c0.3,1.7,23.6,16.3,2.5,19.5c-21.1,3.2-37.6-3.6-40-5.3c-2.4-1.7-23.4-50.5-2.3-53.7
				C258.1,182.4,276.4,223.4,276.6,225.1z"/>
		</defs>
		<clipPath id="SVGID_2_">
			<use xlink:href="#SVGID_1_"  overflow="visible"/>
		</clipPath>
		<g clip-path="url(#SVGID_2_)">
			<path fill="#15161A" d="M244.5,215c-0.1,0-0.1,0-0.2,0c-0.1,0-0.2-0.1-0.3-0.2l-12.8-25c-0.1-0.2,0-0.5,0.2-0.7l5.9-3
				c0.1-0.1,0.3-0.1,0.4,0c0.1,0,0.2,0.1,0.3,0.2l12.8,25c0.1,0.2,0,0.5-0.2,0.7l-5.9,3C244.7,214.9,244.6,215,244.5,215z
				 M232.4,189.7l12.3,24.1l5-2.5l-12.3-24.1L232.4,189.7z"/>
			<path fill="#15161A" d="M244.5,211.1c-0.2,0-0.4-0.1-0.4-0.3l-10.6-20.7c-0.1-0.2,0-0.5,0.2-0.7l1.4-0.7c0.1-0.1,0.3-0.1,0.4,0
				c0.1,0,0.2,0.1,0.3,0.2l10.6,20.7c0.1,0.1,0.1,0.3,0,0.4c0,0.1-0.1,0.2-0.2,0.3l-1.4,0.7C244.7,211.1,244.6,211.1,244.5,211.1z
				 M234.6,190.2l10.1,19.8l0.5-0.2L235.1,190L234.6,190.2z"/>
			<path fill="#15161A" d="M248.1,218.2c-0.2,0-0.4-0.1-0.4-0.3l-2.1-4c-0.1-0.1-0.1-0.3,0-0.4c0-0.1,0.1-0.2,0.2-0.3l2.8-1.4
				c0.2-0.1,0.5,0,0.7,0.2l2.1,4c0.1,0.1,0.1,0.3,0,0.4c0,0.1-0.1,0.2-0.2,0.3l-2.8,1.4C248.3,218.2,248.2,218.2,248.1,218.2z
				 M246.7,213.9l1.6,3.2l1.9-1l-1.6-3.2L246.7,213.9z"/>
			<path fill="#15161A" d="M267.2,252c-0.1,0-5.6-4.6-8.5-9.9c-2.8-5.3-9-21.9-9.1-22.1l0.7-0.3c0.1,0.2,6.3,16.8,9.1,22
				c2.8,5.2,8.2,9.7,8.3,9.7L267.2,252z"/>
			<path fill="#15161A" d="M266.5,252.5c-0.3-0.1-8.1-2.3-11.4-8.6c-4.9-9.6-6.2-24.1-6.2-24.2l0.7-0.1c0,0.1,1.3,14.5,6.1,24
				c3.1,6,10.8,8.2,10.9,8.2L266.5,252.5z"/>
			<path fill="#15161A" d="M266.9,251.9c0-0.1-0.5-7.1-3-12.4c-2.6-5.3-12.5-20.1-12.6-20.2l0.6-0.4c0.1,0.1,10,14.9,12.6,20.3
				c2.6,5.4,3.1,12.6,3.1,12.7L266.9,251.9z"/>
			<path fill="#15161A" d="M268.4,251.6l-0.7-0.2c0-0.1,2.8-7.7-0.3-13.7c-4.8-9.5-15.7-18.9-15.8-19l0.5-0.5
				c0.1,0.1,11.1,9.6,16,19.2C271.3,243.6,268.5,251.2,268.4,251.6z"/>
			
				<rect x="240.2" y="234.6" transform="matrix(0.4555 0.8902 -0.8902 0.4555 350.0652 -102.3911)" fill="#15161A" width="37.1" height="0.7"/>
			<path fill="#15161A" d="M267.4,252c-0.3-0.1-7.8-3.6-10.7-8.8c-2.9-5.2-7.5-22.2-7.7-22.9l0.7-0.2c0,0.2,4.7,17.6,7.6,22.7
				c2.9,5.1,10.3,8.5,10.4,8.5L267.4,252z"/>
			<path fill="#15161A" d="M266.3,252.7c-0.4,0-10.3-1.2-13.6-7.5c-4.9-9.6-4.3-25.1-4.3-25.3l0.7,0c0,0.2-0.6,15.5,4.2,24.9
				c3.1,6,12.9,7.1,13,7.1L266.3,252.7z"/>
			<path fill="#15161A" d="M267.5,252l-0.7-0.1c0-0.1,1.6-8.2-0.8-13.4c-2.5-5.4-13.9-19.3-14-19.5l0.6-0.5
				c0.5,0.6,11.5,14.2,14.1,19.6C269.2,243.6,267.6,251.6,267.5,252z"/>
			<path fill="#15161A" d="M268.7,251.5l-0.6-0.4c0.1-0.1,4.9-8.7,1.8-14.7c-4.8-9.5-17.6-17.9-17.7-18l0.4-0.6
				c0.1,0.1,13.1,8.6,18,18.3C273.8,242.4,268.9,251.1,268.7,251.5z"/>
			<g>
				
					<rect x="247" y="216.4" transform="matrix(0.8902 -0.4556 0.4556 0.8902 -72.0449 138.0081)" fill="#15161A" width="6.6" height="4.2"/>
				<path fill="#15161A" d="M248.3,222.3c-0.2,0-0.4-0.1-0.4-0.3l-1.9-3.8c-0.1-0.1-0.1-0.3,0-0.4c0-0.1,0.1-0.2,0.2-0.3l5.9-3
					c0.2-0.1,0.5,0,0.7,0.2l1.9,3.8c0.1,0.2,0,0.5-0.2,0.7l-5.9,3C248.5,222.3,248.4,222.3,248.3,222.3z M247.1,218.3l1.5,2.9l5-2.5
					l-1.5-2.9L247.1,218.3z"/>
			</g>
			<g>
				
					<rect x="265.6" y="251.3" transform="matrix(0.8902 -0.4556 0.4556 0.8902 -85.4257 149.4969)" fill="#15161A" width="3.8" height="1.4"/>
				<path fill="#15161A" d="M266.1,254c-0.2,0-0.4-0.1-0.4-0.3l-0.6-1.3c-0.1-0.1-0.1-0.3,0-0.4c0-0.1,0.1-0.2,0.2-0.3l3.3-1.7
					c0.1-0.1,0.3-0.1,0.4,0c0.1,0,0.2,0.1,0.3,0.2l0.6,1.3c0.1,0.2,0,0.5-0.2,0.7l-3.3,1.7C266.2,253.9,266.2,254,266.1,254z
					 M266.1,252.4l0.2,0.4l2.5-1.3l-0.2-0.4L266.1,252.4z"/>
			</g>
		</g>
	</g>
</g>
</svg>
