<?xml version="1.0" encoding="utf-8"?>
<!-- Generator: Adobe Illustrator 18.1.1, SVG Export Plug-In . SVG Version: 6.00 Build 0)  -->
<svg version="1.1" id="_x31_" xmlns="http://www.w3.org/2000/svg" xmlns:xlink="http://www.w3.org/1999/xlink" x="0px" y="0px"
	 viewBox="0 0 550 460" enable-background="new 0 0 550 460" xml:space="preserve">
<g>
	<g>
		<g>
			<g>
				<path fill="#15161A" d="M325.3,268.3c-9.1,0-17.5-0.9-22-2.5l-1.2,0c-34.5,0-70.1-5.1-70.1-13.7c0-1.2,0.8-2.5,2.3-3.6
					c-2.6-1-3.8-2.1-3.8-3.4c0-4.8,18.9-7.4,36.6-7.4c6.8,0,13.3,0.4,19.1,1c6.8-0.3,14-0.4,20.9-0.3c5.5-1.5,14.5-2.4,24-2.4
					c14.4,0,29.6,2.1,29.6,6c0,0.7-0.5,1.4-1.4,2c8.6,2.3,12.9,5,12.9,8.1c0,5.2-13.3,8.5-21.9,10.1c0.2,0.3,0.3,0.6,0.3,0.9
					C350.7,266.5,337.9,268.3,325.3,268.3z M303.4,264.8c0.1,0,0.1,0,0.2,0c4.3,1.5,12.6,2.4,21.7,2.4c15.1,0,24.4-2.5,24.4-4.2
					c0-0.2-0.2-0.5-0.6-0.8c-0.2-0.1-0.2-0.3-0.2-0.5c0-0.2,0.2-0.3,0.4-0.4c13.8-2.4,22-5.9,22-9.2c0-2.6-4.8-5.2-13.4-7.4
					c-0.2-0.1-0.4-0.2-0.4-0.4c0-0.2,0.1-0.4,0.3-0.5c1.2-0.6,1.9-1.2,1.9-1.7c0-2.4-11.8-5-28.6-5c-9.5,0-18.4,0.9-23.8,2.4
					c0,0-0.1,0-0.1,0c-6.9-0.1-14.1,0-21,0.3c-5.8-0.7-12.3-1-19-1c-21,0-35.6,3.4-35.6,6.4c0,0.9,1.5,1.9,4.1,2.8
					c0.2,0.1,0.3,0.2,0.3,0.4c0,0.2-0.1,0.4-0.2,0.5c-1.7,1.1-2.6,2.2-2.6,3.3c0,6.2,27.8,12.7,69.1,12.7L303.4,264.8L303.4,264.8z"
					/>
				<g>
					<path fill="#15161A" d="M233,251c-0.1,0-0.2,0-0.2-0.1c-1.5-0.8-2.3-1.7-2.3-2.7V245c0-0.3,0.2-0.5,0.5-0.5s0.5,0.2,0.5,0.5
						c0,0.9,1.5,1.9,4.1,2.8c0.2,0.1,0.3,0.2,0.3,0.4c0,0.2-0.1,0.4-0.2,0.5c-1.1,0.7-1.8,1.4-2.2,2.1C233.3,251,233.2,251,233,251z
						 M231.5,246.8v1.4c0,0.5,0.5,1,1.4,1.6c0.4-0.5,0.9-1,1.5-1.5C233.1,247.9,232.1,247.4,231.5,246.8z"/>
					<path fill="#15161A" d="M360.2,245.2c0,0-0.1,0-0.1,0c-0.7-0.2-1.4-0.4-2.2-0.6c-0.2-0.1-0.4-0.2-0.4-0.4
						c0-0.2,0.1-0.4,0.3-0.5c1.2-0.6,1.9-1.2,1.9-1.7c0-0.3,0.2-0.5,0.5-0.5c0.3,0,0.5,0.2,0.5,0.5v2.7c0,0.2-0.1,0.3-0.2,0.4
						C360.4,245.2,360.3,245.2,360.2,245.2z M359.3,244c0.1,0,0.3,0.1,0.4,0.1v-0.4C359.6,243.8,359.5,243.9,359.3,244z"/>
					<path fill="#15161A" d="M325.3,271.6c-9.1,0-17.5-0.9-22-2.5l-1.2,0c-37.6,0-67.5-5.5-69.9-12.7c-0.1-0.1-0.2-0.2-0.2-0.3v-4
						c0-0.3,0.2-0.5,0.5-0.5c0.3,0,0.5,0.2,0.5,0.5c0,6.2,27.8,12.7,69.1,12.7l1.2,0h0c0.1,0,0.1,0,0.2,0c4.3,1.5,12.6,2.4,21.7,2.4
						c15.1,0,24.4-2.5,24.4-4.2c0-0.2-0.2-0.5-0.6-0.8c-0.2-0.1-0.2-0.3-0.2-0.5c0-0.2,0.2-0.3,0.4-0.4c13.8-2.4,22-5.9,22-9.2
						c0-0.3,0.2-0.5,0.5-0.5s0.5,0.2,0.5,0.5v3.3c0,5-11.6,8.2-21.6,10v1.3c0,0.1-0.1,0.3-0.2,0.4c0,0,0,0,0,0
						C348.8,270,336.7,271.6,325.3,271.6z M303.4,268.1c0.1,0,0.1,0,0.2,0c4.3,1.5,12.6,2.4,21.7,2.4c13.7,0,23.7-2.1,24.4-4.1
						c0,0,0-0.1,0-0.1v-1.5c0-0.2,0.2-0.4,0.4-0.5c13.3-2.4,21.2-5.8,21.2-9.1v-0.9c-3.2,3.8-13.7,6.3-20.9,7.6
						c0.2,0.3,0.3,0.6,0.3,0.9c0,3.4-12.8,5.2-25.4,5.2c-9.1,0-17.5-0.9-22-2.5l-1.2,0c-31.1,0-63.1-4.2-69.1-11.3v1.3
						c0,0,0.1,0.1,0.1,0.1c1.7,6.7,32.7,12.2,69,12.2L303.4,268.1C303.4,268.1,303.4,268.1,303.4,268.1z"/>
				</g>
			</g>
			<g>
				<path fill="#15161A" d="M212.1,252.2c-0.3,0-0.5-0.2-1.6-0.7c-0.7-0.4-1.6-0.9-2.6-1.4c-3.9-1.9-7.8-4-7.8-6.7V240
					c0-0.3,0.2-0.5,0.5-0.5c0.3,0,0.5,0.2,0.5,0.5c0,2.3,4.5,4.5,7.2,5.8h0c1,0.5,2,1,2.7,1.4c0.4,0.3,0.9,0.5,1.1,0.6
					c0.3-0.1,0.9-0.5,1.5-0.8c0.6-0.3,1.3-0.8,2.1-1.2c2-1.1,7.4-4,7.4-5.9c0-0.3,0.2-0.5,0.5-0.5c0.3,0,0.5,0.2,0.5,0.5v3.4
					c0,2.1-3.8,4.5-7.9,6.7c-0.8,0.4-1.5,0.8-2.1,1.2C212.7,252.1,212.4,252.2,212.1,252.2z M201.1,242.3v1c0,2.3,4.5,4.5,7.2,5.8
					c1.1,0.5,2,1,2.7,1.4c0.4,0.3,0.9,0.5,1.1,0.6c0.3-0.1,0.9-0.5,1.5-0.8c0.6-0.3,1.3-0.8,2.1-1.2c2-1.1,7.4-4,7.4-5.9V242
					c-1.4,1.5-4.1,3.1-6.9,4.7c-0.8,0.4-1.5,0.8-2.1,1.2c-1.4,0.8-1.7,1-2,1c-0.3,0-0.5-0.2-1.6-0.7c-0.7-0.4-1.6-0.9-2.6-1.4h0
					C205.2,245.4,202.5,244,201.1,242.3z"/>
				<path fill="#15161A" d="M212.1,248.9c-0.3,0-0.5-0.2-1.6-0.7c-0.7-0.4-1.6-0.9-2.6-1.4c-3.9-1.9-7.8-4-7.8-6.7
					c0-2.6,2-4.6,5.1-5c2.6-0.4,5.6,0.5,6.9,2.6c1.3-2.2,4.4-3,6.9-2.6c3.1,0.4,5.1,2.4,5.1,5c0,2.1-3.8,4.5-7.9,6.7
					c-0.8,0.4-1.5,0.8-2.1,1.2C212.7,248.7,212.4,248.9,212.1,248.9z M206.4,235.8c-0.4,0-0.7,0-1.1,0.1c-2,0.3-4.2,1.5-4.2,4.1
					c0,2.3,4.5,4.5,7.2,5.8c1.1,0.5,2,1,2.7,1.4c0.4,0.3,0.9,0.5,1.1,0.6c0.3-0.1,0.9-0.5,1.5-0.8c0.6-0.3,1.3-0.8,2.1-1.2
					c2-1.1,7.4-4,7.4-5.9c0-2.6-2.2-3.8-4.2-4.1c-2.5-0.4-5.6,0.6-6.3,3c-0.1,0.4-0.8,0.4-1,0C211.1,236.8,208.7,235.8,206.4,235.8z
					"/>
			</g>
			<g>
				<path fill="#15161A" d="M258.7,226c-0.3,0-0.5-0.2-1.6-0.7c-0.7-0.4-1.6-0.9-2.6-1.4c-3.9-1.9-7.8-4-7.8-6.7v-3.4
					c0-0.3,0.2-0.5,0.5-0.5c0.3,0,0.5,0.2,0.5,0.5c0,2.3,4.5,4.5,7.2,5.8l0,0c1.1,0.5,2,1,2.7,1.4c0.4,0.3,0.9,0.5,1.1,0.6
					c0.3-0.1,0.9-0.5,1.5-0.8c0.6-0.3,1.3-0.8,2.1-1.2c2-1.1,7.4-4,7.4-5.9c0-0.3,0.2-0.5,0.5-0.5c0.3,0,0.5,0.2,0.5,0.5v3.4
					c0,2.1-3.8,4.5-7.9,6.7c-0.8,0.4-1.5,0.8-2.1,1.2C259.3,225.8,259,226,258.7,226z M247.7,216.1v1c0,2.3,4.5,4.5,7.2,5.8
					c1,0.5,2,1,2.7,1.4c0.4,0.3,0.9,0.5,1.1,0.6c0.3-0.1,0.9-0.5,1.5-0.8c0.6-0.3,1.3-0.8,2.1-1.2c2-1.1,7.4-4,7.4-5.9v-1.3
					c-1.4,1.5-4.1,3.1-6.9,4.7c-0.8,0.4-1.5,0.8-2.1,1.2c-1.4,0.8-1.7,1-2,1c-0.3,0-0.5-0.2-1.6-0.7c-0.7-0.4-1.6-0.9-2.6-1.4l0,0
					C251.7,219.1,249.1,217.7,247.7,216.1z"/>
				<path fill="#15161A" d="M258.7,222.6c-0.3,0-0.5-0.2-1.6-0.7c-0.7-0.4-1.6-0.9-2.6-1.4c-3.9-1.9-7.8-4-7.8-6.7
					c0-2.6,2-4.6,5.1-5c2.6-0.4,5.6,0.5,6.9,2.6c1.3-2.2,4.4-3,6.9-2.6c3.1,0.4,5.1,2.4,5.1,5c0,2.1-3.8,4.5-7.9,6.7
					c-0.8,0.4-1.5,0.8-2.1,1.2C259.3,222.4,259,222.6,258.7,222.6z M253,209.6c-0.4,0-0.7,0-1.1,0.1c-2,0.3-4.2,1.5-4.2,4.1
					c0,2.3,4.5,4.5,7.2,5.8c1.1,0.5,2,1,2.7,1.4c0.4,0.3,0.9,0.5,1.1,0.6c0.3-0.1,0.9-0.5,1.5-0.8c0.6-0.3,1.3-0.8,2.1-1.2
					c2-1.1,7.4-4,7.4-5.9c0-2.6-2.2-3.8-4.2-4.1c-2.5-0.4-5.6,0.6-6.3,3c-0.1,0.4-0.8,0.4-1,0C257.6,210.6,255.2,209.6,253,209.6z"
					/>
			</g>
			<g>
				<g>
					<path fill="#15161A" d="M202.7,263.7c-0.1,0-0.1,0-0.2,0c-4.7-1.7-4.8-2-4.9-2.3c0-0.1,0-0.1,0-0.2v-3.2c0-0.1,0-0.2,0.1-0.3
						c0.1-0.2,0.3-0.3,0.6-0.2c0.1,0,0.3,0.1,0.3,0.3c0.5,0.4,3.3,1.4,5.7,2.3c0.1,0,0.2,0.2,0.3,0.3c0.1,0.1,0,0.3,0,0.4
						c0,0-0.8,1.5-1.4,2.8C203,263.6,202.8,263.7,202.7,263.7z M198.5,261c0.3,0.2,1.1,0.6,3.9,1.6c0.3-0.7,0.7-1.4,0.9-1.9
						c-2.6-0.9-4-1.5-4.8-1.9V261z M198.5,261.4C198.5,261.4,198.5,261.4,198.5,261.4C198.5,261.4,198.5,261.4,198.5,261.4z
						 M198.5,261.4L198.5,261.4L198.5,261.4z M198.5,261.4L198.5,261.4L198.5,261.4z"/>
					<path fill="#15161A" d="M213.5,263.7c-0.2,0-0.4-0.1-0.4-0.3c-0.6-1.3-1.4-2.7-1.4-2.8c-0.1-0.1-0.1-0.3,0-0.4
						c0.1-0.1,0.2-0.2,0.3-0.3c2.4-0.8,5.2-1.9,5.7-2.3c0.1-0.2,0.3-0.3,0.4-0.3c0.3,0,0.5,0.2,0.5,0.5v3.3c0,0.4,0,0.7-4.9,2.5
						C213.6,263.7,213.5,263.7,213.5,263.7z M212.8,260.7c0.2,0.5,0.6,1.2,1,1.9c2.8-1,3.6-1.4,3.8-1.6v-2.1
						C216.7,259.2,215.3,259.8,212.8,260.7z"/>
					<path fill="#15161A" d="M214.2,269c-0.5,0-1.9-0.5-6.2-2.8c-6,3-6.2,2.9-6.5,2.7c-0.1-0.1-0.2-0.2-0.2-0.4v-3.3
						c0-0.2,0.1-0.4,0.3-0.4c0.1,0,0.2-0.1,0.2-0.1c0.5-0.1,3.4-1.5,6-2.8c0.1-0.1,0.3-0.1,0.5,0c2.5,1.3,5.3,2.7,5.9,2.8
						c0.1,0,0.2,0,0.3,0c0.2,0.1,0.3,0.3,0.3,0.5v3.3c0,0.1-0.1,0.3-0.1,0.4C214.5,268.9,214.4,269,214.2,269z M208,265.1
						c0.1,0,0.2,0,0.2,0.1c2.1,1.1,4.4,2.3,5.5,2.7v-2.2c-0.8-0.2-2.3-0.9-5.7-2.7c-3.4,1.7-4.9,2.4-5.7,2.7v2.2
						c1-0.4,3.4-1.6,5.5-2.6C207.9,265.2,208,265.1,208,265.1z"/>
				</g>
				<path fill="#15161A" d="M214.2,265.7c-0.5,0-1.9-0.5-6.2-2.8c-6,3-6.2,2.9-6.5,2.7c-0.4-0.3-0.5-0.4,1.8-4.9
					c-5.5-2-5.7-2.4-5.8-2.6c-0.1-0.1,0-0.3,0-0.5c0.2-0.3,0.3-0.6,7.6-0.8c2.2-4.7,2.5-4.7,2.8-4.7c0.3,0,0.6,0,2.8,4.7
					c7.7,0.1,7.7,0.6,7.7,1.1c0,0.4,0,0.8-5.8,2.8c2.3,4.3,2.1,4.6,1.8,4.9C214.5,265.7,214.4,265.7,214.2,265.7z M208,261.9
					c0.1,0,0.2,0,0.2,0.1c2,1,4.2,2.1,5.3,2.6c-0.4-0.9-1.2-2.5-1.9-3.8c-0.1-0.1-0.1-0.3,0-0.4c0.1-0.1,0.2-0.2,0.3-0.3
					c1.8-0.6,3.8-1.4,4.9-1.9c-1.4-0.1-3.9-0.2-6.3-0.3c-0.2,0-0.4-0.1-0.4-0.3c-0.7-1.6-1.6-3.3-2-4.1c-0.5,0.8-1.3,2.5-2,4.1
					c-0.1,0.2-0.2,0.3-0.4,0.3c-2.3,0.1-4.7,0.2-6.2,0.3c1.1,0.5,3,1.2,4.8,1.8c0.1,0,0.2,0.2,0.3,0.3c0.1,0.1,0,0.3,0,0.4
					c-0.7,1.3-1.4,2.8-1.8,3.7c1.1-0.5,3.2-1.5,5.2-2.5C207.9,261.9,208,261.9,208,261.9z"/>
			</g>
			<g>
				<g>
					<path fill="#15161A" d="M231.5,200.6c-0.1,0-0.1,0-0.2,0c-4.7-1.7-4.8-2-4.9-2.3c0-0.1,0-0.1,0-0.2v-3.2c0-0.1,0-0.2,0.1-0.3
						c0.1-0.2,0.3-0.3,0.6-0.2c0.1,0,0.3,0.1,0.3,0.3c0.5,0.4,3.3,1.4,5.7,2.3c0.1,0,0.2,0.2,0.3,0.3c0.1,0.1,0,0.3,0,0.4
						c0,0-0.8,1.5-1.4,2.8C231.9,200.5,231.7,200.6,231.5,200.6z M227.4,197.9c0.3,0.2,1.1,0.6,3.9,1.6c0.3-0.7,0.7-1.4,0.9-1.9
						c-2.6-0.9-4-1.5-4.8-1.9V197.9z M227.3,198.3L227.3,198.3L227.3,198.3z M227.3,198.3C227.3,198.3,227.3,198.3,227.3,198.3
						C227.3,198.3,227.3,198.3,227.3,198.3z"/>
					<path fill="#15161A" d="M242.3,200.6c-0.2,0-0.4-0.1-0.4-0.3c-0.6-1.3-1.4-2.7-1.4-2.8c-0.1-0.1-0.1-0.3,0-0.4
						c0.1-0.1,0.2-0.2,0.3-0.3c2.4-0.8,5.2-1.9,5.7-2.3c0.1-0.2,0.3-0.3,0.4-0.3c0.3,0,0.5,0.2,0.5,0.5v3.3c0,0.4,0,0.7-4.9,2.5
						C242.4,200.6,242.4,200.6,242.3,200.6z M241.6,197.6c0.2,0.5,0.6,1.2,1,1.9c2.8-1,3.6-1.4,3.8-1.6v-2.2
						C245.6,196.2,244.2,196.7,241.6,197.6z"/>
					<path fill="#15161A" d="M243.1,205.9c-0.5,0-1.9-0.5-6.2-2.8c-6,3-6.2,2.9-6.5,2.7c-0.1-0.1-0.2-0.2-0.2-0.4v-3.3
						c0-0.2,0.1-0.4,0.3-0.4c0.1,0,0.2-0.1,0.2-0.1c0.5-0.1,3.4-1.5,6-2.8c0.1-0.1,0.3-0.1,0.5,0c2.5,1.3,5.3,2.7,5.9,2.8
						c0.1,0,0.2,0,0.3,0c0.2,0.1,0.3,0.3,0.3,0.5v3.3c0,0.1-0.1,0.3-0.1,0.4C243.3,205.9,243.3,205.9,243.1,205.9z M236.9,202.1
						c0.1,0,0.2,0,0.2,0.1c2.1,1.1,4.4,2.3,5.5,2.7v-2.2c-0.8-0.2-2.3-0.9-5.7-2.7c-3.4,1.7-4.9,2.4-5.7,2.7v2.2
						c1-0.4,3.4-1.6,5.5-2.6C236.7,202.1,236.8,202.1,236.9,202.1z"/>
				</g>
				<path fill="#15161A" d="M243.1,202.7c-0.5,0-1.9-0.5-6.2-2.8c-6,3-6.2,2.9-6.5,2.7c-0.4-0.3-0.5-0.4,1.8-4.9
					c-5.5-2-5.7-2.4-5.8-2.6c-0.1-0.1,0-0.3,0-0.5c0.2-0.3,0.3-0.6,7.6-0.8c2.2-4.7,2.5-4.7,2.8-4.7c0.3,0,0.6,0,2.8,4.7
					c7.7,0.1,7.7,0.6,7.7,1.1c0,0.4,0,0.8-5.8,2.8c2.3,4.3,2.1,4.6,1.8,4.9C243.3,202.6,243.3,202.7,243.1,202.7z M236.9,198.8
					c0.1,0,0.2,0,0.2,0.1c2,1,4.2,2.1,5.3,2.6c-0.4-0.9-1.2-2.5-1.9-3.8c-0.1-0.1-0.1-0.3,0-0.4c0.1-0.1,0.2-0.2,0.3-0.3
					c1.8-0.6,3.8-1.4,4.9-1.9c-1.4-0.1-3.9-0.2-6.3-0.3c-0.2,0-0.4-0.1-0.4-0.3c-0.7-1.6-1.6-3.3-2-4.1c-0.5,0.8-1.3,2.5-2,4.1
					c-0.1,0.2-0.2,0.3-0.4,0.3c-2.3,0.1-4.7,0.2-6.2,0.3c1.1,0.5,3,1.2,4.8,1.8c0.1,0,0.2,0.2,0.3,0.3c0.1,0.1,0,0.3,0,0.4
					c-0.7,1.3-1.4,2.8-1.8,3.7c1.1-0.5,3.2-1.5,5.2-2.5C236.7,198.8,236.8,198.8,236.9,198.8z"/>
			</g>
			<g>
				<path fill="#15161A" d="M186.1,254.9c-0.6,0-1.4-0.1-1.7-0.3c-0.1-0.1-0.5-0.4-0.3-2.3c-6,0.3-6.1,0-6.3-0.3
					c-0.2-0.3-0.3-0.6,3-3.6c-1.2,0-1.4-0.2-1.5-0.3c-0.3-0.4-0.4-0.6,2.8-3.5c-0.4-0.1-0.5-0.2-0.5-0.3c-0.3-0.4-0.5-0.6,4.1-4.7
					c0.2-0.2,0.5-0.2,0.7,0c4.5,4,4.4,4.3,4.1,4.7c-0.1,0.1-0.2,0.3-0.6,0.3c3.2,2.9,3.1,3.1,2.7,3.5c-0.1,0.1-0.3,0.3-1.5,0.3
					c3.2,2.9,3.1,3.2,3,3.5c-0.1,0.4-0.2,0.7-6.3,0.4c0.2,1.7-0.1,2.1-0.2,2.2c-0.2,0.2-0.4,0.3-0.9,0.4
					C186.6,254.9,186.4,254.9,186.1,254.9z M185,253.8c0.3,0.1,1.5,0.1,1.8,0c0-0.3,0-1.2-0.1-2c0-0.1,0-0.3,0.1-0.4
					c0.1-0.1,0.2-0.2,0.4-0.2c2.1,0.1,4.4,0.2,5.5,0.1c-0.7-0.7-2.1-2.1-3.4-3.2c-0.2-0.1-0.2-0.4-0.1-0.6c0.1-0.2,0.3-0.3,0.5-0.3
					c0.5,0.1,1.1,0.1,1.6,0.1c-0.7-0.7-2-1.9-3.2-3c-0.2-0.1-0.2-0.4-0.1-0.6c0.1-0.2,0.3-0.3,0.5-0.3c0.2,0,0.4,0.1,0.5,0.1
					c-0.7-0.7-1.9-1.9-3.1-2.9c-1.2,1.1-2.5,2.3-3.1,2.9c0.2,0,0.4,0,0.6-0.1c0.2,0,0.4,0.1,0.5,0.3c0.1,0.2,0,0.4-0.1,0.6
					c-1.2,1.1-2.6,2.3-3.3,3c0.5,0,1.1-0.1,1.6-0.1c0.2,0,0.4,0.1,0.5,0.3c0.1,0.2,0,0.4-0.1,0.6c-1.3,1.2-2.7,2.5-3.4,3.2
					c1.1,0,3.4,0,5.5-0.1c0.1,0,0.3,0.1,0.4,0.2c0.1,0.1,0.1,0.3,0.1,0.4C185,252.7,185,253.5,185,253.8z"/>
				<g>
					<path fill="#15161A" d="M181.9,246c-0.1,0-0.1,0-0.2,0c-0.2-0.1-0.3-0.3-0.3-0.5v-1.4c0-0.2,0.1-0.4,0.3-0.5
						c0.2-0.1,0.3,0,0.5,0.1c0.2,0,0.7,0,1.2-0.1c0.2,0,0.4,0.1,0.5,0.3c0.1,0.2,0,0.4-0.1,0.6c0,0-0.7,0.6-1.6,1.4
						C182.2,245.9,182,246,181.9,246z M182.3,243.8C182.3,243.8,182.3,243.8,182.3,243.8C182.3,243.8,182.3,243.8,182.3,243.8z"/>
					<path fill="#15161A" d="M179.7,250.7c-0.1,0-0.1,0-0.2,0c-0.2-0.1-0.3-0.3-0.3-0.5v-2.4c0-0.2,0.1-0.4,0.3-0.5
						c0.2-0.1,0.3,0,0.5,0.1c0.3,0.1,1.4,0,2.2-0.1c0.2,0,0.4,0.1,0.5,0.3c0.1,0.2,0,0.4-0.1,0.6c0,0-1.4,1.3-2.6,2.3
						C179.9,250.7,179.8,250.7,179.7,250.7z M180.2,248.5v0.6c0.2-0.2,0.4-0.4,0.6-0.6C180.6,248.5,180.3,248.5,180.2,248.5z
						 M180.1,247.6C180.1,247.6,180.1,247.6,180.1,247.6C180.1,247.6,180.1,247.6,180.1,247.6z"/>
					<path fill="#15161A" d="M190,246c-0.1,0-0.2,0-0.3-0.1c-0.8-0.7-1.5-1.4-1.5-1.4c-0.2-0.1-0.2-0.4-0.1-0.6
						c0.1-0.2,0.3-0.3,0.5-0.3c0.4,0.1,0.9,0.1,1.1,0.1c0.1-0.1,0.3-0.1,0.5-0.1c0.2,0.1,0.4,0.3,0.4,0.5v1.4c0,0.2-0.1,0.4-0.3,0.5
						C190.1,246,190.1,246,190,246z M189.6,243.8L189.6,243.8L189.6,243.8z"/>
					<path fill="#15161A" d="M186.1,258.1c-0.6,0-1.4-0.1-1.7-0.3c-0.1-0.1-0.5-0.4-0.4-2.3c-5.8,0.3-5.9,0-6.1-0.3
						c0-0.1-0.1-0.2-0.1-0.2v-3.2c0-0.2,0.2-0.4,0.4-0.5c0.1,0,0.3,0,0.4,0.1c0.5,0.1,3.5,0.1,6.1-0.1c0.1,0,0.3,0.1,0.4,0.2
						c0.1,0.1,0.1,0.3,0.1,0.4c-0.1,0.8-0.2,1.6-0.1,2c0.3,0.1,1.5,0.1,1.8,0c0-0.3,0-1.2-0.1-2c0-0.1,0-0.3,0.1-0.4
						c0.1-0.1,0.2-0.2,0.4-0.2c2.6,0.1,5.5,0.2,6.1,0.1c0.1-0.1,0.2-0.1,0.4-0.1c0.2,0,0.4,0.2,0.4,0.5v3.2c0,0.1,0,0.1,0,0.2
						c-0.1,0.4-0.2,0.7-6.2,0.4c0,1.2-0.1,1.9-0.3,2.2c-0.2,0.2-0.4,0.3-0.9,0.4C186.6,258.1,186.4,258.1,186.1,258.1z M185,257
						c0.3,0.1,1.5,0.1,1.9,0c0.1-0.3,0.1-1.2,0.1-2c0-0.1,0-0.1,0-0.2c-0.1,0-0.1,0-0.2,0c-0.4,0-1.2,0.1-1.9-0.1c0,0.1,0,0.1,0,0.2
						C184.9,255.8,184.9,256.7,185,257z M178.3,255L178.3,255L178.3,255z M187.7,254.5c2.2,0.1,4.6,0.2,5.5,0.1v-2.2
						c-0.8,0.1-2.4,0.1-5.3-0.1C188,254.1,187.7,254.4,187.7,254.5L187.7,254.5z M178.8,254.6c0.9,0.1,3.3,0,5.5-0.1
						c-0.2-0.2-0.3-0.6-0.2-2.2c-3,0.1-4.5,0.1-5.3,0.1V254.6z M185,253.9L185,253.9L185,253.9z M193.2,251.6L193.2,251.6
						L193.2,251.6z"/>
					<path fill="#15161A" d="M192.2,250.7c-0.1,0-0.3,0-0.3-0.1c-1.1-1.1-2.5-2.3-2.5-2.3c-0.2-0.1-0.2-0.4-0.1-0.6
						c0.1-0.2,0.3-0.3,0.5-0.3c0.9,0.1,1.9,0.1,2.2,0.1c0.1-0.1,0.3-0.1,0.5-0.1c0.2,0.1,0.3,0.3,0.3,0.5v2.3c0,0.2-0.1,0.4-0.3,0.5
						C192.4,250.7,192.3,250.7,192.2,250.7z M191.1,248.5c0.2,0.2,0.4,0.4,0.6,0.6v-0.6C191.6,248.5,191.4,248.5,191.1,248.5z
						 M191.9,247.5C191.9,247.5,191.9,247.5,191.9,247.5C191.9,247.5,191.9,247.5,191.9,247.5z"/>
				</g>
			</g>
			<g>
				<path fill="#15161A" d="M266.1,203.8c-0.6,0-1.4-0.1-1.7-0.3c-0.1-0.1-0.5-0.4-0.3-2.3c-6,0.3-6.1,0-6.3-0.3
					c-0.2-0.4-0.3-0.6,3-3.6c-1.3,0-1.4-0.2-1.5-0.3c-0.3-0.4-0.4-0.6,2.8-3.5c-0.4-0.1-0.5-0.2-0.5-0.3c-0.3-0.4-0.5-0.6,4.1-4.7
					c0.2-0.2,0.5-0.2,0.7,0c4.5,4,4.4,4.3,4.1,4.7c-0.1,0.1-0.2,0.3-0.6,0.3c3.2,2.9,3.1,3.1,2.7,3.5c-0.1,0.1-0.3,0.3-1.5,0.3
					c3.2,2.9,3.1,3.2,3,3.5c-0.1,0.4-0.2,0.7-6.3,0.4c0.2,1.7-0.1,2.1-0.2,2.2c-0.2,0.2-0.4,0.3-0.9,0.4
					C266.7,203.8,266.4,203.8,266.1,203.8z M265.1,202.7c0.3,0.1,1.5,0.1,1.8,0c0-0.3,0-1.2-0.1-2c0-0.1,0-0.3,0.1-0.4
					c0.1-0.1,0.2-0.2,0.4-0.2c2.1,0.1,4.4,0.2,5.5,0.1c-0.7-0.7-2.1-2.1-3.4-3.2c-0.2-0.1-0.2-0.4-0.1-0.6c0.1-0.2,0.3-0.3,0.5-0.3
					c0.5,0.1,1.1,0.1,1.6,0.1c-0.7-0.7-2-1.9-3.2-3c-0.2-0.1-0.2-0.4-0.1-0.6c0.1-0.2,0.3-0.3,0.5-0.3c0.2,0,0.4,0.1,0.5,0.1
					c-0.7-0.7-1.9-1.9-3.1-2.9c-1.2,1.1-2.5,2.3-3.1,2.9c0.2,0,0.4,0,0.6-0.1c0.2,0,0.4,0.1,0.5,0.3c0.1,0.2,0,0.4-0.1,0.6
					c-1.2,1.1-2.6,2.3-3.3,3c0.5,0,1.1-0.1,1.6-0.1c0.2,0,0.4,0.1,0.5,0.3c0.1,0.2,0,0.4-0.1,0.6c-1.3,1.2-2.7,2.5-3.4,3.2
					c1.1,0,3.4,0,5.5-0.1c0.1,0,0.3,0.1,0.4,0.2c0.1,0.1,0.1,0.3,0.1,0.4C265.1,201.6,265,202.4,265.1,202.7z M265.1,202.8
					L265.1,202.8L265.1,202.8z"/>
				<g>
					<path fill="#15161A" d="M262,194.9c-0.1,0-0.1,0-0.2,0c-0.2-0.1-0.3-0.3-0.3-0.5V193c0-0.2,0.1-0.4,0.3-0.5
						c0.2-0.1,0.3,0,0.5,0.1c0.2,0,0.7,0,1.2-0.1c0.2,0,0.4,0.1,0.5,0.3c0.1,0.2,0,0.4-0.1,0.6c0,0-0.7,0.6-1.6,1.4
						C262.2,194.8,262.1,194.9,262,194.9z M262.4,192.7L262.4,192.7L262.4,192.7z"/>
					<path fill="#15161A" d="M259.7,199.6c-0.1,0-0.1,0-0.2,0c-0.2-0.1-0.3-0.3-0.3-0.5v-2.4c0-0.2,0.1-0.4,0.3-0.5
						c0.2-0.1,0.3,0,0.5,0.1c0.3,0.1,1.4,0,2.2-0.1c0.2,0,0.4,0.1,0.5,0.3c0.1,0.2,0,0.4-0.1,0.6c0,0-1.4,1.3-2.6,2.3
						C260,199.5,259.9,199.6,259.7,199.6z M260.2,197.4v0.6c0.2-0.2,0.4-0.4,0.6-0.6C260.6,197.4,260.4,197.4,260.2,197.4z
						 M260.1,196.4L260.1,196.4C260.1,196.4,260.1,196.4,260.1,196.4z"/>
					<path fill="#15161A" d="M270.1,194.9c-0.1,0-0.2,0-0.3-0.1c-0.8-0.8-1.5-1.4-1.5-1.4c-0.2-0.1-0.2-0.4-0.1-0.6
						c0.1-0.2,0.3-0.3,0.5-0.3c0.4,0.1,0.9,0.1,1.1,0.1c0.1-0.1,0.3-0.1,0.5-0.1c0.2,0.1,0.4,0.3,0.4,0.5v1.4c0,0.2-0.1,0.4-0.3,0.5
						C270.2,194.9,270.1,194.9,270.1,194.9z M269.7,192.7L269.7,192.7L269.7,192.7z"/>
					<path fill="#15161A" d="M266.1,207c-0.6,0-1.4-0.1-1.7-0.3c-0.1-0.1-0.5-0.4-0.4-2.3c-5.8,0.3-5.9,0-6.1-0.3
						c0-0.1-0.1-0.2-0.1-0.2v-3.2c0-0.2,0.2-0.4,0.4-0.5c0.1,0,0.3,0,0.4,0.1c0.5,0.1,3.5,0.1,6.1-0.1c0.1,0,0.3,0.1,0.4,0.2
						c0.1,0.1,0.1,0.3,0.1,0.4c-0.1,0.8-0.2,1.6-0.1,2c0.3,0.1,1.5,0.1,1.8,0c0-0.3,0-1.2-0.1-2c0-0.1,0-0.3,0.1-0.4
						c0.1-0.1,0.2-0.2,0.4-0.2c2.6,0.1,5.5,0.2,6.1,0.1c0.1-0.1,0.2-0.1,0.4-0.1c0.2,0,0.4,0.2,0.4,0.5v3.2c0,0.1,0,0.1,0,0.2
						c-0.1,0.4-0.2,0.7-6.2,0.4c0,1.2-0.1,1.9-0.3,2.2c-0.2,0.2-0.4,0.3-0.9,0.4C266.7,207,266.4,207,266.1,207z M265.1,205.9
						c0.3,0.1,1.5,0.1,1.9,0c0.1-0.3,0.1-1.2,0.1-2c0-0.1,0-0.1,0-0.2c-0.1,0-0.1,0-0.2,0c-0.4,0-1.2,0.1-1.9-0.1c0,0.1,0,0.1,0,0.2
						C265,204.7,265,205.6,265.1,205.9z M258.3,203.9L258.3,203.9L258.3,203.9z M267.7,203.4c2.2,0.1,4.7,0.2,5.5,0.1v-2.2
						c-0.8,0.1-2.4,0.1-5.3-0.1C268.1,203,267.8,203.3,267.7,203.4L267.7,203.4z M258.8,203.5c0.9,0.1,3.3,0,5.5-0.1
						c-0.2-0.2-0.3-0.6-0.2-2.2c-3,0.1-4.5,0.1-5.3,0.1V203.5z M265.1,202.8L265.1,202.8L265.1,202.8z"/>
					<path fill="#15161A" d="M272.3,199.6c-0.1,0-0.3,0-0.3-0.1c-1.1-1.1-2.5-2.3-2.5-2.3c-0.2-0.1-0.2-0.4-0.1-0.6
						c0.1-0.2,0.3-0.3,0.5-0.3c0.9,0.1,1.9,0.1,2.2,0.1c0.1-0.1,0.3-0.1,0.5-0.1c0.2,0.1,0.3,0.3,0.3,0.5v2.3c0,0.2-0.1,0.4-0.3,0.5
						C272.4,199.6,272.4,199.6,272.3,199.6z M271.2,197.3c0.2,0.2,0.4,0.4,0.6,0.6v-0.6C271.6,197.4,271.4,197.4,271.2,197.3z
						 M271.9,196.4L271.9,196.4L271.9,196.4z"/>
				</g>
			</g>
			<g>
				<path fill="#15161A" d="M231.2,224.8C231.2,224.8,231.2,224.8,231.2,224.8c-0.6,0-1-0.2-1.2-0.4c-0.4,0.2-0.9,0.2-1.4,0.1
					c-0.4-0.1-0.8-0.3-0.9-0.6c-0.4,0.1-0.9,0-1.3-0.2c-0.3-0.2-0.6-0.4-0.7-0.7c0,0,0,0,0,0c-0.4,0-0.8-0.2-1.1-0.4
					c-0.3-0.2-0.4-0.5-0.4-0.8c0,0,0,0,0-0.1c-0.4-0.1-0.7-0.3-0.9-0.6c-0.2-0.2-0.2-0.5-0.1-0.8c0,0,0-0.1,0-0.1
					c-0.3-0.2-0.5-0.5-0.6-0.8c-0.1-0.3,0.1-0.6,0.3-0.9c-0.2-0.3-0.3-0.6-0.2-0.9c0.1-0.3,0.3-0.6,0.6-0.8c0,0,0-0.1,0-0.1
					c-0.1-0.3,0-0.6,0.2-0.8c0.2-0.3,0.5-0.5,0.9-0.6c0,0,0,0,0-0.1c0-0.3,0.2-0.6,0.5-0.8c0.3-0.2,0.8-0.4,1.2-0.3c0,0,0,0,0,0
					c0.1-0.3,0.4-0.6,0.8-0.7c0.4-0.2,0.8-0.2,1.3-0.1c0.2-0.3,0.6-0.5,1-0.6c0.4-0.1,0.9,0,1.3,0.1c0.6-0.5,1.8-0.5,2.4,0
					c0.4-0.2,0.8-0.2,1.3-0.1c0.4,0.1,0.8,0.3,1,0.6c0.4-0.1,0.9-0.1,1.3,0.1c0.4,0.2,0.6,0.4,0.7,0.8c0,0,0,0,0,0
					c0.4,0,0.9,0.1,1.2,0.4c0.3,0.2,0.4,0.5,0.4,0.8c0,0,0,0,0,0c0.4,0.1,0.8,0.3,1,0.6c0.2,0.3,0.2,0.6,0.1,0.8c0,0,0,0.1,0,0.1
					c0.3,0.2,0.6,0.5,0.6,0.8c0.1,0.3-0.1,0.7-0.3,0.9c0,0.1,0.1,0.1,0.1,0.2c0.1,0.2,0.2,0.5,0.1,0.8c-0.1,0.3-0.3,0.6-0.7,0.8
					c0,0,0,0.1,0,0.1c0.1,0.3,0,0.6-0.2,0.9c-0.2,0.3-0.6,0.5-1,0.6c0,0,0,0,0,0c0,0.3-0.2,0.6-0.5,0.9c-0.3,0.2-0.8,0.3-1.2,0.3
					c0,0,0,0,0,0c-0.1,0.3-0.4,0.6-0.8,0.8c-0.4,0.2-0.9,0.2-1.3,0.1c-0.2,0.3-0.6,0.5-1.1,0.6c-0.5,0.1-0.9,0-1.3-0.2
					C232.1,224.6,231.7,224.8,231.2,224.8z M230.1,223.1c0,0,0.1,0,0.1,0c0.2,0,0.3,0.2,0.4,0.4c0,0.1,0.2,0.3,0.6,0.3
					c0.4,0,0.6-0.1,0.7-0.3c0.1-0.2,0.2-0.3,0.4-0.3c0.2,0,0.4,0.1,0.5,0.2c0.1,0.2,0.4,0.3,0.8,0.2c0.3,0,0.4-0.2,0.4-0.3
					c0-0.2,0.1-0.4,0.3-0.5c0.2-0.1,0.4-0.1,0.5,0c0.2,0.1,0.6,0.2,0.9,0.1c0.1-0.1,0.2-0.1,0.2-0.2c-0.1-0.2-0.1-0.4,0.1-0.6
					c0.1-0.2,0.4-0.2,0.6-0.2c0.3,0.1,0.7,0.1,0.9-0.1c0.1-0.1,0.1-0.1,0.1-0.1c0,0,0,0-0.1-0.1c-0.2-0.1-0.2-0.4-0.1-0.6
					c0.1-0.2,0.3-0.3,0.5-0.3c0.4,0.1,0.7-0.1,0.8-0.2c0-0.1,0-0.1-0.2-0.2c-0.2-0.1-0.3-0.3-0.3-0.6c0-0.2,0.2-0.4,0.5-0.4
					c0.4,0,0.6-0.2,0.6-0.3c0,0-0.1-0.2-0.4-0.2c-0.2-0.1-0.4-0.3-0.4-0.5c0-0.2,0.2-0.4,0.4-0.5c0.3-0.1,0.4-0.2,0.4-0.2
					c0-0.1-0.2-0.2-0.6-0.3c-0.2,0-0.4-0.2-0.5-0.4c0-0.2,0.1-0.5,0.3-0.6c0.2-0.1,0.2-0.2,0.2-0.2c-0.1-0.2-0.5-0.3-0.8-0.2
					c-0.2,0-0.4-0.1-0.5-0.3c-0.1-0.2,0-0.4,0.1-0.6c0.1-0.1,0.1-0.1,0.1-0.1c0,0,0,0-0.1-0.1c-0.2-0.2-0.6-0.2-1-0.1
					c-0.2,0.1-0.4,0-0.6-0.1c-0.1-0.2-0.2-0.4-0.1-0.6c0-0.1-0.1-0.2-0.2-0.2c-0.3-0.1-0.7-0.1-1,0.1c-0.2,0.1-0.4,0.1-0.5,0
					c-0.2-0.1-0.3-0.3-0.2-0.5c0-0.1-0.1-0.2-0.4-0.3c-0.3-0.1-0.7,0-0.8,0.2c-0.1,0.1-0.3,0.2-0.4,0.1c-0.2,0-0.3-0.1-0.4-0.3
					c-0.1-0.1-0.3-0.3-0.6-0.3c-0.4,0-0.6,0.2-0.6,0.3c-0.1,0.2-0.2,0.3-0.4,0.3c-0.2,0-0.3,0-0.5-0.1c-0.1-0.1-0.5-0.3-0.8-0.2
					c-0.3,0.1-0.4,0.2-0.4,0.3c0,0.2-0.1,0.3-0.3,0.4c-0.2,0.1-0.3,0.1-0.5,0c-0.3-0.1-0.6-0.2-0.9-0.1c-0.1,0.1-0.2,0.1-0.2,0.2
					c0.1,0.2,0,0.4-0.1,0.6c-0.1,0.1-0.3,0.2-0.5,0.2c-0.3-0.1-0.7-0.1-0.9,0.1c-0.1,0-0.1,0.1-0.1,0.1c0.1,0.2,0.2,0.4,0.1,0.6
					c-0.1,0.2-0.3,0.3-0.5,0.3c-0.4,0-0.7,0.1-0.8,0.2c0,0,0,0.1,0.1,0.2c0.2,0.1,0.3,0.3,0.2,0.5c0,0.2-0.2,0.4-0.4,0.4
					c-0.3,0-0.5,0.2-0.6,0.3c0,0,0.1,0.1,0.3,0.2c0.2,0.1,0.3,0.3,0.3,0.5c0,0.2-0.2,0.4-0.4,0.5c-0.3,0.1-0.3,0.2-0.3,0.2
					c0,0.1,0.2,0.2,0.5,0.3c0.2,0,0.4,0.2,0.4,0.4c0,0.2-0.1,0.4-0.3,0.5c-0.1,0.1-0.2,0.1-0.2,0.2c0.1,0.2,0.4,0.3,0.7,0.2
					c0.2,0,0.4,0.1,0.5,0.3c0.1,0.2,0,0.4-0.1,0.6c-0.1,0-0.1,0.1-0.1,0.1c0,0,0,0,0.1,0.1c0.2,0.2,0.6,0.2,0.9,0.1
					c0.2-0.1,0.4,0,0.5,0.2c0.1,0.2,0.1,0.4,0.1,0.5c0,0.1,0.1,0.1,0.2,0.2c0.3,0.1,0.7,0.1,0.9,0c0.2-0.1,0.4-0.1,0.5,0
					c0.2,0.1,0.2,0.3,0.2,0.5c0,0.1,0.1,0.2,0.4,0.2c0.4,0.1,0.7,0,0.9-0.2C229.8,223.2,230,223.1,230.1,223.1z"/>
				<g>
					<path fill="#15161A" d="M239.4,217.7c-0.1,0-0.1,0-0.2,0c-0.1,0-0.2-0.1-0.3-0.1c-0.2,0-0.4-0.2-0.5-0.4c0-0.2,0.1-0.5,0.3-0.6
						c0.2-0.1,0.2-0.2,0.2-0.2c0-0.1,0-0.2,0.1-0.3c0.1-0.2,0.4-0.2,0.6-0.2c0.2,0.1,0.3,0.3,0.3,0.5v0.8c0,0.2-0.1,0.3-0.2,0.4
						C239.6,217.7,239.5,217.7,239.4,217.7z"/>
					<path fill="#15161A" d="M223.7,217.6c-0.1,0-0.2,0-0.3-0.1c-0.1-0.1-0.2-0.2-0.2-0.4v-0.6c0-0.2,0.1-0.4,0.3-0.5
						c0.2-0.1,0.4,0,0.6,0.2c0,0.1,0.1,0.2,0.1,0.2c0,0,0,0.1,0.1,0.1c0,0,0,0,0,0c0,0,0.1,0.1,0.1,0.1c0.2,0.1,0.2,0.3,0.2,0.5
						c-0.1,0.2-0.3,0.3-0.5,0.4c-0.1,0-0.2,0-0.3,0.1C223.8,217.6,223.8,217.6,223.7,217.6z"/>
					<path fill="#15161A" d="M231.2,227.8C231.2,227.8,231.2,227.8,231.2,227.8c-0.6,0-1-0.2-1.2-0.4c-0.4,0.2-0.9,0.2-1.4,0.1
						c-0.4-0.1-0.8-0.3-0.9-0.6c-0.4,0.1-0.9,0-1.3-0.2c-0.4-0.2-0.6-0.4-0.7-0.8c-0.4,0-0.9-0.2-1.1-0.4c-0.2-0.2-0.3-0.4-0.4-0.6
						c0-0.1,0-0.1,0-0.2v0c-0.4-0.1-0.7-0.3-0.9-0.6c-0.1-0.2-0.2-0.4-0.1-0.7l0-0.3c-0.2-0.1-0.4-0.3-0.5-0.6
						c0-0.1-0.1-0.2-0.1-0.3v-3.1c0-0.2,0.1-0.4,0.3-0.5c0.2-0.1,0.4,0,0.5,0.1c0.1,0.1,0.1,0.2,0.2,0.3c0,0.1,0.2,0.2,0.5,0.2
						c0.2,0,0.4,0.2,0.4,0.4c0,0.2-0.1,0.4-0.3,0.5c-0.1,0.1-0.2,0.1-0.2,0.2c0.1,0.2,0.4,0.3,0.7,0.2c0.2,0,0.4,0.1,0.5,0.3
						c0.1,0.2,0,0.4-0.1,0.6c-0.1,0-0.1,0.1-0.1,0.1c0,0,0,0,0.1,0.1c0.2,0.2,0.6,0.2,0.9,0.1c0.2-0.1,0.4,0,0.5,0.2
						c0.1,0.2,0.1,0.4,0.1,0.5c0,0.1,0.1,0.1,0.2,0.2c0.3,0.1,0.7,0.1,0.9,0c0.2-0.1,0.4-0.1,0.5,0c0.2,0.1,0.2,0.3,0.2,0.5
						c0,0.1,0.1,0.2,0.4,0.2c0.4,0.1,0.7,0,0.9-0.2c0.1-0.1,0.3-0.2,0.5-0.2c0.2,0,0.3,0.2,0.4,0.4c0,0.1,0.2,0.3,0.6,0.3
						c0.4,0,0.6-0.1,0.7-0.3c0.1-0.2,0.2-0.3,0.4-0.3c0.2,0,0.4,0.1,0.5,0.2c0.1,0.2,0.4,0.3,0.8,0.2c0.3,0,0.4-0.2,0.4-0.3
						c0-0.2,0.1-0.4,0.3-0.5c0.2-0.1,0.4-0.1,0.5,0c0.2,0.1,0.6,0.2,0.9,0.1c0.1-0.1,0.2-0.1,0.2-0.2c-0.1-0.2-0.1-0.4,0.1-0.6
						c0.1-0.2,0.4-0.2,0.6-0.2c0.3,0.1,0.7,0.1,0.9-0.1c0.1-0.1,0.1-0.1,0.1-0.1c0,0,0,0-0.1-0.1c-0.2-0.1-0.2-0.4-0.1-0.6
						c0.1-0.2,0.3-0.3,0.5-0.3c0.4,0.1,0.7-0.1,0.8-0.2c0-0.1,0-0.1-0.2-0.2c-0.2-0.1-0.3-0.3-0.3-0.6c0-0.2,0.2-0.4,0.5-0.4
						c0.4,0,0.6-0.1,0.6-0.2c0-0.2,0-0.4,0.1-0.5c0.1-0.1,0.4-0.2,0.6-0.1c0.2,0.1,0.3,0.3,0.3,0.5v0.1c0,0,0,0,0,0v3.1
						c0,0,0,0.1,0,0.1c0,0,0,0.1,0,0.1c-0.1,0.3-0.3,0.6-0.6,0.7v0.4c0,0,0,0.1,0,0.1c0,0.2-0.1,0.4-0.2,0.5c-0.2,0.3-0.6,0.5-1,0.6
						c0,0,0,0,0,0h0c0,0.3-0.2,0.7-0.5,0.9c-0.3,0.2-0.8,0.3-1.2,0.3c-0.1,0.3-0.4,0.6-0.8,0.8c-0.4,0.2-0.9,0.2-1.3,0.1
						c-0.2,0.3-0.6,0.5-1.1,0.6c-0.5,0.1-0.9,0-1.3-0.2C232.1,227.7,231.7,227.8,231.2,227.8z M230.1,226.2c0,0,0.1,0,0.1,0
						c0.2,0,0.3,0.2,0.4,0.4c0,0.1,0.2,0.3,0.6,0.3c0.4,0,0.6-0.1,0.7-0.3c0.1-0.2,0.2-0.3,0.4-0.3c0.2,0,0.4,0.1,0.5,0.2
						c0.1,0.2,0.4,0.3,0.8,0.2c0.3,0,0.4-0.2,0.4-0.3c0-0.2,0.1-0.4,0.3-0.5c0.2-0.1,0.4-0.1,0.5,0c0.2,0.1,0.6,0.2,0.9,0.1
						c0.2-0.1,0.2-0.2,0.2-0.2c0,0,0-0.1,0-0.1v-0.1c0-0.2,0.1-0.3,0.2-0.4c0.1-0.1,0.3-0.1,0.4-0.1c0.3,0.1,0.7,0.1,0.9-0.1
						c0.1-0.1,0.1-0.1,0.1-0.1c0,0,0,0,0-0.1v-0.4c0-0.1,0.1-0.3,0.2-0.4c0.1-0.1,0.2-0.1,0.4-0.1c0.3,0,0.6-0.1,0.7-0.2
						c0,0,0-0.1,0-0.1V223c0-0.2,0.1-0.4,0.3-0.5c0.2-0.1,0.2-0.1,0.3-0.2c0,0,0,0,0,0c0,0,0,0,0,0v-0.8c-0.2,0.2-0.5,0.3-0.8,0.4
						c0,0,0,0,0,0c0,0.3-0.2,0.6-0.5,0.9c-0.3,0.2-0.8,0.3-1.2,0.3c0,0,0,0,0,0c-0.1,0.3-0.4,0.6-0.8,0.8c-0.4,0.2-0.9,0.2-1.3,0.1
						c-0.2,0.3-0.6,0.5-1.1,0.6c-0.5,0.1-0.9,0-1.3-0.2c-0.3,0.3-0.8,0.4-1.3,0.4c-0.5,0-0.9-0.2-1.2-0.4c-0.4,0.2-0.9,0.2-1.4,0.1
						c-0.4-0.1-0.8-0.3-0.9-0.6c-0.4,0.1-0.9,0-1.3-0.2c-0.3-0.2-0.6-0.4-0.7-0.7c0,0,0,0,0,0c-0.4,0-0.8-0.2-1.1-0.4
						c-0.3-0.2-0.4-0.5-0.4-0.8c0,0,0,0,0-0.1c-0.2-0.1-0.4-0.2-0.6-0.3v0.8c0,0,0,0,0,0c0,0,0.1,0.1,0.2,0.2
						c0.2,0.1,0.3,0.3,0.3,0.5v0.7c0.1,0.2,0.3,0.3,0.6,0.3c0.3,0,0.5,0.2,0.5,0.5v0.3c0,0,0,0.1,0,0.1c0,0,0,0.1,0.1,0.1
						c0.2,0.1,0.5,0.2,0.8,0.1c0.1,0,0.3,0,0.4,0.1c0.1,0.1,0.2,0.2,0.2,0.4v0.1c0,0,0,0.1,0,0.1c0,0.1,0.1,0.1,0.2,0.2
						c0.3,0.1,0.7,0.1,0.9,0c0.2-0.1,0.4-0.1,0.5,0c0.2,0.1,0.2,0.3,0.2,0.5c0,0.1,0.1,0.2,0.4,0.2c0.4,0.1,0.7,0,0.9-0.2
						C229.8,226.2,230,226.2,230.1,226.2z"/>
					<path fill="#15161A" d="M223.1,219.4c0,0-0.1,0-0.1,0c-0.2-0.1-0.4-0.3-0.4-0.5c0,0,0-0.1,0-0.1c0-0.1,0-0.1,0-0.2l0-0.7
						c0-0.3,0.2-0.5,0.4-0.5c0.2,0,0.5,0.1,0.5,0.4c0,0,0.1,0.1,0.3,0.2c0.2,0.1,0.3,0.3,0.3,0.5c0,0.2-0.2,0.4-0.4,0.5
						c-0.2,0.1-0.3,0.1-0.3,0.2C223.5,219.3,223.3,219.4,223.1,219.4z"/>
					<path fill="#15161A" d="M239.9,219.7c-0.2,0-0.4-0.1-0.5-0.4c0,0-0.1-0.2-0.4-0.2c-0.2-0.1-0.4-0.3-0.4-0.5
						c0-0.2,0.2-0.4,0.4-0.5c0.2-0.1,0.4-0.2,0.4-0.2v-0.1c0-0.3,0.2-0.5,0.5-0.5c0.3,0,0.5,0.2,0.5,0.4c0,0.1,0,0.2,0,0.3v1
						c0,0.1,0,0.1,0,0.2c0,0,0,0.1,0,0.1C240.3,219.5,240.1,219.7,239.9,219.7C239.9,219.7,239.9,219.7,239.9,219.7z"/>
				</g>
			</g>
		</g>
	</g>
	<g>
		<g>
			<path fill="#15161A" d="M326.8,249.5h-54.3c-0.3,0-0.5-0.2-0.5-0.5v-2.6H271c-0.3,0-0.5-0.2-0.5-0.5v-0.5
				c-5.3,0.9-13.1-0.1-13.1-2.9c0-2.8,7.9-3.8,13.1-2.9v-0.6c0-0.3,0.2-0.5,0.5-0.5h1.1V236c0-0.3,0.2-0.5,0.5-0.5h54.3
				c0.3,0,0.5,0.2,0.5,0.5v2.6h1.4c0.3,0,0.5,0.2,0.5,0.5v0.9c1.5-0.4,3.4-0.6,5.3-0.6c4.5,0,9.1,1.1,9.1,3.2c0,2.1-4.6,3.2-9.1,3.2
				c-1.9,0-3.8-0.2-5.3-0.6v0.7c0,0.3-0.2,0.5-0.5,0.5h-1.4v2.6C327.3,249.3,327.1,249.5,326.8,249.5z M273,248.5h53.3V246
				c0-0.3,0.2-0.5,0.5-0.5h1.4v-0.9c0-0.2,0.1-0.3,0.2-0.4c0.1-0.1,0.3-0.1,0.4-0.1c1.6,0.5,3.6,0.7,5.7,0.7c4.9,0,8.1-1.3,8.1-2.2
				s-3.1-2.2-8.1-2.2c-2.1,0-4.1,0.3-5.7,0.7c-0.2,0-0.3,0-0.4-0.1c-0.1-0.1-0.2-0.2-0.2-0.4v-1h-1.4c-0.3,0-0.5-0.2-0.5-0.5v-2.6
				H273v2.6c0,0.3-0.2,0.5-0.5,0.5h-1.1v0.7c0,0.1-0.1,0.3-0.2,0.4c-0.1,0.1-0.3,0.1-0.4,0.1c-1.3-0.3-2.9-0.4-4.4-0.4
				c-4.9,0-8.1,1.3-8.1,2.2s3.1,2.2,8.1,2.2c1.6,0,3.1-0.1,4.4-0.4c0.1,0,0.3,0,0.4,0.1c0.1,0.1,0.2,0.2,0.2,0.4v0.6h1.1
				c0.3,0,0.5,0.2,0.5,0.5V248.5z"/>
		</g>
		<path fill="#15161A" d="M324.5,240.9h-50.2c-0.3,0-0.5-0.2-0.5-0.5v-3.2c0-0.3,0.2-0.5,0.5-0.5h50.2c0.3,0,0.5,0.2,0.5,0.5v3.2
			C325,240.7,324.8,240.9,324.5,240.9z M274.8,239.9H324v-2.2h-49.2V239.9z"/>
		<path fill="#15161A" d="M336.6,243.2c-0.8,0-4.6-0.1-4.6-1.5c0-1.4,3.8-1.5,4.6-1.5c0.8,0,4.6,0.1,4.6,1.5
			C341.2,243.1,337.3,243.2,336.6,243.2z M333.1,241.7c0.5,0.2,1.7,0.5,3.5,0.5c1.8,0,3-0.3,3.5-0.5c-0.5-0.2-1.7-0.5-3.5-0.5
			C334.8,241.2,333.6,241.5,333.1,241.7z"/>
		<path fill="#15161A" d="M266.2,243.2c-0.8,0-4.6-0.1-4.6-1.5c0-1.4,3.8-1.5,4.6-1.5s4.6,0.1,4.6,1.5
			C270.8,243.1,267,243.2,266.2,243.2z M262.7,241.7c0.5,0.2,1.7,0.5,3.5,0.5c1.8,0,3-0.3,3.5-0.5c-0.5-0.2-1.7-0.5-3.5-0.5
			C264.4,241.2,263.2,241.5,262.7,241.7z"/>
		<g>
			<path fill="#15161A" d="M272.5,249.5c-0.3,0-0.5-0.2-0.5-0.5v-13c0-0.3,0.2-0.5,0.5-0.5c0.3,0,0.5,0.2,0.5,0.5v13
				C273,249.3,272.8,249.5,272.5,249.5z"/>
		</g>
		<g>
			<path fill="#15161A" d="M326.8,249.5c-0.3,0-0.5-0.2-0.5-0.5v-13c0-0.3,0.2-0.5,0.5-0.5c0.3,0,0.5,0.2,0.5,0.5v13
				C327.3,249.3,327,249.5,326.8,249.5z"/>
		</g>
	</g>
</g>
</svg>
