<?xml version="1.0" encoding="utf-8"?>
<!-- Generator: Adobe Illustrator 18.1.1, SVG Export Plug-In . SVG Version: 6.00 Build 0)  -->
<svg version="1.1" id="_x31_" xmlns="http://www.w3.org/2000/svg" xmlns:xlink="http://www.w3.org/1999/xlink" x="0px" y="0px"
	 viewBox="0 0 550 460" enable-background="new 0 0 550 460" xml:space="preserve">
<g>
	<path fill="#15161A" d="M233.6,249.2c-0.2,0-0.3-0.1-0.4-0.2l-1.3-1.8c-0.1-0.2-0.1-0.4,0-0.6l5.9-8.2c0.1-0.1,0.2-0.2,0.4-0.2l0,0
		c0.2,0,0.3,0.1,0.4,0.2l4.6,6.4c0.1,0.1,0.1,0.3,0.1,0.4c0,0.1-0.2,0.3-0.3,0.3l-9.2,3.6C233.7,249.2,233.6,249.2,233.6,249.2z
		 M232.9,246.9l0.9,1.2l8.2-3.2l-3.8-5.3L232.9,246.9z"/>
	<path fill="#15161A" d="M243.8,237.7c-0.1,0-0.2,0-0.3,0c-0.5-0.1-0.8-0.2-1-0.6l0,0c-1.9-2.7,14.3-20.7,16.6-22.9
		c4-3.9,8-5.2,10.9-3.8c1.2,0.6,2,1.8,2.2,3.4c0.4,2.9-1.2,6.1-4.4,8.9C262.7,227.2,248.3,237.7,243.8,237.7z M243.3,236.6
		c0.1,0.1,0.2,0.1,0.3,0.1c3.3,0.4,17.6-9.6,23.4-14.8c4.1-3.6,4.2-6.8,4.1-8c-0.2-1.2-0.8-2.2-1.6-2.6c-2.6-1.3-6.1,0-9.8,3.6
		C254.6,220,242.4,234.9,243.3,236.6z"/>
	<path fill="#15161A" d="M316.2,252.6c-0.3,0-0.5-0.2-0.5-0.5c-0.2-2.3-0.9-6.7-2.9-9.8c-1.5-2.3-6-3.9-9.6-6.2
		c-3.3-2.1-6.4-4-7.9-6c-1.3-1.7-3.3-5.2-5.4-8.9c-2.5-4.4-5.5-11.8-6.5-11.9c-1.4-0.2-5.1,2.8-7.1,4.8c-0.1,0.1-0.2,0.1-0.3,0.1
		l-0.1,0c-0.2,0-0.5-0.1-0.5-0.3l-0.5-1.1c-0.1-0.2,0-0.4,0.1-0.5c0.2-0.2,4.5-5.8,8-6.2c2.5-0.3,5.9,4.4,11,11.6
		c1.5,2.2,3,4.3,4.3,5.9c2.1,2.6,5,5.2,7.8,7.7c3.3,3,6.7,6.1,8.9,9.2c4,5.8,3.5,11.2,3.5,11.5c0,0.2-0.2,0.4-0.5,0.5L316.2,252.6
		C316.2,252.6,316.2,252.6,316.2,252.6z M283.2,208.3c0.1,0,0.2,0,0.3,0c1.4,0.2,2.9,4.7,7.3,12.4c2.1,3.7,4.1,7.2,5.4,8.8
		c1.4,1.8,4.4,3.7,7.6,5.7c3.7,2.4,8.3,4,9.9,6.5c1.9,3.1,2.7,7.3,3,9.8l0.6-0.1c0-1.3-0.2-5.8-3.3-10.4c-2.1-3-5.4-6.1-8.7-9
		c-2.8-2.6-5.8-5.2-7.9-7.9c-1.3-1.6-2.7-3.7-4.3-6c-3.5-5.1-8-11.5-10-11.2l0,0c-2.7,0.3-6.3,4.6-7.1,5.6l0.1,0.3
		C277.3,211.7,281.1,208.3,283.2,208.3z"/>
	<path fill="#15161A" d="M308.3,253.3c-0.2,0-0.4-0.1-0.4-0.3l-1.2-2.3c0,0,0-0.1,0-0.1c0-0.1-1.5-6.1-5.3-11.1
		c-0.2-0.2-0.1-0.5,0.1-0.7c0.2-0.2,0.5-0.2,0.7,0c0.2,0.2,6,5.4,8.4,13.7c0,0.1,0,0.3-0.1,0.4c-0.1,0.1-0.2,0.2-0.4,0.2
		L308.3,253.3C308.4,253.3,308.3,253.3,308.3,253.3z M307.6,250.3l1,1.9l0.7-0.1c-1-3.1-2.5-5.8-3.9-7.9
		C306.8,247.3,307.5,249.9,307.6,250.3z"/>
	<path fill="#15161A" d="M302.9,254c-0.2,0-0.5-0.2-0.5-0.4c0-0.1-0.9-5.8-2.5-8.4c-0.8-1.2-2.9-4.1-5.1-7.1
		c-2.6-3.6-5.6-7.6-6.9-9.7c-0.1-0.2-0.1-0.5,0.1-0.7c0.2-0.2,0.5-0.1,0.7,0.1c0,0,3.8,4.6,6.9,8.2c3.1,3.6,9,10.2,9.3,17.4
		c0,0.1,0,0.3-0.1,0.4c-0.1,0.1-0.2,0.2-0.3,0.2L302.9,254C302.9,254,302.9,254,302.9,254z M295.9,237.8c2.1,2.9,4.1,5.6,4.8,6.8
		c1.5,2.4,2.3,6.9,2.6,8.3l0.6,0C303.3,247,298.9,241.4,295.9,237.8z"/>
	<path fill="#15161A" d="M302.9,254c-0.3,0-0.5-0.2-0.5-0.4c0,0-0.5-4.6-2.5-8.4c-1.3-2.4-4.3-6.3-7-9.8c-1.6-2.1-3.1-4-4-5.3
		c-1.1-1.6-2.7-5-4.3-8.3c-1.5-3.1-3.4-7-3.9-7.4c-0.2-0.1-0.8-0.4-2.5,0c0.1,0.6-0.1,0.9-0.2,1c-0.1,0.1-0.2,0.2-0.4,0.3
		c1.3,2.3,1.6,4.6,1,6.8C276,231,260.3,238,245,244.7l-2.1,0.9c-0.2,0.1-0.5,0-0.6-0.2l-4.6-6.4c-0.1-0.2-0.1-0.4,0-0.6
		c9-13.5,19.3-27.9,28.7-29.2c2.6-0.4,5,0.3,7.2,2c0,0,0,0,0,0c0.4-0.4,1.2-0.4,2.1,0.2c1.5-1.7,4.6-5,7.2-5.3
		c2.5-0.3,5.9,4.4,11,11.6c1.5,2.2,3,4.3,4.3,5.9c2.1,2.6,5,5.2,7.8,7.7c3.3,3,6.7,6.1,8.9,9.2c4,5.8,3.5,11.2,3.5,11.5
		c0,0.2-0.2,0.4-0.5,0.5l-9.4,0.8c-0.2,0-0.4-0.1-0.5-0.3l-0.6-1.1l-0.4,1.6c-0.1,0.2-0.2,0.4-0.5,0.4L302.9,254
		C302.9,254,302.9,254,302.9,254z M279.7,213.1c0.7,0,1.2,0.1,1.6,0.4c0.7,0.5,1.8,2.7,4.3,7.8c1.6,3.3,3.2,6.6,4.2,8.2
		c0.9,1.3,2.3,3.2,3.9,5.2c2.7,3.5,5.8,7.5,7.1,10c1.8,3.3,2.4,7,2.6,8.3l2.7-0.1l0.7-2.5c0.1-0.2,0.2-0.3,0.4-0.4
		c0.2,0,0.4,0.1,0.5,0.3l1,2l8.6-0.8c0-1.3-0.2-5.8-3.3-10.4c-2.1-3-5.4-6.1-8.7-9c-2.8-2.6-5.8-5.2-7.9-7.9c-1.3-1.6-2.7-3.7-4.3-6
		c-3.5-5.1-8-11.5-10-11.2c-2.5,0.3-5.8,4.1-6.8,5.3c-0.2,0.2-0.5,0.2-0.7,0.1c-0.6-0.4-1-0.5-1.2-0.5c0,0,0,0,0,0.1
		c0,0.2-0.1,0.4-0.3,0.5c-0.2,0.1-0.4,0.1-0.6-0.1c-2.1-1.8-4.4-2.5-7-2.2c-8.9,1.2-19,15.3-27.8,28.5l4.2,5.8l1.7-0.8
		c14.3-6.3,30.5-13.5,32.8-21.6c0.7-2.3,0.2-4.6-1.4-6.9c-0.1-0.2-0.1-0.4,0-0.6c0.1-0.2,0.4-0.2,0.6-0.1c0.3,0.2,0.5,0.1,0.6,0.1
		c0,0,0-0.2-0.2-0.5c-0.1-0.1-0.1-0.3,0-0.4c0.1-0.1,0.2-0.2,0.3-0.3C278.3,213.2,279,213.1,279.7,213.1z M317.7,251.9L317.7,251.9
		L317.7,251.9z"/>
	<path fill="#15161A" d="M305.2,234.2c-0.1,0-0.1,0-0.2,0c-0.3-0.1-6.6-2.8-8.4-4.6c-1.8-1.8-4-8.5-4.1-8.8c-0.1-0.2,0-0.5,0.2-0.6
		c0.2-0.1,0.5-0.1,0.6,0.1c0,0.1,4.6,5.4,5.6,6.5c1,1.1,6.6,6.5,6.6,6.5c0.2,0.2,0.2,0.4,0.1,0.6
		C305.5,234.2,305.4,234.2,305.2,234.2z M294.6,223.4c0.9,2,2.1,4.6,3,5.5c0.9,0.9,3.2,2.2,5.1,3.1c-1.7-1.7-3.9-3.8-4.5-4.5
		C297.6,226.9,295.9,225,294.6,223.4z"/>
</g>
</svg>
