<?xml version="1.0" encoding="utf-8"?>
<!-- Generator: Adobe Illustrator 18.1.1, SVG Export Plug-In . SVG Version: 6.00 Build 0)  -->
<svg version="1.1" id="_x31_" xmlns="http://www.w3.org/2000/svg" xmlns:xlink="http://www.w3.org/1999/xlink" x="0px" y="0px"
	 viewBox="0 0 550 460" enable-background="new 0 0 550 460" xml:space="preserve">
<g>
	<g>
		<path fill="#15161A" d="M254.1,211.1c0.8-1.9,2.3-3.3,4.3-4c2-0.7,4.2-0.5,6.2,0.5c0,0,0,0,0,0c0.4,0.2,0.8,0.5,1.2,0.8
			c4.2-3.8,11.5-4.1,18.2-0.7c6.6,3.4,10.6,9.5,9.9,15.1c0.2,0.1,0.4,0.1,0.5,0.2c2,1,3.4,2.7,4,4.8c0.6,2,0.3,4-0.8,5.8
			c-2.2,3.6-7,4.9-10.9,2.9c-2-1-3.4-2.7-4-4.8c-3.3,0.1-6.9-0.7-10.1-2.3c-3.5-1.8-6.3-4.4-8.1-7.4c-2.1,0.9-4.5,0.8-6.6-0.3
			c-1.2-0.6-2.2-1.5-3-2.6C253.4,216.8,253,213.7,254.1,211.1z M265.5,220.8c1.6,3,4.4,5.6,7.8,7.4c3.2,1.6,6.7,2.4,9.9,2.2
			c0.3,0,0.6,0.2,0.7,0.5c0.4,1.9,1.6,3.5,3.4,4.4c3.2,1.7,7.3,0.6,9.1-2.4c0.9-1.4,1.1-3.1,0.6-4.7c-0.5-1.7-1.7-3.1-3.3-4
			c-0.2-0.1-0.5-0.2-0.8-0.3l-0.1,0c-0.3-0.1-0.5-0.4-0.4-0.7c0.9-5.1-2.9-11-9.1-14.2c-6.3-3.2-13.4-2.9-17,0.9
			c-0.2,0.3-0.7,0.3-0.9,0c-0.5-0.4-1-0.8-1.4-1l0,0c-1.7-0.9-3.5-1-5.2-0.4c-1.6,0.6-2.8,1.7-3.5,3.2c-1.4,3.2,0.1,7.2,3.3,8.8
			c1.9,1,4.2,1,6,0.1C264.9,220.4,265.3,220.5,265.5,220.8C265.5,220.8,265.5,220.8,265.5,220.8z"/>
		<path fill="#15161A" d="M256.5,218.9l0.8,0.7c0.5,0.4,0.9,0.7,1.3,0.9l0,0c1.9,1,4.2,1,6,0.1l0.6-0.3l0.3,0.6
			c1.6,3,4.4,5.6,7.8,7.4c3.2,1.6,6.7,2.4,9.9,2.2l0.6,0l0.1,0.6c0.4,1.9,1.6,3.5,3.4,4.4c0.7,0.4,1.5,0.6,2.4,0.7l1.3,0.2l-17,18.3
			l-22.8-11.8L256.5,218.9z M288.4,237.2c-0.6-0.2-1.1-0.4-1.6-0.6c-2-1-3.4-2.7-4-4.8c-3.3,0.1-6.9-0.7-10.1-2.3
			c-3.5-1.8-6.3-4.4-8.1-7.4c-2.1,0.9-4.5,0.8-6.6-0.3l0,0c-0.2-0.1-0.5-0.3-0.7-0.4l-4.5,20.9l21,10.9L288.4,237.2z"/>
		
			<rect x="267.3" y="227.6" transform="matrix(-0.8872 -0.4613 0.4613 -0.8872 395.7877 573.7058)" fill="#15161A" width="1.3" height="21.7"/>
		
			<rect x="272.8" y="229.2" transform="matrix(-0.8455 -0.534 0.534 -0.8455 376.0976 590.1096)" fill="#15161A" width="1.3" height="23"/>
		
			<rect x="277.3" y="232" transform="matrix(-0.7788 -0.6272 0.6272 -0.7788 341.819 607.196)" fill="#15161A" width="1.3" height="22.7"/>
		
			<rect x="262.5" y="223.9" transform="matrix(-0.9228 -0.3853 0.3853 -0.9228 415.3174 553.8743)" fill="#15161A" width="1.3" height="22.9"/>
		
			<rect x="257.7" y="221.8" transform="matrix(-0.9609 -0.2769 0.2769 -0.9609 441.9923 528.7559)" fill="#15161A" width="1.3" height="22.7"/>
		
			<rect x="290" y="229" transform="matrix(-0.9967 -8.127218e-002 8.127218e-002 -0.9967 561.6591 483.7067)" fill="#15161A" width="1.3" height="2.8"/>
		
			<rect x="279.5" y="223.4" transform="matrix(-0.9817 0.1906 -0.1906 -0.9817 600.1003 390.3344)" fill="#15161A" width="3.5" height="1.3"/>
		
			<rect x="285.4" y="216.7" transform="matrix(-0.8354 0.5496 -0.5496 -0.8354 645.5566 245.2312)" fill="#15161A" width="1.3" height="5.2"/>
		
			<rect x="278.1" y="210.8" transform="matrix(-0.6739 -0.7388 0.7388 -0.6739 309.8322 561.3529)" fill="#15161A" width="1.3" height="3.1"/>
		
			<rect x="270.8" y="218.5" transform="matrix(-0.989 0.1478 -0.1478 -0.989 572.6129 398.8719)" fill="#15161A" width="1.3" height="4.4"/>
		
			<rect x="266.7" y="213.3" transform="matrix(-0.9537 0.3006 -0.3006 -0.9537 588.8644 337.3378)" fill="#15161A" width="3.5" height="1.3"/>
		
			<rect x="259.3" y="212.9" transform="matrix(-0.8355 0.5495 -0.5495 -0.8355 595.1124 251.1715)" fill="#15161A" width="1.3" height="3.5"/>
	</g>
</g>
</svg>
